<?xml version="1.0" encoding="utf-8"?>
<!-- Generator: Adobe Illustrator 22.0.0, SVG Export Plug-In . SVG Version: 6.00 Build 0)  -->
<svg version="1.1" id="Layer_1" xmlns="http://www.w3.org/2000/svg" xmlns:xlink="http://www.w3.org/1999/xlink" x="0px" y="0px"
	 viewBox="0 0 153 152" style="enable-background:new 0 0 153 152;" xml:space="preserve">
<style type="text/css">
	.st0{fill:#F8F8F8;}
	.st1{fill:none;stroke:#5BCAA8;stroke-width:6;}
	.st2{clip-path:url(#SVGID_2_);}
	.st3{fill:#E9264B;}
	.st4{fill:#CD0D3B;}
	.st5{fill:#37B24A;}
	.st6{fill:#1C983C;}
</style>
<g>
	<circle class="st0" cx="76.5" cy="76" r="76"/>
	<circle class="st1" cx="76.5" cy="76" r="70.9"/>
</g>
<g>
	<g>
		<defs>
			<rect id="SVGID_1_" x="41.5" y="32.4" width="68.5" height="82"/>
		</defs>
		<clipPath id="SVGID_2_">
			<use xlink:href="#SVGID_1_"  style="overflow:visible;"/>
		</clipPath>
		<g class="st2">
			<path class="st3" d="M54.9,87.5C69.6,60,56,55.7,56,55.7c-0.9-4.8-6.3-4.6-6.3-4.6c8-4,19.5-3.2,32.7,3.3c0,0,15.9-3,25.1,5.5
				c0,0-10.4,0.7-11.5,6.9c0,0-6.6-2.2-10.7,1.9s-9.9,16.5-4.9,28.4c0,0,3,5.7,8.2,4.4c0,0-3,4.5,3.8,8.3c0.1,0.1,0.2,0.1,0.3,0.2
				c-2.4,1.2-4.7,2-6.3,2.6c-6.6,1.9-13.3,2.6-19.7,1.3c-6.8-1.2-19-4.1-25.1-21C56.2,100.2,54.9,87.5,54.9,87.5z"/>
			<path class="st4" d="M102.6,60.7c0,0-2.6-2.9-10.9-2.6c-8.4,0.3-11.4-0.2-14.5-2.3c-3.1-2.1-9.1-3.3-14.5-3.1c0,0,7.8,1,10.5,2.3
				c2.7,1.3,2.3,2.6,0.8,2.7c-1.5,0.1-3.7,0.8-4.4,1.4c0,0,11-1.1,20.3,3.9c0,0-0.7-1.5-2-2.2C86.6,60,94.6,58.2,102.6,60.7z"/>
			<path class="st5" d="M82.4,57.9c0,0,4.7-14.4-6.5-24.7c0,0-5.2,0-4.6,6.4c0,0,9.5,5.4,8.7,17.6C80,57.3,80.9,59.6,82.4,57.9z"/>
			<path class="st6" d="M71.2,39.7c0,0,6.5-0.1,9.6,8.9c1.3,3.7,2.6,1.2,2.4,0.4c0.3,5.1-0.9,8.9-0.9,8.9c-1.5,1.7-2.4-0.5-2.4-0.5
				C80.7,45.1,71.2,39.7,71.2,39.7z"/>
			<path class="st5" d="M81.8,45.1c0,0,1.3-10.8,13.4-9.9s14.7-2.8,14.7-2.8S107.5,48.8,97.6,51C87.8,53.3,81.8,45.1,81.8,45.1z"/>
			<path class="st6" d="M97.6,51c9.8-2.2,12.2-18.6,12.2-18.6c-1.1,3.4-4.2,12.2-12.3,15.3c-5.1,1.9-15.7-2.7-15.7-2.7
				S87.8,53.3,97.6,51z"/>
			<path class="st6" d="M81.8,45.1c0,0,0.1-3.6,10.2-4.1s14.2-4.9,14.2-4.9s-2.7,4.6-10,5.9c-7.3,1.3-11.9,2.3-12.4,3.8
				C83.7,45.8,82.5,46,81.8,45.1z"/>
			<path class="st4" d="M75.8,101.7c-4.8-4.3-4.5-13.5-4.5-13.5c0.6-28.6,23.8-26.9,23.8-26.9c3.8-4.5-3.8-7.4-3.8-7.4
				c5.1,0.3,11.4,1.6,16.1,5.9c0,0-10.4,0.7-11.5,6.9c0,0-6.6-2.2-10.7,1.9c-4.1,4.3-9.8,16.5-4.9,28.4c0,0,3,5.7,8.2,4.4
				c0,0-3,4.5,3.8,8.3c0.1,0.1,0.2,0.1,0.3,0.2c-2.4,1.2-4.7,2-6.3,2.6c-6.6,1.9-13.3,2.6-19.7,1.3c-6.8-1.2-19-4.1-25.1-21
				C54.6,109.4,80.6,106,75.8,101.7z"/>
		</g>
	</g>
</g>
</svg>
