<svg width="38" height="38" viewBox="0 0 38 38" fill="none" xmlns="http://www.w3.org/2000/svg">
<path d="M28.5 23.6122L28.2803 23.8319C28.1052 24.007 27.9419 24.1807 27.7578 24.3544C27.6094 24.4998 27.4684 24.6438 27.3244 24.7878C27.2205 24.8917 27.1284 24.9956 27.0156 25.0965C26.5332 25.5715 26.073 26.0436 25.598 26.5141L24.982 27.1301C24.9642 27.148 24.9494 27.1628 24.9301 27.1821C24.8885 27.2237 24.8529 27.2637 24.8113 27.3008C24.6658 27.4374 24.5144 27.4894 24.3334 27.5205C24.3215 27.5205 24.3155 27.5235 24.3037 27.5235C24.2918 27.5235 24.2814 27.5265 24.2666 27.5265C24.2517 27.5265 24.2339 27.5294 24.2191 27.5339C23.2127 27.6556 22.2033 27.764 21.1939 27.8753C21.0484 27.8901 20.9045 27.908 20.7635 27.9228C20.3953 27.9644 19.9797 27.5517 20.0213 27.1806C20.0287 27.1138 20.0361 27.0441 20.0435 26.9758C20.1474 26.048 20.2514 25.1233 20.3582 24.1955C20.376 24.0174 20.3879 23.817 20.4206 23.6285V23.6255C20.4324 23.4474 20.5052 23.2693 20.6313 23.1431L20.6343 23.1402C20.716 23.0511 20.8006 22.9695 20.8867 22.8848L24.7847 18.9868C25.5269 18.2491 26.2661 17.5054 27.0038 16.7677L27.3037 16.4678C27.4521 16.3194 27.6005 16.171 27.749 16.0196C27.9984 15.7702 28.227 15.5267 28.4867 15.2774L28.4882 8.87666C28.4882 8.37198 28.5179 7.85541 28.4882 7.35073C28.4318 6.45268 27.9093 5.63628 26.937 5.63628H23.2677V6.708C23.2677 6.84456 23.2751 6.98706 23.2677 7.12064C23.2603 7.23197 23.2499 7.3433 23.2202 7.45462C23.0346 8.17009 22.4112 8.65698 21.6943 8.74305C21.4835 8.76532 21.2668 8.75493 21.056 8.75493L12.2092 8.75344C11.994 8.75344 11.7758 8.75641 11.5591 8.75344C10.9653 8.74157 10.4279 8.4536 10.0925 7.95932C9.92178 7.70698 9.83717 7.41752 9.81045 7.12066C9.80303 7.04347 9.79857 6.96034 9.79857 6.88316L9.80006 5.64075H7.21427C6.76895 5.64075 6.25242 5.57841 5.81895 5.6927C5.00552 5.90349 4.5008 6.71988 4.49784 7.5259C4.49784 8.00831 4.49487 8.49076 4.49487 8.97317V31.1496C4.49487 31.5088 4.46815 31.8799 4.50229 32.2362C4.5869 33.1535 5.30683 33.9135 6.2509 33.9165H6.80308H25.276C25.8371 33.9165 26.3923 33.9194 26.9534 33.9165C27.7579 33.9135 28.3457 33.3227 28.4645 32.539C28.512 32.205 28.5016 31.8755 28.5016 31.5415L28.5 23.6122ZM9.28035 14.3615H9.30707C9.88893 14.3466 10.4767 14.3615 11.0586 14.3615H23.7172C24.1328 14.3615 24.4416 14.7029 24.4594 15.1036C24.4772 15.5044 24.1061 15.8458 23.7172 15.8458H23.6905C23.1086 15.8607 22.5208 15.8458 21.9389 15.8458H9.28035C8.86471 15.8458 8.556 15.5074 8.53817 15.1036C8.52036 14.7028 8.89442 14.3615 9.28035 14.3615ZM16.628 27.5725H9.28035C8.86471 27.5725 8.556 27.2311 8.53817 26.8304C8.52036 26.4296 8.89146 26.0882 9.28035 26.0882H16.628C17.0437 26.0882 17.3524 26.4296 17.3702 26.8304C17.3895 27.2311 17.0184 27.5725 16.628 27.5725ZM17.7799 21.7091H9.28195C8.8663 21.7091 8.55759 21.3677 8.53977 20.967C8.52196 20.5662 8.89305 20.2248 9.28195 20.2248H17.7799C18.1955 20.2248 18.5042 20.5662 18.5221 20.967C18.5399 21.3677 18.1688 21.7091 17.7799 21.7091Z" fill="#D9E4EE"/>
<path d="M21.7907 4.28267C21.7877 4.30493 21.7833 4.3272 21.7833 4.34946V6.92484C21.7833 6.9664 21.7803 7.03617 21.7833 7.08515C21.7803 7.1 21.7759 7.11484 21.7714 7.12672C21.7595 7.14156 21.7566 7.1564 21.7566 7.1564C21.7566 7.15937 21.7536 7.16383 21.7536 7.16383C21.7388 7.17867 21.7239 7.19352 21.7091 7.20836C21.7061 7.21133 21.7061 7.21578 21.7017 7.21578C21.6898 7.2232 21.6749 7.23063 21.6601 7.23805C21.6675 7.23805 21.6749 7.23508 21.6779 7.23508L21.6749 7.23805C21.6675 7.23805 21.6601 7.24102 21.6423 7.24547C21.6452 7.2425 21.6541 7.23805 21.6601 7.23359C21.6423 7.23656 21.6156 7.24547 21.6037 7.25141C21.5918 7.25437 21.577 7.25883 21.571 7.26328L21.5681 7.26625H11.8632H11.596H11.5545C11.5396 7.26625 11.5218 7.26328 11.5025 7.25883C11.4877 7.25586 11.4654 7.24398 11.4461 7.24102C11.4387 7.23805 11.4342 7.23359 11.4313 7.23359C11.4239 7.23062 11.4164 7.22617 11.409 7.22172C11.406 7.21875 11.3971 7.2143 11.3942 7.20984C11.3912 7.20984 11.3912 7.20688 11.3867 7.20242C11.3719 7.18758 11.3571 7.17273 11.3422 7.15789C11.3303 7.14305 11.32 7.12078 11.3125 7.10594C11.3096 7.08812 11.3007 7.04953 11.2947 7.03469C11.2947 7.03469 11.2947 7.03172 11.2917 7.03172V7.005C11.2917 6.96789 11.2843 6.93078 11.2843 6.89367C11.2843 6.8907 11.2814 6.88625 11.2814 6.88179V4.42962C11.2814 4.40735 11.2888 4.38508 11.2888 4.36282C11.2888 4.3554 11.2888 4.34798 11.2917 4.3361C11.2917 4.34798 11.2992 4.30345 11.3066 4.26188C11.3185 4.24704 11.3333 4.21735 11.3392 4.19954C11.3392 4.19657 11.3422 4.19212 11.3422 4.18767C11.3452 4.1847 11.3496 4.18024 11.3541 4.17579C11.366 4.16392 11.3808 4.15353 11.3912 4.14313C11.3986 4.14017 11.409 4.13126 11.4179 4.12532C11.4179 4.1372 11.5337 4.08376 11.5485 4.07782C11.5411 4.07782 11.5218 4.07782 11.504 4.08079C11.5218 4.07782 11.5411 4.07337 11.556 4.07337H11.6124H12.4169H19.6977C20.3137 4.07337 20.9297 4.06595 21.5458 4.07634H21.5725C21.525 4.07634 21.6022 4.09415 21.6467 4.10306C21.6615 4.11048 21.6764 4.1179 21.6912 4.12532C21.6942 4.12532 21.6987 4.12829 21.7031 4.12829L21.715 4.14017C21.7298 4.15501 21.7447 4.17282 21.7595 4.18767C21.7595 4.19063 21.7625 4.19063 21.7625 4.19509L21.7655 4.19806C21.7655 4.19806 21.7684 4.19509 21.7684 4.19063C21.7758 4.19806 21.7862 4.20251 21.7862 4.20548V4.2129C21.7862 4.2129 21.7833 4.21587 21.7833 4.22032C21.7833 4.22032 21.7803 4.22032 21.7758 4.21735C21.7758 4.22032 21.7788 4.22478 21.7788 4.22478C21.7788 4.25298 21.7833 4.27228 21.7907 4.28266L21.7907 4.28267Z" fill="#D9E4EE"/>
<path d="M33.5171 16.5035L32.2109 17.8053L29.4381 20.5781C28.7552 21.2609 28.0754 21.9408 27.3926 22.6236C27.3406 22.6755 27.2887 22.7275 27.2367 22.7794C26.8627 23.1535 26.4871 23.5291 26.1086 23.9076C25.4673 24.5488 24.8246 25.1916 24.1819 25.8343C24.0973 25.9189 24.0156 26.0006 23.9295 26.0866H23.9221C23.1473 26.1757 22.371 26.2618 21.5991 26.3509C21.6837 25.6042 21.7653 24.8591 21.8514 24.1095C21.8544 24.0798 21.8588 24.0501 21.8633 24.0204L23.7306 22.1531C24.8855 20.9982 26.0388 19.8449 27.1922 18.6915C27.5306 18.3531 27.8676 18.0191 28.2016 17.6821C28.3723 17.5114 28.543 17.3407 28.7137 17.17C29.6266 16.2571 30.5424 15.3516 31.4479 14.4358C31.4702 14.4536 31.485 14.4684 31.4924 14.4729C31.7299 14.7134 31.9704 14.9509 32.2079 15.1884C32.5048 15.4852 32.8016 15.7821 33.1015 16.082C33.2084 16.1888 33.3167 16.2972 33.4206 16.4011C33.4503 16.4204 33.4845 16.4649 33.5171 16.5035L33.5171 16.5035Z" fill="#D9E4EE"/>
</svg>
