<svg width="38" height="38" viewBox="0 0 38 38" fill="none" xmlns="http://www.w3.org/2000/svg">
<path fill-rule="evenodd" clip-rule="evenodd" d="M19.38 2.28003C9.9351 2.28003 2.28 9.93513 2.28 19.38C2.28 28.8238 9.9351 36.48 19.38 36.48C28.8238 36.48 36.48 28.8238 36.48 19.38C36.48 9.93513 28.8238 2.28003 19.38 2.28003ZM25.4585 26.9785H13.3015C12.4614 26.9785 11.7815 26.2987 11.7815 25.4585C11.7815 24.6184 12.4614 23.9385 13.3015 23.9385H25.46C26.3001 23.9385 26.98 24.6184 26.98 25.4585C26.9785 26.2987 26.2987 26.9785 25.4585 26.9785H25.4585ZM25.4585 20.9H13.3015C12.4614 20.9 11.7815 20.2202 11.7815 19.38C11.7815 18.5399 12.4614 17.86 13.3015 17.86H25.46C26.3001 17.86 26.98 18.5399 26.98 19.38C26.9785 20.2202 26.2987 20.9 25.4585 20.9H25.4585ZM25.4585 14.82H13.3015C12.4614 14.82 11.7815 14.1402 11.7815 13.3C11.7815 12.4599 12.4614 11.78 13.3015 11.78H25.46C26.3001 11.78 26.98 12.4599 26.98 13.3C26.9785 14.1402 26.2987 14.82 25.4585 14.82H25.4585Z" fill="#D9E4EE"/>
</svg>
