<svg width="22" height="22" viewBox="0 0 22 22" fill="none" xmlns="http://www.w3.org/2000/svg">
<path fill-rule="evenodd" clip-rule="evenodd" d="M18.1768 10.0833H19.25C19.7562 10.0833 20.1666 10.4937 20.1666 11C20.1666 11.5063 19.7562 11.9167 19.25 11.9167H18.1768C17.7993 12.9848 16.7807 13.75 15.5833 13.75C14.3859 13.75 13.3673 12.9848 12.9898 11.9167H2.74998C2.24372 11.9167 1.83331 11.5063 1.83331 11C1.83331 10.4937 2.24372 10.0833 2.74998 10.0833H12.9898C13.3673 9.01524 14.3859 8.25 15.5833 8.25C16.7807 8.25 17.7993 9.01524 18.1768 10.0833V10.0833ZM15.5833 10.0833C15.0771 10.0833 14.6666 10.4937 14.6666 11C14.6666 11.5063 15.0771 11.9167 15.5833 11.9167C16.0896 11.9167 16.5 11.5063 16.5 11C16.5 10.4937 16.0896 10.0833 15.5833 10.0833Z" fill="#5BCAA8"/>
<path fill-rule="evenodd" clip-rule="evenodd" d="M19.25 3.66659H9.92683C9.54932 2.59849 8.53068 1.83325 7.33331 1.83325C6.13595 1.83325 5.11731 2.59849 4.73979 3.66659H2.74998C2.24372 3.66659 1.83331 4.07699 1.83331 4.58325C1.83331 5.08951 2.24372 5.49992 2.74998 5.49992H4.73979C5.11731 6.56801 6.13595 7.33325 7.33331 7.33325C8.53068 7.33325 9.54932 6.56801 9.92683 5.49992H19.25C19.7562 5.49992 20.1666 5.08951 20.1666 4.58325C20.1666 4.07699 19.7562 3.66659 19.25 3.66659ZM19.25 16.4999H12.6768C12.2993 15.4318 11.2807 14.6666 10.0833 14.6666C8.88595 14.6666 7.86731 15.4318 7.48979 16.4999H2.74998C2.24372 16.4999 1.83331 16.9103 1.83331 17.4166C1.83331 17.9228 2.24372 18.3333 2.74998 18.3333H7.48979C7.86731 19.4013 8.88595 20.1666 10.0833 20.1666C11.2807 20.1666 12.2993 19.4013 12.6768 18.3333H19.25C19.7562 18.3333 20.1666 17.9228 20.1666 17.4166C20.1666 16.9103 19.7562 16.4999 19.25 16.4999ZM9.16665 17.4166C9.16665 16.9103 9.57705 16.4999 10.0833 16.4999C10.5896 16.4999 11 16.9103 11 17.4166C11 17.9228 10.5896 18.3333 10.0833 18.3333C9.57705 18.3333 9.16665 17.9228 9.16665 17.4166ZM7.33331 3.66659C6.82705 3.66659 6.41665 4.07699 6.41665 4.58325C6.41665 5.08951 6.82705 5.49992 7.33331 5.49992C7.83957 5.49992 8.24998 5.08951 8.24998 4.58325C8.24998 4.07699 7.83957 3.66659 7.33331 3.66659Z" fill="#5BCAA8"/>
</svg>
