<svg width="27" height="33" viewBox="0 0 27 33" fill="none" xmlns="http://www.w3.org/2000/svg">
<path fill-rule="evenodd" clip-rule="evenodd" d="M4.53392 9.17718C2.23812 10.5027 1.45152 13.4383 2.777 15.7341C4.10248 18.0299 7.03811 18.8165 9.33391 17.491L24.114 8.95769C26.4098 7.63221 27.1964 4.69659 25.8709 2.40079C24.5455 0.104994 21.6098 -0.681601 19.314 0.643879L4.53392 9.17718ZM2.4008 23.0438C0.104997 24.3693 -0.681602 27.3049 0.643878 29.6007C1.96936 31.8965 4.90498 32.6831 7.20078 31.3576L21.9809 22.8243C24.2767 21.4988 25.0633 18.5632 23.7378 16.2674C22.4123 13.9716 19.4767 13.185 17.1809 14.5105L2.4008 23.0438Z" fill="#F0F2F7"/>
<path d="M16.8022 26.3467H16.0919V28.0444H18.4998V16.9229H16.8022V26.3467Z" fill="#E93E3E"/>
<path d="M22.0165 10.7729L20.8212 11.9683L22.6228 13.7872H16.0746V15.4676H22.6228L20.8212 17.2692L22.0165 18.4645L25.8623 14.6187L22.0165 10.7729Z" fill="#9D0000"/>
<path d="M18.4996 5H4V25.2582L4.71026 25.518L14.6365 29V8.39537L9.80331 6.69768H16.8019V12.3321H18.4996V5Z" fill="#E93E3E"/>
</svg>
