<svg width="40" height="48" viewBox="0 0 40 48" fill="none" xmlns="http://www.w3.org/2000/svg">
<path fill-rule="evenodd" clip-rule="evenodd" d="M6.80057 13.7651C3.35704 15.7533 2.17719 20.1565 4.16532 23.6C6.15345 27.0436 10.5567 28.2234 14.0002 26.2353L36.1694 13.4359C39.6129 11.4478 40.7927 7.04456 38.8046 3.60102C36.8165 0.157489 32.4133 -1.02236 28.9697 0.965771L6.80057 13.7651ZM3.60102 34.5642C0.157489 36.5523 -1.02236 40.9556 0.965771 44.3991C2.9539 47.8426 7.35712 49.0225 10.8007 47.0344L32.9698 34.235C36.4133 32.2469 37.5932 27.8436 35.6051 24.4001C33.6169 20.9566 29.2137 19.7767 25.7702 21.7648L3.60102 34.5642Z" fill="#F0F2F7"/>
<path fill-rule="evenodd" clip-rule="evenodd" d="M9.16295 20.2944C9.37392 20.0835 9.49244 19.7973 9.49244 19.499C9.49244 19.2006 9.37392 18.9145 9.16295 18.7035C8.95198 18.4925 8.66585 18.374 8.3675 18.374H3.86771C3.56935 18.374 3.28322 18.4925 3.07225 18.7035C2.86128 18.9145 2.74276 19.2006 2.74276 19.499C2.74276 19.7973 2.86128 20.0835 3.07225 20.2944C3.28322 20.5054 3.56935 20.6239 3.86771 20.6239H8.3675C8.66585 20.6239 8.95198 20.5054 9.16295 20.2944ZM9.16295 24.7943C9.37391 24.5834 9.49244 24.2972 9.49244 23.9989C9.49244 23.7005 9.37391 23.4144 9.16295 23.2034C8.95198 22.9924 8.66584 22.8739 8.36749 22.8739L7.24254 22.8739V20.624H4.99265V22.8739L3.8677 22.8739C3.56934 22.8739 3.28321 22.9924 3.07224 23.2034C2.86127 23.4144 2.74275 23.7005 2.74275 23.9989C2.74275 24.2972 2.86127 24.5834 3.07224 24.7943C3.28321 25.0053 3.56934 25.1238 3.8677 25.1238H4.99265V27.3737H3.8677C3.56934 27.3737 3.28321 27.4922 3.07224 27.7032C2.86127 27.9142 2.74275 28.2003 2.74275 28.4987C2.74275 28.797 2.86127 29.0832 3.07224 29.2941C3.28321 29.5051 3.56934 29.6236 3.8677 29.6236H8.36749C8.66584 29.6236 8.95198 29.5051 9.16295 29.2941C9.37391 29.0832 9.49244 28.797 9.49244 28.4987C9.49244 28.2003 9.37391 27.9142 9.16295 27.7032C8.95198 27.4922 8.66584 27.3737 8.36749 27.3737H7.24254V25.1238H8.36749C8.66584 25.1238 8.95198 25.0053 9.16295 24.7943Z" fill="#DE7800"/>
<path d="M33.1163 5.99976H8.36749C7.47242 5.99976 6.61402 6.35532 5.98111 6.98822C5.34821 7.62113 4.99265 8.47953 4.99265 9.3746V18.3742H7.24254V9.3746C7.24254 9.07624 7.36106 8.79011 7.57203 8.57914C7.783 8.36817 8.06913 8.24965 8.36749 8.24965H11.7423V39.7482H8.36749C8.06913 39.7482 7.783 39.6297 7.57203 39.4187C7.36106 39.2077 7.24254 38.9216 7.24254 38.6232V29.6236H4.99265V38.6232C4.99265 39.5183 5.34821 40.3767 5.98111 41.0096C6.61402 41.6425 7.47242 41.9981 8.36749 41.9981H33.1163C34.0114 41.9981 34.8698 41.6425 35.5027 41.0096C36.1356 40.3767 36.4912 39.5183 36.4912 38.6232V9.3746C36.4912 8.47953 36.1356 7.62113 35.5027 6.98822C34.8698 6.35532 34.0114 5.99976 33.1163 5.99976V5.99976ZM24.1167 16.6868C24.673 16.6868 25.2167 16.8517 25.6792 17.1607C26.1417 17.4698 26.5022 17.909 26.715 18.4229C26.9279 18.9368 26.9836 19.5022 26.8751 20.0478C26.7666 20.5933 26.4987 21.0945 26.1054 21.4878C25.7121 21.8811 25.211 22.1489 24.6654 22.2575C24.1199 22.366 23.5544 22.3103 23.0405 22.0974C22.5266 21.8846 22.0874 21.5241 21.7784 21.0616C21.4693 20.5991 21.3044 20.0554 21.3044 19.4991C21.3044 18.7532 21.6007 18.0379 22.1281 17.5105C22.6555 16.9831 23.3709 16.6868 24.1167 16.6868ZM30.304 30.7486C30.304 30.8978 30.2447 31.0408 30.1392 31.1463C30.0337 31.2518 29.8907 31.3111 29.7415 31.3111H18.492C18.3428 31.3111 18.1998 31.2518 18.0943 31.1463C17.9888 31.0408 17.9295 30.8978 17.9295 30.7486V29.6236C17.9325 28.282 18.4668 26.9961 19.4155 26.0474C20.3642 25.0987 21.6501 24.5644 22.9918 24.5614H25.2417C26.5834 24.5644 27.8693 25.0987 28.818 26.0474C29.7667 26.9961 30.301 28.282 30.304 29.6236V30.7486Z" fill="#F19F40"/>
</svg>
