<svg width="86" height="86" viewBox="0 0 86 86" fill="none" xmlns="http://www.w3.org/2000/svg">
<path d="M43 86C23.7361 86 8.0625 70.3264 8.0625 51.0625V34.9375C8.0625 15.6736 23.7361 0 43 0C62.2639 0 77.9375 15.6736 77.9375 34.9375V51.0625C77.9375 70.3264 62.2639 86 43 86Z" fill="#F9DDAA"/>
<path d="M43 0C23.7361 0 8.0625 15.6736 8.0625 34.9375V41.7291L8.59987 41.882C12.868 43.1102 17.2083 43.7309 21.5 43.7309C32.8254 43.7309 43.4678 39.7614 51.9817 32.4626C58.1979 37.7162 65.7499 41.3498 73.7127 42.8576L74.1694 42.9436L77.9375 43V34.9375C77.9375 15.6736 62.2639 0 43 0Z" fill="#F7CE8A"/>
<path d="M21.5 38.3559C17.7135 38.3559 13.8732 37.8048 10.0834 36.7169L8.08679 36.1441L8.10254 34.053C8.58414 14.9558 23.9106 0 43 0C62.2639 0 77.9375 15.6736 77.9375 34.9375V37.625L74.7126 37.5764C65.9966 35.9263 58.0286 31.5138 51.9601 25.0424C44.0295 33.5399 33.0938 38.3559 21.5 38.3559Z" fill="#C59969"/>
<path d="M56.4375 10.75H61.8125V16.125H56.4375V10.75Z" fill="white"/>
<path d="M64.5 21.5H69.875V26.875H64.5V21.5Z" fill="white"/>
<path d="M43 80.625C23.7361 80.625 8.0625 64.9514 8.0625 45.6875V51.0625C8.0625 70.3264 23.7361 86 43 86C62.2639 86 77.9375 70.3264 77.9375 51.0625V45.6875C77.9375 64.9514 62.2639 80.625 43 80.625Z" fill="#F7CE8A"/>
<path d="M42.9895 73.315L36.2734 67.9427L31.2422 71.9713L27.8828 67.7786L36.2734 61.0573L42.9895 66.4349L49.7135 61.0599L58.1146 67.776L54.7604 71.9739L49.7135 67.94L42.9895 73.315Z" fill="#57565C"/>
<path d="M57.6336 55.9861L46.217 48.375L57.6336 40.7639L60.6164 45.2361L55.908 48.375L60.6164 51.5139L57.6336 55.9861Z" fill="#57565C"/>
<path d="M28.3664 55.9861L25.3836 51.5139L30.092 48.375L25.3836 45.2361L28.3664 40.7639L39.783 48.375L28.3664 55.9861Z" fill="#57565C"/>
</svg>
