<svg width="27" height="33" viewBox="0 0 27 33" fill="none" xmlns="http://www.w3.org/2000/svg">
<path fill-rule="evenodd" clip-rule="evenodd" d="M4.53392 9.17718C2.23812 10.5027 1.45152 13.4383 2.777 15.7341C4.10248 18.0299 7.03811 18.8165 9.33391 17.491L24.114 8.95769C26.4098 7.63221 27.1964 4.69659 25.8709 2.40079C24.5455 0.104994 21.6098 -0.681601 19.314 0.643879L4.53392 9.17718ZM2.4008 23.0438C0.104997 24.3693 -0.681602 27.3049 0.643878 29.6007C1.96936 31.8965 4.90498 32.6831 7.20078 31.3576L21.9809 22.8243C24.2767 21.4988 25.0633 18.5632 23.7378 16.2674C22.4123 13.9716 19.4767 13.185 17.1809 14.5105L2.4008 23.0438Z" fill="#F0F2F7"/>
<path d="M26 8.32998V16.5047C26 17.8023 25.0657 18.8923 23.846 19.1518V21.5653C23.846 21.8508 23.7163 22.1103 23.5346 22.3179C23.327 22.4736 23.0675 22.5774 22.808 22.5774C22.5484 22.5774 22.2889 22.4736 22.0813 22.266L19.045 19.2296H9.78028C8.27509 19.2296 7.08131 18.0099 7.08131 16.5307V8.32998C7.08131 6.82479 8.30104 5.63102 9.78028 5.63102H23.2751C24.7803 5.60507 26 6.82479 26 8.32998ZM17.2284 15.5186C17.2284 15.285 17.0467 15.1033 16.8132 15.1033H15.7232C15.4896 15.1033 15.308 15.285 15.308 15.5186V16.2193C15.308 16.4528 15.4896 16.6345 15.7232 16.6345H16.8132C17.0467 16.6345 17.2284 16.4528 17.2284 16.2193V15.5186ZM19.3824 10.7175C19.3824 9.93898 19.1228 9.31614 18.6038 8.84902C18.0848 8.38189 17.3581 8.14832 16.4498 8.14832C15.5934 8.14832 14.9187 8.35594 14.3997 8.74521C13.9325 9.10853 13.699 9.60161 13.6471 10.2504C13.6471 10.4061 13.7509 10.5359 13.9066 10.5359L15.1263 10.5618C15.3339 10.5618 15.5156 10.4321 15.5675 10.2504C15.6194 10.0947 15.6972 9.96493 15.801 9.86113C15.9827 9.70542 16.1903 9.62756 16.4498 9.62756C16.7612 9.62756 17.0208 9.73137 17.1765 9.91303C17.3581 10.0947 17.436 10.3542 17.436 10.6916C17.436 11.003 17.3581 11.2625 17.2024 11.522C17.0467 11.7556 16.8651 11.9632 16.6055 12.1189C16.1125 12.4563 15.7751 12.7677 15.5675 13.0532C15.4118 13.2608 15.3339 13.5463 15.308 13.9355C15.282 14.1172 15.4377 14.2469 15.6194 14.2469H16.9429C17.0986 14.2469 17.2284 14.1431 17.2543 13.9874C17.2803 13.7798 17.3062 13.6241 17.3841 13.4943C17.4619 13.3127 17.6436 13.131 17.8772 12.9753C18.3183 12.7418 18.6817 12.4303 18.9671 12.0411C19.2526 11.6258 19.3824 11.1847 19.3824 10.7175Z" fill="#2F80ED"/>
<path d="M19.3356 20.9508L20.8927 22.5079C20.8149 23.9353 19.6211 25.0512 18.1938 25.0512H8.92907L5.86678 28.1394C5.68512 28.347 5.42561 28.4508 5.16609 28.4508C4.59516 28.4508 4.15398 27.9837 4.15398 27.4387V25.0252C2.93426 24.7657 2 23.6758 2 22.3782V14.1775C2 12.6723 3.21972 11.4785 4.69896 11.4785H6.33391V13.373H4.69896C4.23183 13.373 3.86851 13.7363 3.86851 14.1775V22.3522C3.86851 22.7934 4.23183 23.1827 4.69896 23.1827H6.04844V25.3107L8.17647 23.1827H18.2197C18.6609 23.1827 19.0502 22.8194 19.0502 22.3522V20.9508H19.3356Z" fill="#0048A9"/>
</svg>
