<svg width="134" height="63" viewBox="0 0 134 63" fill="none" xmlns="http://www.w3.org/2000/svg">
<path fill-rule="evenodd" clip-rule="evenodd" d="M25.3482 10.4449C25.3482 10.4449 23.9857 13.0422 24.6389 16.4815C24.6389 16.4815 24.6254 14.6976 25.2238 13.6812C36.4139 13.9005 36.9658 0 36.9658 0C35.183 3.28187 29.8109 3.12704 29.8109 3.12704C29.8109 3.12704 25.1612 2.9663 23.4512 7.06569C22.4692 9.41826 23.8099 13.3621 23.8099 13.3621C24.4612 5.39442 32.8735 4.73406 32.8735 4.73406C27.9981 6.48233 26.0591 8.6719 25.3482 10.4449ZM5.00054 34.3064C6.88864 34.9849 8.77675 35.3242 10.6649 35.3242C12.376 35.3242 13.91 35.0882 15.2671 34.6162C16.6242 34.1146 17.76 33.4656 18.6746 32.669C19.6186 31.843 20.3267 30.8989 20.7987 29.8369C21.3002 28.7453 21.551 27.5948 21.551 26.3852C21.551 24.3496 21.0347 22.7122 20.0021 21.4731C18.9991 20.2341 17.6125 19.2605 15.8424 18.5525L12.1252 17.0479C11.5057 16.7824 10.9304 16.5464 10.3993 16.3399C9.86831 16.1038 9.39629 15.8678 8.98326 15.6318C8.59974 15.3663 8.28997 15.086 8.05396 14.791C7.84745 14.4665 7.74419 14.083 7.74419 13.6404C7.74419 12.8144 8.06871 12.1801 8.71775 11.7376C9.39629 11.2656 10.2961 11.0295 11.4172 11.0295C12.5677 11.0295 13.615 11.2361 14.5591 11.6491C15.5031 12.0326 16.4472 12.5931 17.3912 13.3307L20.7102 9.2152C19.4711 7.97613 18.0255 7.03207 16.3734 6.38303C14.7508 5.73399 13.0987 5.40948 11.4172 5.40948C9.91257 5.40948 8.52599 5.63074 7.25742 6.07326C6.01834 6.51579 4.94153 7.13533 4.02698 7.93187C3.11243 8.69892 2.40439 9.61347 1.90286 10.6755C1.40133 11.7081 1.15057 12.8144 1.15057 13.9945C1.15057 15.0565 1.31283 16.0153 1.63734 16.8709C1.96186 17.6969 2.38964 18.4345 2.92067 19.0835C3.4812 19.703 4.10073 20.2488 4.77927 20.7209C5.48731 21.1929 6.2101 21.5764 6.94765 21.8714L10.7091 23.4645C11.3286 23.73 11.8892 23.9808 12.3907 24.2168C12.9217 24.4233 13.3643 24.6593 13.7183 24.9248C14.1018 25.1609 14.3821 25.4411 14.5591 25.7656C14.7656 26.0902 14.8689 26.4737 14.8689 26.9162C14.8689 27.7718 14.5296 28.4503 13.851 28.9518C13.202 29.4534 12.1989 29.7041 10.8419 29.7041C9.6323 29.7041 8.39323 29.4239 7.12466 28.8633C5.88559 28.3028 4.74977 27.58 3.71721 26.6949L0 31.1645C1.47508 32.551 3.14193 33.5983 5.00054 34.3064ZM25.9171 14.9717V34.7932H32.4222V12.8439C32.4222 12.8439 30.4663 14.6477 27.9529 14.9717C27.1644 15.0734 25.9171 14.9717 25.9171 14.9717Z" fill="white"/>
<path d="M35.9043 34.5252V11.0447H44.4214C45.6859 11.0447 46.8907 11.1771 48.0358 11.4421C49.181 11.6829 50.183 12.1164 51.0419 12.7425C51.9007 13.3446 52.5807 14.1513 53.0817 15.1628C53.6066 16.1502 53.869 17.3784 53.869 18.8474C53.869 20.2924 53.6066 21.5327 53.0817 22.5682C52.5807 23.6038 51.9007 24.4587 51.0419 25.133C50.183 25.7832 49.1929 26.2769 48.0716 26.6141C46.9503 26.9271 45.7813 27.0837 44.5646 27.0837H42.0595V34.5252H35.9043ZM42.0595 22.1708H44.2783C45.495 22.1708 46.3897 21.8819 46.9622 21.3039C47.5587 20.7259 47.8569 19.9071 47.8569 18.8474C47.8569 17.7878 47.5348 17.0413 46.8907 16.6078C46.2465 16.1743 45.328 15.9575 44.1351 15.9575H42.0595V22.1708Z" fill="white"/>
<path d="M62.0848 34.9587C61.2498 34.9587 60.4983 34.8142 59.8303 34.5252C59.1623 34.2121 58.5897 33.8027 58.1126 33.297C57.6593 32.7913 57.3133 32.2012 57.0748 31.5269C56.8362 30.8526 56.7169 30.1422 56.7169 29.3956C56.7169 27.5172 57.4804 26.0481 59.0072 24.9885C60.5341 23.9048 63.0153 23.1823 66.4508 22.8211C66.3076 21.5688 65.4726 20.9426 63.9457 20.9426C63.3016 20.9426 62.6216 21.0751 61.9059 21.34C61.1902 21.5808 60.3671 21.9541 59.4367 22.4598L57.2895 18.414C58.5539 17.6433 59.8303 17.0533 61.1186 16.6439C62.4069 16.2345 63.7549 16.0298 65.1625 16.0298C67.4766 16.0298 69.2898 16.7041 70.602 18.0527C71.938 19.3773 72.606 21.5206 72.606 24.4828V34.5252H67.5959L67.1665 32.7913H67.0233C66.3076 33.4415 65.5442 33.9713 64.733 34.3807C63.9457 34.766 63.063 34.9587 62.0848 34.9587ZM64.232 30.1903C64.733 30.1903 65.1386 30.082 65.4488 29.8652C65.7828 29.6244 66.1168 29.3234 66.4508 28.9621V26.5057C64.9716 26.7224 63.9577 27.0476 63.4089 27.481C62.8602 27.9145 62.5859 28.3841 62.5859 28.8899C62.5859 29.7568 63.1346 30.1903 64.232 30.1903Z" fill="white"/>
<path d="M116.936 34.5252V9.383H123.091V15.2351L122.805 18.3417C123.425 17.7878 124.165 17.27 125.024 16.7884C125.906 16.2827 126.956 16.0298 128.173 16.0298C130.129 16.0298 131.549 16.7041 132.431 18.0527C133.314 19.3773 133.755 21.1594 133.755 23.399V34.5252H127.6V24.1938C127.6 23.0378 127.457 22.2672 127.171 21.8818C126.884 21.4965 126.431 21.3039 125.811 21.3039C125.238 21.3039 124.761 21.4243 124.379 21.6651C123.998 21.9059 123.568 22.2431 123.091 22.6766V34.5252H116.936Z" fill="white"/>
<path d="M76.5353 34.5252V11.0447H85.0524C86.3169 11.0447 87.5217 11.1771 88.6668 11.4421C89.812 11.6829 90.814 12.1164 91.6729 12.7425C92.5318 13.3446 93.2117 14.1513 93.7127 15.1628C94.2376 16.1502 94.5 17.3784 94.5 18.8474C94.5 20.2924 94.2376 21.5327 93.7127 22.5682C93.2117 23.6038 92.5318 24.4587 91.6729 25.133C90.814 25.7832 89.8239 26.2769 88.7026 26.6141C87.5813 26.9271 86.4123 27.0837 85.1956 27.0837H82.6905V34.5252H76.5353ZM82.6905 22.1708H84.9093C86.126 22.1708 87.0207 21.8819 87.5933 21.3039C88.1897 20.7259 88.4879 19.9071 88.4879 18.8474C88.4879 17.7878 88.1658 17.0413 87.5217 16.6078C86.8775 16.1743 85.959 15.9575 84.7661 15.9575H82.6905V22.1708Z" fill="white"/>
<path d="M102.549 34.9587C101.714 34.9587 100.962 34.8142 100.294 34.5252C99.6263 34.2121 99.0537 33.8027 98.5765 33.297C98.1232 32.7913 97.7773 32.2012 97.5387 31.5269C97.3001 30.8526 97.1809 30.1422 97.1809 29.3956C97.1809 27.5172 97.9443 26.0481 99.4712 24.9885C100.998 23.9048 103.479 23.1823 106.915 22.8211C106.772 21.5688 105.937 20.9426 104.41 20.9426C103.766 20.9426 103.086 21.0751 102.37 21.34C101.654 21.5808 100.831 21.9541 99.9006 22.4598L97.7534 18.414C99.0179 17.6433 100.294 17.0533 101.583 16.6439C102.871 16.2345 104.219 16.0298 105.626 16.0298C107.941 16.0298 109.754 16.7041 111.066 18.0527C112.402 19.3773 113.07 21.5206 113.07 24.4828V34.5252H108.06L107.63 32.7913H107.487C106.772 33.4415 106.008 33.9713 105.197 34.3807C104.41 34.766 103.527 34.9587 102.549 34.9587ZM104.696 30.1903C105.197 30.1903 105.603 30.082 105.913 29.8652C106.247 29.6244 106.581 29.3234 106.915 28.9621V26.5057C105.436 26.7224 104.422 27.0476 103.873 27.481C103.324 27.9145 103.05 28.3841 103.05 28.8899C103.05 29.7568 103.599 30.1903 104.696 30.1903Z" fill="white"/>
<path d="M21.2445 57.6074C19.9757 57.6074 18.7814 57.4221 17.6618 57.0515C16.5422 56.6623 15.5626 56.0878 14.7229 55.328C13.9018 54.5497 13.2487 53.5861 12.7636 52.4372C12.2971 51.2697 12.0638 49.9169 12.0638 48.3788C12.0638 46.8593 12.3064 45.5158 12.7916 44.3483C13.2767 43.1623 13.9298 42.1709 14.7509 41.374C15.5906 40.5587 16.5609 39.9379 17.6618 39.5116C18.7628 39.0854 19.9197 38.8723 21.1326 38.8723C22.4761 38.8723 23.633 39.1132 24.6033 39.595C25.5923 40.0583 26.4134 40.6143 27.0665 41.2628L24.5474 44.3205C24.0995 43.9313 23.6237 43.6163 23.1199 43.3754C22.6347 43.116 22.0283 42.9862 21.3005 42.9862C20.6847 42.9862 20.1156 43.1067 19.5931 43.3476C19.0707 43.5885 18.6135 43.9313 18.2216 44.3761C17.8298 44.8208 17.5219 45.3675 17.298 46.0161C17.0927 46.6647 16.9901 47.3967 16.9901 48.2121C16.9901 49.9169 17.3726 51.2234 18.1377 52.1314C18.9027 53.0394 20.1063 53.4935 21.7484 53.4935C22.0096 53.4935 22.2615 53.4657 22.5041 53.4101C22.7653 53.3545 22.9799 53.2711 23.1479 53.1599V50.6582H20.4608V46.7666H27.4023V55.3836C26.7492 55.9952 25.8815 56.5233 24.7993 56.9681C23.717 57.3943 22.5321 57.6074 21.2445 57.6074Z" fill="white"/>
<path d="M34.1895 57.6074C33.5364 57.6074 32.9486 57.4962 32.4261 57.2738C31.9036 57.0329 31.4558 56.7179 31.0826 56.3287C30.728 55.9396 30.4575 55.4856 30.2709 54.9667C30.0843 54.4478 29.991 53.9011 29.991 53.3267C29.991 51.8812 30.5881 50.7508 31.7823 49.9355C32.9766 49.1016 34.9172 48.5456 37.6042 48.2676C37.4923 47.304 36.8392 46.8222 35.6449 46.8222C35.1411 46.8222 34.6093 46.9241 34.0495 47.128C33.4897 47.3133 32.846 47.6005 32.1182 47.9897L30.4388 44.8764C31.4278 44.2834 32.4261 43.8294 33.4337 43.5144C34.4414 43.1994 35.4957 43.0418 36.5966 43.0418C38.4066 43.0418 39.8248 43.5607 40.8511 44.5985C41.896 45.6177 42.4185 47.267 42.4185 49.5463V57.2738H38.4999L38.164 55.9396H38.0521C37.4923 56.4399 36.8952 56.8476 36.2607 57.1626C35.6449 57.4591 34.9545 57.6074 34.1895 57.6074ZM35.8689 53.9382C36.2607 53.9382 36.5779 53.8548 36.8205 53.688C37.0818 53.5027 37.343 53.2711 37.6042 52.9931V51.1029C36.4473 51.2697 35.6543 51.5199 35.2251 51.8534C34.7959 52.187 34.5813 52.5484 34.5813 52.9375C34.5813 53.6046 35.0105 53.9382 35.8689 53.9382Z" fill="white"/>
<path d="M45.5571 57.2738V43.3754H49.4757L49.8116 45.0432H49.9236C50.4834 44.5058 51.1178 44.0425 51.8269 43.6534C52.5546 43.2457 53.3943 43.0418 54.346 43.0418C55.8761 43.0418 56.9864 43.5607 57.6768 44.5985C58.3672 45.6177 58.7124 46.989 58.7124 48.7124V57.2738H53.8981V49.3239C53.8981 48.4344 53.7862 47.8414 53.5623 47.5449C53.3383 47.2484 52.9838 47.1002 52.4986 47.1002C52.0508 47.1002 51.6776 47.1928 51.379 47.3781C51.0805 47.5635 50.7446 47.8229 50.3714 48.1565V57.2738H45.5571Z" fill="white"/>
<path d="M64.8634 57.2738V43.2086H60.0492V39.2059H74.492V43.2086H69.6777V57.2738H64.8634Z" fill="white"/>
<path d="M81.0521 57.6074C80.0258 57.6074 79.0742 57.4499 78.1972 57.1348C77.3201 56.8013 76.5551 56.3287 75.902 55.7172C75.2675 55.0871 74.7637 54.3181 74.3905 53.4101C74.0173 52.502 73.8307 51.4735 73.8307 50.3246C73.8307 49.1942 74.0173 48.1843 74.3905 47.2948C74.7824 46.3867 75.2862 45.6177 75.902 44.9876C76.5364 44.3576 77.2548 43.8757 78.0572 43.5422C78.8596 43.2086 79.69 43.0418 80.5483 43.0418C81.5746 43.0418 82.4703 43.2179 83.2354 43.57C84.0004 43.9221 84.6348 44.4039 85.1387 45.0154C85.6425 45.6269 86.0157 46.3404 86.2583 47.1558C86.5195 47.9711 86.6501 48.8421 86.6501 49.7687C86.6501 50.1949 86.6221 50.5933 86.5662 50.9639C86.5288 51.3346 86.4915 51.6033 86.4542 51.77H78.4771C78.701 52.604 79.1022 53.1877 79.6806 53.5213C80.2591 53.8363 80.9402 53.9938 81.7239 53.9938C82.2091 53.9938 82.6756 53.9289 83.1234 53.7992C83.5899 53.651 84.0751 53.4379 84.5789 53.1599L86.1463 55.9952C85.3813 56.5326 84.5322 56.9403 83.5992 57.2182C82.6849 57.4777 81.8359 57.6074 81.0521 57.6074ZM78.4211 48.6568H82.5636C82.5636 48.1194 82.4236 47.6561 82.1437 47.267C81.8825 46.8593 81.388 46.6554 80.6603 46.6554C80.1191 46.6554 79.6433 46.8129 79.2328 47.128C78.8409 47.443 78.5704 47.9526 78.4211 48.6568Z" fill="white"/>
<path d="M89.6833 57.2738V39.2059H94.6096L98.6401 47.267L100.376 51.3253H100.487C100.431 50.8435 100.366 50.3153 100.292 49.7409C100.217 49.1664 100.152 48.5827 100.096 47.9897C100.04 47.3781 99.9836 46.7759 99.9277 46.1829C99.8903 45.5714 99.8717 44.9876 99.8717 44.4317V39.2059H104.462V57.2738H99.5358L95.5052 49.1849L93.7699 45.1544H93.6579C93.7699 46.1922 93.9005 47.3226 94.0498 48.5456C94.199 49.7687 94.2737 50.9361 94.2737 52.048V57.2738H89.6833Z" fill="white"/>
<path d="M113.191 63C112.389 63 111.633 62.9351 110.924 62.8054C110.215 62.6942 109.59 62.4996 109.049 62.2217C108.526 61.9437 108.107 61.5823 107.789 61.1376C107.472 60.7114 107.314 60.1832 107.314 59.5532C107.314 58.4598 107.967 57.5703 109.273 56.8847V56.7735C108.9 56.514 108.592 56.199 108.349 55.8284C108.107 55.4578 107.985 54.976 107.985 54.383C107.985 53.9011 108.125 53.4286 108.405 52.9653C108.685 52.502 109.068 52.1036 109.553 51.77V51.6589C109.049 51.3253 108.601 50.8528 108.209 50.2412C107.836 49.6297 107.649 48.9162 107.649 48.1009C107.649 47.2484 107.817 46.5072 108.153 45.8771C108.489 45.2285 108.937 44.7004 109.497 44.2927C110.057 43.8665 110.691 43.5515 111.4 43.3476C112.128 43.1438 112.874 43.0418 113.639 43.0418C114.46 43.0418 115.207 43.153 115.878 43.3754H121.085V46.8222H119.069C119.125 46.989 119.172 47.2021 119.209 47.4615C119.265 47.721 119.293 47.9897 119.293 48.2676C119.293 49.083 119.144 49.7872 118.845 50.3802C118.547 50.9547 118.146 51.4272 117.642 51.7978C117.138 52.1685 116.541 52.4464 115.85 52.6318C115.16 52.7985 114.423 52.8819 113.639 52.8819C113.173 52.8819 112.65 52.8171 112.072 52.6873C111.923 52.8171 111.829 52.9375 111.792 53.0487C111.755 53.1414 111.736 53.2896 111.736 53.4935C111.736 53.8085 111.885 54.0309 112.184 54.1606C112.482 54.2718 112.986 54.3274 113.695 54.3274H115.794C117.549 54.3274 118.901 54.6146 119.853 55.1891C120.823 55.745 121.309 56.6623 121.309 57.9409C121.309 58.7007 121.113 59.3864 120.721 59.9979C120.348 60.628 119.806 61.1654 119.097 61.6101C118.407 62.0549 117.558 62.3977 116.55 62.6386C115.561 62.8795 114.442 63 113.191 63ZM113.639 50.0466C114.087 50.0466 114.451 49.8891 114.731 49.5741C115.011 49.2591 115.151 48.768 115.151 48.1009C115.151 47.4523 115.011 46.9797 114.731 46.6832C114.451 46.3682 114.087 46.2107 113.639 46.2107C113.191 46.2107 112.828 46.3682 112.548 46.6832C112.268 46.9797 112.128 47.4523 112.128 48.1009C112.128 48.768 112.268 49.2591 112.548 49.5741C112.828 49.8891 113.191 50.0466 113.639 50.0466ZM113.975 60.0535C114.759 60.0535 115.412 59.9331 115.934 59.6921C116.457 59.4698 116.718 59.164 116.718 58.7749C116.718 58.4042 116.55 58.1726 116.214 58.0799C115.897 57.9873 115.44 57.9409 114.843 57.9409H113.751C113.191 57.9409 112.762 57.9224 112.464 57.8854C112.184 57.8668 111.941 57.8298 111.736 57.7742C111.568 57.9409 111.437 58.0985 111.344 58.2467C111.269 58.395 111.232 58.571 111.232 58.7749C111.232 59.2196 111.484 59.5439 111.988 59.7477C112.492 59.9516 113.154 60.0535 113.975 60.0535Z" fill="white"/>
</svg>
