<svg width="129" height="70" viewBox="0 0 129 70" fill="none" xmlns="http://www.w3.org/2000/svg">
<path fill-rule="evenodd" clip-rule="evenodd" d="M26.7412 11.6461C26.7412 11.6461 25.3413 14.3149 26.0124 17.849C26.0124 17.849 25.9986 16.016 26.6134 14.9715C38.1119 15.197 38.679 0.91333 38.679 0.91333C36.8471 4.28565 31.327 4.12655 31.327 4.12655C31.327 4.12655 26.5491 3.96138 24.7919 8.17375C23.7829 10.5912 25.1606 14.6437 25.1606 14.6437C25.8298 6.45641 34.4739 5.77786 34.4739 5.77786C29.4642 7.57431 27.4717 9.82422 26.7412 11.6461ZM5.83282 36.1652C7.77296 36.8624 9.71311 37.211 11.6533 37.211C13.4115 37.211 14.9879 36.9685 16.3823 36.4835C17.7768 35.9681 18.9439 35.3012 19.8837 34.4827C20.8538 33.6339 21.5813 32.6638 22.0664 31.5725C22.5817 30.4509 22.8394 29.2686 22.8394 28.0257C22.8394 25.934 22.3089 24.2515 21.2479 22.9783C20.2172 21.705 18.7924 20.7047 16.9735 19.9771L13.1538 18.4311C12.5172 18.1582 11.9261 17.9157 11.3804 17.7035C10.8348 17.461 10.3497 17.2185 9.92531 16.9759C9.53122 16.7031 9.21291 16.4151 8.9704 16.112C8.75819 15.7785 8.65209 15.3844 8.65209 14.9297C8.65209 14.0809 8.98555 13.4291 9.65248 12.9744C10.3497 12.4894 11.2743 12.2468 12.4263 12.2468C13.6086 12.2468 14.6847 12.4591 15.6548 12.8835C16.6249 13.2775 17.5949 13.8535 18.565 14.6114L21.9754 10.3825C20.7022 9.10927 19.2168 8.1392 17.5192 7.47228C15.8518 6.80535 14.1542 6.47189 12.4263 6.47189C10.8802 6.47189 9.45543 6.69925 8.1519 7.15397C6.87868 7.60869 5.77219 8.2453 4.83243 9.0638C3.89268 9.85198 3.16512 10.7917 2.64977 11.8831C2.13442 12.9441 1.87675 14.0809 1.87675 15.2935C1.87675 16.3848 2.04348 17.37 2.37694 18.2492C2.7104 19.098 3.14997 19.8559 3.69563 20.5228C4.27161 21.1594 4.90822 21.7202 5.60546 22.2052C6.33301 22.6903 7.07573 23.0844 7.83359 23.3875L11.6987 25.0245C12.3353 25.2973 12.9113 25.555 13.4267 25.7975C13.9723 26.0097 14.427 26.2523 14.7908 26.5251C15.1849 26.7676 15.4729 27.0556 15.6548 27.3891C15.867 27.7225 15.9731 28.1166 15.9731 28.5713C15.9731 29.4505 15.6245 30.1477 14.9272 30.6631C14.2603 31.1784 13.2296 31.4361 11.8351 31.4361C10.5922 31.4361 9.31902 31.1481 8.01548 30.5721C6.74226 29.9961 5.57515 29.2534 4.51413 28.344L0.694473 32.9367C2.21021 34.3615 3.92299 35.4376 5.83282 36.1652ZM27.3259 16.2977V36.6654H34.0103V14.1112C34.0103 14.1112 32.0004 15.9647 29.4177 16.2977C28.6075 16.4021 27.3259 16.2977 27.3259 16.2977Z" fill="white"/>
<path d="M38.0655 44.6658V14.6649H43.3598L43.801 16.8267H43.9774C44.8304 16.062 45.7863 15.4296 46.8452 14.9296C47.9334 14.4002 49.0511 14.1354 50.1982 14.1354C51.5218 14.1354 52.713 14.4002 53.7718 14.9296C54.8307 15.459 55.7278 16.209 56.4631 17.1796C57.1984 18.1503 57.7573 19.3268 58.1396 20.7092C58.5514 22.0621 58.7573 23.5769 58.7573 25.2534C58.7573 27.1358 58.4926 28.8123 57.9632 30.283C57.4631 31.7242 56.7719 32.9595 55.8896 33.989C55.0366 34.989 54.0513 35.7537 52.9336 36.2832C51.8453 36.8126 50.7129 37.0773 49.5364 37.0773C48.5952 37.0773 47.6834 36.8861 46.8011 36.5037C45.9187 36.092 45.0951 35.5184 44.3304 34.7831L44.551 38.2685V44.6658H38.0655ZM48.0364 31.783C49.1541 31.783 50.11 31.283 50.9041 30.283C51.6983 29.2535 52.0953 27.6064 52.0953 25.3417C52.0953 21.4004 50.8306 19.4297 48.3011 19.4297C47.0364 19.4297 45.7863 20.0915 44.551 21.4151V30.3712C45.1392 30.9006 45.7275 31.2683 46.3157 31.4742C46.904 31.6801 47.4775 31.783 48.0364 31.783Z" fill="white"/>
<path d="M68.3973 37.0773C67.3973 37.0773 66.4855 36.9008 65.6619 36.5479C64.8678 36.2243 64.1913 35.7684 63.6324 35.1802C63.0736 34.5625 62.6324 33.8566 62.3089 33.0625C62.0147 32.2683 61.8677 31.4007 61.8677 30.4595C61.8677 28.1653 62.8383 26.3711 64.7795 25.0769C66.7208 23.7828 69.8532 22.9151 74.1769 22.4739C74.118 21.5033 73.8239 20.7386 73.2945 20.1797C72.7945 19.5915 71.9415 19.2974 70.7356 19.2974C69.7944 19.2974 68.8532 19.4738 67.912 19.8268C67.0002 20.1797 66.0149 20.665 64.956 21.2827L62.6177 17.0032C64.0295 16.1502 65.5001 15.459 67.0296 14.9296C68.5885 14.4002 70.2356 14.1354 71.9709 14.1354C74.7945 14.1354 76.9417 14.9443 78.4123 16.562C79.9123 18.1503 80.6624 20.6356 80.6624 24.0181V36.5479H75.3681L74.9269 34.2978H74.7504C73.8092 35.1214 72.8239 35.7978 71.7944 36.3273C70.765 36.8273 69.6326 37.0773 68.3973 37.0773ZM70.6032 32.0477C71.3385 32.0477 71.9709 31.886 72.5004 31.5624C73.0298 31.2389 73.5886 30.783 74.1769 30.1947V26.3564C71.8827 26.6799 70.2944 27.1505 69.412 27.7682C68.5296 28.3859 68.0885 29.1212 68.0885 29.9741C68.0885 30.68 68.309 31.2095 68.7502 31.5624C69.2208 31.886 69.8385 32.0477 70.6032 32.0477Z" fill="white"/>
<path d="M86.1483 44.6658V14.6649H91.4425L91.8837 16.8267H92.0602C92.9132 16.062 93.8691 15.4296 94.9279 14.9296C96.0162 14.4002 97.1339 14.1354 98.281 14.1354C99.6046 14.1354 100.796 14.4002 101.855 14.9296C102.913 15.459 103.811 16.209 104.546 17.1796C105.281 18.1503 105.84 19.3268 106.222 20.7092C106.634 22.0621 106.84 23.5769 106.84 25.2534C106.84 27.1358 106.575 28.8123 106.046 30.283C105.546 31.7242 104.855 32.9595 103.972 33.989C103.119 34.989 102.134 35.7537 101.016 36.2832C99.9281 36.8126 98.7957 37.0773 97.6192 37.0773C96.678 37.0773 95.7662 36.8861 94.8838 36.5037C94.0014 36.092 93.1779 35.5184 92.4132 34.7831L92.6338 38.2685V44.6658H86.1483ZM96.1192 31.783C97.2368 31.783 98.1927 31.283 98.9869 30.283C99.781 29.2535 100.178 27.6064 100.178 25.3417C100.178 21.4004 98.9134 19.4297 96.3839 19.4297C95.1191 19.4297 93.8691 20.0915 92.6338 21.4151V30.3712C93.222 30.9006 93.8103 31.2683 94.3985 31.4742C94.9868 31.6801 95.5603 31.783 96.1192 31.783Z" fill="white"/>
<path d="M116.48 37.0773C115.48 37.0773 114.568 36.9008 113.745 36.5479C112.951 36.2243 112.274 35.7684 111.715 35.1802C111.156 34.5625 110.715 33.8566 110.392 33.0625C110.098 32.2683 109.95 31.4007 109.95 30.4595C109.95 28.1653 110.921 26.3711 112.862 25.0769C114.804 23.7828 117.936 22.9151 122.26 22.4739C122.201 21.5033 121.907 20.7386 121.377 20.1797C120.877 19.5915 120.024 19.2974 118.818 19.2974C117.877 19.2974 116.936 19.4738 115.995 19.8268C115.083 20.1797 114.098 20.665 113.039 21.2827L110.7 17.0032C112.112 16.1502 113.583 15.459 115.112 14.9296C116.671 14.4002 118.318 14.1354 120.054 14.1354C122.877 14.1354 125.024 14.9443 126.495 16.562C127.995 18.1503 128.745 20.6356 128.745 24.0181V36.5479H123.451L123.01 34.2978H122.833C121.892 35.1214 120.907 35.7978 119.877 36.3273C118.848 36.8273 117.715 37.0773 116.48 37.0773ZM118.686 32.0477C119.421 32.0477 120.054 31.886 120.583 31.5624C121.113 31.2389 121.671 30.783 122.26 30.1947V26.3564C119.965 26.6799 118.377 27.1505 117.495 27.7682C116.612 28.3859 116.171 29.1212 116.171 29.9741C116.171 30.68 116.392 31.2095 116.833 31.5624C117.304 31.886 117.921 32.0477 118.686 32.0477Z" fill="white"/>
<path d="M23.0028 62.9469C21.588 62.9469 20.2577 62.7252 19.0118 62.2817C17.787 61.8171 16.7206 61.1414 15.8126 60.2545C14.9046 59.3676 14.1866 58.2695 13.6587 56.9603C13.1519 55.6299 12.8985 54.099 12.8985 52.3674C12.8985 50.6569 13.1624 49.1365 13.6903 47.8062C14.2183 46.4547 14.9362 45.3144 15.8442 44.3852C16.7734 43.4561 17.8503 42.7487 19.0751 42.263C20.2999 41.7773 21.5986 41.5345 22.9712 41.5345C24.4704 41.5345 25.7586 41.809 26.8355 42.358C27.9125 42.9071 28.7888 43.53 29.4646 44.2269L27.0256 47.2043C26.4977 46.7398 25.9381 46.3491 25.3468 46.0324C24.7555 45.7156 24.0164 45.5572 23.1295 45.5572C22.3271 45.5572 21.588 45.7156 20.9123 46.0324C20.2577 46.328 19.6875 46.7609 19.2018 47.331C18.7161 47.9012 18.336 48.598 18.0615 49.4216C17.8081 50.2452 17.6814 51.1743 17.6814 52.209C17.6814 54.3418 18.1565 55.9995 19.1068 57.182C20.0782 58.3434 21.5352 58.9241 23.478 58.9241C23.9003 58.9241 24.3121 58.8714 24.7133 58.7658C25.1145 58.6602 25.4418 58.5018 25.6952 58.2906V54.743H22.2743V50.942H29.813V60.4445C29.095 61.1414 28.1448 61.7327 26.9622 62.2184C25.7797 62.704 24.4599 62.9469 23.0028 62.9469Z" fill="white"/>
<path d="M37.6588 62.9469C36.9408 62.9469 36.2862 62.8202 35.6949 62.5668C35.1248 62.3345 34.6391 62.0072 34.2379 61.5849C33.8366 61.1414 33.5199 60.6346 33.2876 60.0644C33.0764 59.4943 32.9709 58.8714 32.9709 58.1956C32.9709 56.5485 33.6677 55.2604 35.0614 54.3312C36.4551 53.4021 38.7041 52.7792 41.8082 52.4624C41.766 51.7656 41.5548 51.2165 41.1747 50.8153C40.8157 50.393 40.2033 50.1818 39.3376 50.1818C38.6618 50.1818 37.9861 50.3085 37.3103 50.5619C36.6557 50.8153 35.9483 51.1637 35.1881 51.6072L33.5093 48.5347C34.5229 47.9223 35.5788 47.4261 36.6768 47.046C37.796 46.6659 38.9786 46.4758 40.2245 46.4758C42.2517 46.4758 43.7932 47.0565 44.849 48.2179C45.926 49.3582 46.4645 51.1426 46.4645 53.571V62.5668H42.6635L42.3467 60.9514H42.22C41.5443 61.5426 40.8368 62.0283 40.0978 62.4084C39.3587 62.7674 38.5457 62.9469 37.6588 62.9469ZM39.2425 59.3359C39.7705 59.3359 40.2245 59.2198 40.6046 58.9875C40.9847 58.7552 41.3859 58.4279 41.8082 58.0056V55.2498C40.1611 55.4821 39.0208 55.82 38.3873 56.2634C37.7538 56.7069 37.437 57.2348 37.437 57.8472C37.437 58.354 37.5954 58.7341 37.9122 58.9875C38.25 59.2198 38.6935 59.3359 39.2425 59.3359Z" fill="white"/>
<path d="M50.4031 62.5668V46.8559H54.2041L54.5208 48.8514H54.6475C55.3233 48.2179 56.0624 47.6689 56.8648 47.2043C57.6672 46.7187 58.6069 46.4758 59.6839 46.4758C61.3943 46.4758 62.6297 47.0354 63.3899 48.1546C64.1712 49.2738 64.5619 50.8259 64.5619 52.8108V62.5668H59.9056V53.4127C59.9056 52.2724 59.7472 51.491 59.4305 51.0687C59.1349 50.6464 58.6492 50.4352 57.9734 50.4352C57.3822 50.4352 56.8754 50.5725 56.453 50.847C56.0307 51.1004 55.5661 51.4699 55.0593 51.9556V62.5668H50.4031Z" fill="white"/>
<path d="M74.5796 62.9469C73.6082 62.9469 72.7741 62.7991 72.0773 62.5034C71.4016 62.2078 70.842 61.796 70.3985 61.2681C69.9762 60.7402 69.6594 60.1067 69.4483 59.3676C69.2582 58.6074 69.1632 57.7733 69.1632 56.8653V50.4986H67.0093V47.046L69.4166 46.8559L69.9551 42.6748H73.8194V46.8559H77.5888V50.4986H73.8194V56.8019C73.8194 57.6888 73.9989 58.3329 74.3579 58.7341C74.738 59.1142 75.2342 59.3042 75.8466 59.3042C76.1 59.3042 76.3534 59.2726 76.6068 59.2092C76.8813 59.1459 77.1242 59.072 77.3354 58.9875L78.0639 62.3767C77.6416 62.5034 77.1453 62.6301 76.5752 62.7568C76.005 62.8835 75.3398 62.9469 74.5796 62.9469Z" fill="white"/>
<path d="M87.1304 62.9469C86.0112 62.9469 84.9659 62.7674 83.9946 62.4084C83.0232 62.0283 82.1785 61.4898 81.4606 60.793C80.7426 60.075 80.183 59.2092 79.7818 58.1956C79.3806 57.182 79.1799 56.0206 79.1799 54.7113C79.1799 53.4443 79.3911 52.304 79.8134 51.2904C80.2358 50.2557 80.7848 49.3899 81.4606 48.6931C82.1574 47.9751 82.9493 47.4261 83.8362 47.046C84.7231 46.6659 85.6417 46.4758 86.5919 46.4758C87.7111 46.4758 88.6825 46.6659 89.506 47.046C90.3507 47.4261 91.0476 47.954 91.5966 48.6297C92.1668 49.3055 92.5891 50.1079 92.8636 51.037C93.1381 51.9451 93.2754 52.9375 93.2754 54.0145C93.2754 54.4368 93.2543 54.838 93.212 55.2182C93.1698 55.5983 93.1276 55.8833 93.0853 56.0734H83.6778C83.889 57.2137 84.3536 58.0584 85.0715 58.6074C85.8106 59.1353 86.7081 59.3993 87.7639 59.3993C88.8831 59.3993 90.0128 59.0508 91.1532 58.354L92.7052 61.1731C91.9028 61.7221 91.0053 62.155 90.0128 62.4718C89.0415 62.7885 88.0807 62.9469 87.1304 62.9469ZM83.6461 53.0009H89.316C89.316 52.114 89.1154 51.396 88.7142 50.847C88.3129 50.2979 87.6372 50.0234 86.687 50.0234C85.9479 50.0234 85.2932 50.2663 84.7231 50.752C84.174 51.2376 83.8151 51.9873 83.6461 53.0009Z" fill="white"/>
<path d="M96.4929 62.5668V46.8559H100.294L100.611 48.8514H100.737C101.413 48.2179 102.152 47.6689 102.955 47.2043C103.757 46.7187 104.697 46.4758 105.774 46.4758C107.484 46.4758 108.719 47.0354 109.48 48.1546C110.261 49.2738 110.652 50.8259 110.652 52.8108V62.5668H105.995V53.4127C105.995 52.2724 105.837 51.491 105.52 51.0687C105.225 50.6464 104.739 50.4352 104.063 50.4352C103.472 50.4352 102.965 50.5725 102.543 50.847C102.12 51.1004 101.656 51.4699 101.149 51.9556V62.5668H96.4929Z" fill="white"/>
<path d="M120.226 69.2502C119.297 69.2502 118.431 69.1658 117.629 68.9968C116.847 68.849 116.15 68.6167 115.538 68.3C114.947 67.9832 114.482 67.5715 114.144 67.0647C113.806 66.5579 113.638 65.956 113.638 65.2592C113.638 63.9922 114.387 62.9363 115.886 62.0917V61.965C115.464 61.6904 115.116 61.342 114.841 60.9197C114.567 60.4973 114.429 59.9589 114.429 59.3042C114.429 58.7341 114.598 58.1956 114.936 57.6888C115.274 57.1609 115.696 56.7174 116.203 56.3585V56.2318C115.654 55.8517 115.158 55.3132 114.715 54.6163C114.292 53.8984 114.081 53.0748 114.081 52.1457C114.081 51.1954 114.26 50.3719 114.619 49.675C114.978 48.957 115.454 48.3658 116.045 47.9012C116.657 47.4155 117.354 47.0565 118.135 46.8242C118.917 46.592 119.73 46.4758 120.574 46.4758C121.504 46.4758 122.317 46.6025 123.013 46.8559H128.747V50.2452H126.244C126.392 50.4774 126.508 50.7731 126.593 51.1321C126.698 51.491 126.751 51.8817 126.751 52.304C126.751 53.2121 126.593 54.0039 126.276 54.6797C125.959 55.3343 125.516 55.8833 124.946 56.3268C124.397 56.7491 123.742 57.0659 122.982 57.277C122.243 57.4882 121.44 57.5938 120.574 57.5938C119.962 57.5938 119.329 57.4882 118.674 57.277C118.463 57.446 118.315 57.6149 118.23 57.7838C118.146 57.9528 118.104 58.1745 118.104 58.449C118.104 58.8502 118.273 59.1459 118.611 59.3359C118.97 59.526 119.592 59.621 120.479 59.621H123.013C124.956 59.621 126.434 59.9377 127.448 60.5713C128.483 61.1836 129 62.1972 129 63.6121C129 64.4356 128.789 65.1853 128.366 65.861C127.965 66.5579 127.385 67.1491 126.624 67.6348C125.864 68.1416 124.946 68.5323 123.869 68.8068C122.792 69.1024 121.577 69.2502 120.226 69.2502ZM120.574 54.7747C121.187 54.7747 121.694 54.5635 122.095 54.1412C122.517 53.6977 122.728 53.0326 122.728 52.1457C122.728 51.3221 122.517 50.6992 122.095 50.2768C121.694 49.8334 121.187 49.6116 120.574 49.6116C119.962 49.6116 119.445 49.8228 119.022 50.2452C118.621 50.6675 118.421 51.301 118.421 52.1457C118.421 53.0326 118.621 53.6977 119.022 54.1412C119.445 54.5635 119.962 54.7747 120.574 54.7747ZM120.955 66.3361C122.01 66.3361 122.876 66.1461 123.552 65.766C124.228 65.407 124.565 64.953 124.565 64.4039C124.565 63.9183 124.354 63.591 123.932 63.422C123.531 63.2531 122.939 63.1686 122.158 63.1686H120.543C119.994 63.1686 119.55 63.1475 119.212 63.1053C118.875 63.0841 118.579 63.0419 118.325 62.9786C117.755 63.4854 117.47 64.0027 117.47 64.5306C117.47 65.1219 117.787 65.5654 118.421 65.861C119.054 66.1778 119.899 66.3361 120.955 66.3361Z" fill="white"/>
</svg>
