<svg width="200" height="94" viewBox="0 0 200 94" fill="none" xmlns="http://www.w3.org/2000/svg">
<path fill-rule="evenodd" clip-rule="evenodd" d="M37.8211 15.5845C37.8211 15.5845 35.7883 19.4597 36.7628 24.5914C36.7628 24.5914 36.7427 21.9297 37.6355 20.4131C54.3318 20.7405 55.1553 0 55.1553 0C52.4953 4.89677 44.4798 4.66574 44.4798 4.66574C44.4798 4.66574 37.5421 4.4259 34.9906 10.5425C33.5255 14.0526 35.5259 19.9372 35.5259 19.9372C36.4977 8.04881 49.0493 7.06352 49.0493 7.06352C41.7749 9.67206 38.8818 12.939 37.8211 15.5845ZM7.46112 51.1873C10.2783 52.1997 13.0955 52.7059 15.9126 52.7059C18.4657 52.7059 20.7547 52.3538 22.7795 51.6495C24.8044 50.9012 26.4991 49.9328 27.8636 48.7443C29.2722 47.5118 30.3287 46.1032 31.033 44.5185C31.7813 42.8898 32.1554 41.1731 32.1554 39.3684C32.1554 36.3311 31.3851 33.8881 29.8445 32.0393C28.3478 30.1905 26.279 28.7379 23.6379 27.6815L18.0916 25.4365C17.1672 25.0404 16.3088 24.6882 15.5165 24.3801C14.7241 24.028 14.0199 23.6758 13.4036 23.3237C12.8314 22.9275 12.3692 22.5093 12.017 22.0691C11.7089 21.5849 11.5548 21.0127 11.5548 20.3524C11.5548 19.1199 12.039 18.1735 13.0074 17.5132C14.0199 16.8089 15.3624 16.4568 17.0351 16.4568C18.7518 16.4568 20.3145 16.7649 21.7231 17.3812C23.1317 17.9534 24.5403 18.7898 25.9488 19.8902L30.9009 13.7497C29.0521 11.9009 26.8952 10.4923 24.4302 9.52389C22.0092 8.55548 19.5442 8.07128 17.0351 8.07128C14.7902 8.07128 12.7213 8.40142 10.8285 9.0617C8.97975 9.72197 7.37308 10.6464 6.00851 11.8349C4.64394 12.9793 3.5875 14.3439 2.83919 15.9286C2.09087 17.4692 1.71672 19.1199 1.71672 20.8806C1.71672 22.4653 1.95882 23.8959 2.44302 25.1724C2.92722 26.4049 3.56549 27.5054 4.35782 28.4738C5.19417 29.3982 6.11856 30.2125 7.13098 30.9168C8.18742 31.6211 9.26587 32.1934 10.3663 32.6335L15.9787 35.0105C16.9031 35.4067 17.7394 35.7809 18.4877 36.133C19.2801 36.4411 19.9403 36.7933 20.4686 37.1895C21.0408 37.5416 21.459 37.9598 21.7231 38.444C22.0312 38.9282 22.1853 39.5004 22.1853 40.1607C22.1853 41.4372 21.6791 42.4497 20.6666 43.198C19.6982 43.9463 18.2016 44.3204 16.1768 44.3204C14.372 44.3204 12.5232 43.9023 10.6304 43.0659C8.78167 42.2296 7.08696 41.1511 5.54632 39.8306L0 46.4993C2.20092 48.5682 4.68796 50.1309 7.46112 51.1873ZM38.67 22.3388V51.9136H48.376V19.1639C48.376 19.1639 45.4577 21.8553 41.7074 22.3388C40.531 22.4904 38.67 22.3388 38.67 22.3388Z" fill="#00AFEF"/>
<path d="M53.5715 51.5138V16.4794H66.2796C68.1662 16.4794 69.9639 16.677 71.6725 17.0722C73.3812 17.4316 74.8762 18.0784 76.1577 19.0126C77.4392 19.9109 78.4537 21.1147 79.2013 22.6239C79.9844 24.0971 80.376 25.9297 80.376 28.1216C80.376 30.2775 79.9844 32.1281 79.2013 33.6732C78.4537 35.2183 77.4392 36.4939 76.1577 37.5C74.8762 38.4702 73.399 39.2068 71.7259 39.7099C70.0529 40.177 68.3086 40.4105 66.4932 40.4105H62.7555V51.5138H53.5715ZM62.7555 33.0803H66.066C67.8814 33.0803 69.2163 32.6491 70.0707 31.7867C70.9606 30.9243 71.4055 29.7026 71.4055 28.1216C71.4055 26.5405 70.925 25.4266 69.9639 24.7798C69.0027 24.133 67.6323 23.8096 65.8524 23.8096H62.7555V33.0803Z" fill="#00AFEF"/>
<path d="M92.6345 52.1605C91.3886 52.1605 90.2673 51.945 89.2706 51.5138C88.2739 51.0466 87.4196 50.4358 86.7076 49.6812C86.0313 48.9266 85.5152 48.0463 85.1592 47.0401C84.8032 46.034 84.6252 44.974 84.6252 43.8601C84.6252 41.0573 85.7643 38.8654 88.0425 37.2844C90.3207 35.6674 94.0228 34.5894 99.1488 34.0505C98.9352 32.182 97.6893 31.2477 95.4111 31.2477C94.45 31.2477 93.4355 31.4453 92.3676 31.8406C91.2997 32.1999 90.0716 32.7569 88.6833 33.5115L85.4796 27.4748C87.3662 26.3249 89.2706 25.4446 91.1929 24.8337C93.1151 24.2229 95.1263 23.9174 97.2265 23.9174C100.679 23.9174 103.385 24.9235 105.343 26.9358C107.336 28.9121 108.333 32.1101 108.333 36.5298V51.5138H100.857L100.217 48.9266H100.003C98.9352 49.8968 97.7961 50.6873 96.5858 51.2982C95.4111 51.8731 94.094 52.1605 92.6345 52.1605ZM95.8383 45.0459C96.5858 45.0459 97.1909 44.8842 97.6537 44.5608C98.1521 44.2015 98.6504 43.7523 99.1488 43.2133V39.5482C96.9418 39.8716 95.4289 40.3566 94.6102 41.0034C93.7914 41.6502 93.3821 42.3509 93.3821 43.1055C93.3821 44.3991 94.2008 45.0459 95.8383 45.0459Z" fill="#00AFEF"/>
<path d="M174.476 51.5138V14H183.66V22.7317L183.233 27.367C184.158 26.5405 185.262 25.768 186.543 25.0493C187.86 24.2947 189.426 23.9174 191.242 23.9174C194.161 23.9174 196.279 24.9235 197.596 26.9358C198.913 28.9121 199.571 31.5711 199.571 34.9128V51.5138H190.387V36.0986C190.387 34.3738 190.174 33.224 189.747 32.6491C189.32 32.0742 188.643 31.7867 187.718 31.7867C186.863 31.7867 186.151 31.9664 185.582 32.3257C185.012 32.685 184.372 33.1881 183.66 33.8349V51.5138H174.476Z" fill="#00AFEF"/>
<path d="M114.196 51.5138V16.4794H126.904C128.79 16.4794 130.588 16.677 132.297 17.0722C134.005 17.4316 135.5 18.0784 136.782 19.0126C138.063 19.9109 139.078 21.1147 139.825 22.6239C140.608 24.0971 141 25.9297 141 28.1216C141 30.2775 140.608 32.1281 139.825 33.6732C139.078 35.2183 138.063 36.4939 136.782 37.5C135.5 38.4702 134.023 39.2068 132.35 39.7099C130.677 40.177 128.933 40.4105 127.117 40.4105H123.38V51.5138H114.196ZM123.38 33.0803H126.69C128.505 33.0803 129.84 32.6491 130.695 31.7867C131.585 30.9243 132.03 29.7026 132.03 28.1216C132.03 26.5405 131.549 25.4266 130.588 24.7798C129.627 24.133 128.256 23.8096 126.476 23.8096H123.38V33.0803Z" fill="#00AFEF"/>
<path d="M153.009 52.1605C151.763 52.1605 150.642 51.945 149.645 51.5138C148.649 51.0466 147.794 50.4358 147.082 49.6812C146.406 48.9266 145.89 48.0463 145.534 47.0401C145.178 46.034 145 44.974 145 43.8601C145 41.0573 146.139 38.8654 148.417 37.2844C150.696 35.6674 154.398 34.5894 159.524 34.0505C159.31 32.182 158.064 31.2477 155.786 31.2477C154.825 31.2477 153.81 31.4453 152.742 31.8406C151.674 32.1999 150.446 32.7569 149.058 33.5115L145.854 27.4748C147.741 26.3249 149.645 25.4446 151.568 24.8337C153.49 24.2229 155.501 23.9174 157.601 23.9174C161.054 23.9174 163.76 24.9235 165.717 26.9358C167.711 28.9121 168.708 32.1101 168.708 36.5298V51.5138H161.232L160.591 48.9266H160.378C159.31 49.8968 158.171 50.6873 156.961 51.2982C155.786 51.8731 154.469 52.1605 153.009 52.1605ZM156.213 45.0459C156.961 45.0459 157.566 44.8842 158.028 44.5608C158.527 44.2015 159.025 43.7523 159.524 43.2133V39.5482C157.317 39.8716 155.804 40.3566 154.985 41.0034C154.166 41.6502 153.757 42.3509 153.757 43.1055C153.757 44.3991 154.576 45.0459 156.213 45.0459Z" fill="#00AFEF"/>
<path d="M31.6982 85.9539C29.805 85.9539 28.0231 85.6774 26.3526 85.1244C24.6821 84.5438 23.2204 83.6866 21.9675 82.553C20.7424 81.3917 19.768 79.9539 19.0441 78.2396C18.348 76.4977 18 74.4793 18 72.1843C18 69.9171 18.3619 67.9124 19.0858 66.1705C19.8097 64.4009 20.7842 62.9217 22.0092 61.7327C23.2621 60.5161 24.7099 59.5899 26.3526 58.9539C27.9952 58.318 29.7214 58 31.5312 58C33.5358 58 35.262 58.3594 36.7097 59.0783C38.1854 59.7696 39.4104 60.5991 40.3849 61.5668L36.6262 66.129C35.958 65.5484 35.2481 65.0783 34.4963 64.7189C33.7724 64.3318 32.8676 64.1383 31.7817 64.1383C30.863 64.1383 30.0138 64.318 29.2342 64.6774C28.4546 65.0369 27.7725 65.5484 27.1878 66.212C26.6031 66.8756 26.1438 67.6912 25.8096 68.659C25.5034 69.6267 25.3503 70.7189 25.3503 71.9355C25.3503 74.4793 25.921 76.4286 27.0625 77.7834C28.2041 79.1383 29.9999 79.8157 32.4499 79.8157C32.8397 79.8157 33.2156 79.7742 33.5775 79.6912C33.9673 79.6083 34.2875 79.4839 34.5381 79.318V75.5853H30.5289V69.7788H40.886V82.6359C39.9116 83.5484 38.6169 84.3364 37.0021 85C35.3873 85.6359 33.6193 85.9539 31.6982 85.9539Z" fill="#00AFEF"/>
<path d="M51.0129 85.9539C50.0384 85.9539 49.1614 85.788 48.3818 85.4562C47.6022 85.0968 46.934 84.6267 46.3772 84.0461C45.8482 83.4654 45.4445 82.788 45.1661 82.0138C44.8877 81.2396 44.7484 80.424 44.7484 79.5668C44.7484 77.4101 45.6394 75.7235 47.4213 74.5069C49.2031 73.2627 52.0987 72.4332 56.1079 72.0184C55.9409 70.5806 54.9664 69.8618 53.1845 69.8618C52.4328 69.8618 51.6393 70.0138 50.8041 70.318C49.9688 70.5945 49.0083 71.023 47.9224 71.6037L45.4166 66.9585C46.8923 66.0737 48.3818 65.3963 49.8853 64.9263C51.3887 64.4562 52.9618 64.2212 54.6045 64.2212C57.3051 64.2212 59.4211 64.9954 60.9524 66.5438C62.5116 68.0645 63.2911 70.5253 63.2911 73.9263V85.4562H57.4443L56.9432 83.4654H56.7761C55.9409 84.212 55.0499 84.8203 54.1033 85.2903C53.1845 85.7327 52.1544 85.9539 51.0129 85.9539ZM53.5186 80.4793C54.1033 80.4793 54.5766 80.3548 54.9386 80.106C55.3284 79.8295 55.7181 79.4839 56.1079 79.0691V76.2488C54.3817 76.4977 53.1985 76.871 52.5581 77.3687C51.9177 77.8664 51.5975 78.4055 51.5975 78.9862C51.5975 79.9816 52.2379 80.4793 53.5186 80.4793Z" fill="#00AFEF"/>
<path d="M67.9741 85.4562V64.7189H73.8209L74.3221 67.2074H74.4891C75.3244 66.4055 76.271 65.7143 77.329 65.1336C78.4148 64.5253 79.6677 64.2212 81.0877 64.2212C83.3707 64.2212 85.0273 64.9954 86.0574 66.5438C87.0876 68.0645 87.6027 70.1106 87.6027 72.682V85.4562H80.4194V73.5945C80.4194 72.2673 80.2524 71.3825 79.9183 70.9401C79.5842 70.4977 79.0552 70.2765 78.3313 70.2765C77.6631 70.2765 77.1063 70.4147 76.6608 70.6912C76.2153 70.9677 75.7142 71.3548 75.1573 71.8525V85.4562H67.9741Z" fill="#00AFEF"/>
<path d="M96.7804 85.4562V64.47H89.5972V58.4977H111.147V64.47H103.964V85.4562H96.7804Z" fill="#00AFEF"/>
<path d="M120.935 85.9539C119.404 85.9539 117.984 85.7189 116.675 85.2488C115.367 84.7512 114.225 84.0461 113.251 83.1336C112.304 82.1936 111.552 81.0461 110.995 79.6912C110.439 78.3364 110.16 76.8018 110.16 75.0876C110.16 73.4009 110.439 71.894 110.995 70.5668C111.58 69.212 112.332 68.0645 113.251 67.1244C114.197 66.1843 115.269 65.4654 116.466 64.9677C117.664 64.47 118.902 64.2212 120.183 64.2212C121.715 64.2212 123.051 64.4839 124.192 65.0092C125.334 65.5346 126.281 66.2535 127.032 67.1659C127.784 68.0783 128.341 69.1429 128.703 70.3594C129.093 71.576 129.288 72.8756 129.288 74.2581C129.288 74.894 129.246 75.4885 129.162 76.0415C129.107 76.5945 129.051 76.9954 128.995 77.2442H117.093C117.427 78.4885 118.025 79.3594 118.889 79.8571C119.752 80.3272 120.768 80.5622 121.937 80.5622C122.661 80.5622 123.357 80.4654 124.025 80.2719C124.721 80.0507 125.445 79.7327 126.197 79.318L128.536 83.5484C127.394 84.3502 126.127 84.9585 124.735 85.3733C123.371 85.7604 122.104 85.9539 120.935 85.9539ZM117.009 72.5991H123.19C123.19 71.7972 122.981 71.106 122.564 70.5253C122.174 69.9171 121.436 69.6129 120.35 69.6129C119.543 69.6129 118.833 69.8479 118.22 70.318C117.636 70.788 117.232 71.5484 117.009 72.5991Z" fill="#00AFEF"/>
<path d="M133.813 85.4562V58.4977H141.163L147.177 70.5253L149.767 76.5806H149.934C149.85 75.8618 149.753 75.0737 149.641 74.2166C149.53 73.3594 149.433 72.4885 149.349 71.6037C149.265 70.6912 149.182 69.7926 149.098 68.9078C149.043 67.9954 149.015 67.1244 149.015 66.2949V58.4977H155.864V85.4562H148.514L142.5 73.3871L139.911 67.3733H139.744C139.911 68.9217 140.105 70.6083 140.328 72.4332C140.551 74.2581 140.662 76 140.662 77.659V85.4562H133.813Z" fill="#00AFEF"/>
<path d="M168.889 94C167.692 94 166.564 93.9032 165.506 93.7097C164.448 93.5438 163.515 93.2535 162.708 92.8387C161.928 92.424 161.302 91.8848 160.829 91.2212C160.355 90.5853 160.119 89.7972 160.119 88.8571C160.119 87.2258 161.093 85.8986 163.042 84.8756V84.7097C162.485 84.3226 162.026 83.8525 161.664 83.2995C161.302 82.7465 161.121 82.0277 161.121 81.1429C161.121 80.424 161.33 79.7189 161.747 79.0276C162.165 78.3364 162.736 77.7419 163.46 77.2442V77.0783C162.708 76.5806 162.04 75.8756 161.455 74.9631C160.898 74.0507 160.62 72.9862 160.62 71.7696C160.62 70.4977 160.87 69.3917 161.371 68.4516C161.873 67.4839 162.541 66.6959 163.376 66.0876C164.211 65.4516 165.158 64.9816 166.216 64.6774C167.302 64.3733 168.415 64.2212 169.557 64.2212C170.782 64.2212 171.896 64.3871 172.898 64.7189H180.666V69.8618H177.659C177.743 70.1106 177.812 70.4286 177.868 70.8157C177.951 71.2028 177.993 71.6037 177.993 72.0184C177.993 73.235 177.77 74.2857 177.325 75.1705C176.879 76.0277 176.281 76.7327 175.529 77.2857C174.777 77.8387 173.886 78.2535 172.856 78.53C171.826 78.7788 170.726 78.9032 169.557 78.9032C168.861 78.9032 168.081 78.8065 167.218 78.6129C166.996 78.8065 166.856 78.9862 166.801 79.1521C166.745 79.2903 166.717 79.5115 166.717 79.8157C166.717 80.2857 166.94 80.6175 167.385 80.8111C167.831 80.977 168.583 81.0599 169.641 81.0599H172.773C175.39 81.0599 177.408 81.4885 178.828 82.3456C180.276 83.1751 181 84.5438 181 86.4516C181 87.5853 180.708 88.6083 180.123 89.5207C179.566 90.4608 178.759 91.2627 177.701 91.9263C176.671 92.5899 175.404 93.1014 173.9 93.4608C172.425 93.8203 170.754 94 168.889 94ZM169.557 74.6728C170.225 74.6728 170.768 74.4378 171.186 73.9677C171.603 73.4977 171.812 72.765 171.812 71.7696C171.812 70.8018 171.603 70.0968 171.186 69.6544C170.768 69.1843 170.225 68.9493 169.557 68.9493C168.889 68.9493 168.346 69.1843 167.928 69.6544C167.511 70.0968 167.302 70.8018 167.302 71.7696C167.302 72.765 167.511 73.4977 167.928 73.9677C168.346 74.4378 168.889 74.6728 169.557 74.6728ZM170.058 89.6037C171.227 89.6037 172.202 89.424 172.982 89.0645C173.761 88.7327 174.151 88.2765 174.151 87.6959C174.151 87.1429 173.9 86.7972 173.399 86.659C172.926 86.5207 172.244 86.4516 171.353 86.4516H169.724C168.889 86.4516 168.248 86.424 167.803 86.3687C167.385 86.341 167.023 86.2857 166.717 86.2028C166.467 86.4516 166.272 86.6866 166.132 86.9078C166.021 87.129 165.965 87.3917 165.965 87.6959C165.965 88.3594 166.341 88.8433 167.093 89.1475C167.845 89.4516 168.833 89.6037 170.058 89.6037Z" fill="#00AFEF"/>
</svg>
