<svg width="32" height="32" viewBox="0 0 32 32" fill="none" xmlns="http://www.w3.org/2000/svg">
<path d="M23.8788 21.2198L18.6551 15.9987L23.8749 10.775C24.4774 10.175 24.4774 9.21004 23.8774 8.60755L23.3924 8.12131C23.1074 7.82881 22.7174 7.67004 22.3074 7.67004H22.3049C21.8949 7.67004 21.5099 7.83129 21.2224 8.12003L16 13.3463L10.7764 8.12643C10.1776 7.52643 9.21386 7.52393 8.61136 8.12393L8.12512 8.60518C7.83262 8.89268 7.67261 9.28268 7.67261 9.69142C7.67261 10.1027 7.83386 10.4889 8.12259 10.7777L13.3488 16.0001L8.12771 21.2237C7.52522 21.8237 7.52522 22.7887 8.12521 23.3925L8.6102 23.8775C8.8977 24.17 9.28646 24.3287 9.69644 24.3287C10.1039 24.3287 10.4939 24.1662 10.7814 23.8787L16.0026 18.6538L21.225 23.8727C21.5212 24.1714 21.9149 24.3227 22.31 24.3227C22.7012 24.3227 23.0924 24.1739 23.3924 23.8752L23.8774 23.3914C24.1712 23.1064 24.33 22.7164 24.33 22.3064C24.3325 21.8964 24.1712 21.5089 23.8825 21.2202L23.8788 21.2198Z" fill="black"/>
</svg>
