<svg width="40" height="48" viewBox="0 0 40 48" fill="none" xmlns="http://www.w3.org/2000/svg">
<path fill-rule="evenodd" clip-rule="evenodd" d="M6.80057 13.7651C3.35704 15.7533 2.17719 20.1565 4.16532 23.6C6.15345 27.0436 10.5567 28.2234 14.0002 26.2353L36.1693 13.4359C39.6129 11.4478 40.7927 7.04456 38.8046 3.60102C36.8165 0.157489 32.4132 -1.02236 28.9697 0.965771L6.80057 13.7651ZM3.60102 34.5642C0.157489 36.5523 -1.02236 40.9556 0.965771 44.3991C2.9539 47.8426 7.35712 49.0225 10.8007 47.0343L32.9698 34.235C36.4133 32.2469 37.5932 27.8436 35.605 24.4001C33.6169 20.9566 29.2137 19.7767 25.7702 21.7648L3.60102 34.5642Z" fill="#F0F2F7"/>
<path d="M34.4972 38.0023C34.4972 33.1508 30.1712 31.2317 26.4175 30.4788C26.0664 33.579 20.999 33.372 20.999 33.372C20.999 33.372 15.9304 33.579 15.5793 30.4796C11.8256 31.2317 7.50082 33.1508 7.50082 38.0023C7.50082 38.0023 7.10307 41.9982 20.999 41.9982C34.895 41.9982 34.4972 38.0023 34.4972 38.0023Z" fill="#BB6BD9"/>
<path d="M21.1418 5.99976C15.5754 5.99976 11.047 11.4192 11.047 18.0814C11.047 24.7419 15.5754 30.1614 21.1418 30.1614C26.7065 30.1614 31.2323 24.7427 31.2323 18.0814C31.2323 11.4192 26.7065 5.99976 21.1418 5.99976ZM21.1418 28.5228C16.8294 28.5228 13.2725 24.4648 12.7994 19.2607L14.7114 19.4289C14.7114 19.4289 14.429 15.3343 16.8294 15.3343C19.2297 15.3343 19.0885 18.8795 25.2987 18.7462C27.7638 18.6934 28.9438 18.6674 29.5153 18.6544C29.2732 24.1462 25.6164 28.5228 21.1418 28.5228Z" fill="#9B51E0"/>
</svg>
