<svg width="150" height="48" viewBox="0 0 150 48" fill="none" xmlns="http://www.w3.org/2000/svg">
<path fill-rule="evenodd" clip-rule="evenodd" d="M28.3386 11.6771C28.3386 11.6771 26.8155 14.5807 27.5457 18.4257C27.5457 18.4257 27.5307 16.4314 28.1996 15.2951C40.7097 15.5403 41.3267 0 41.3267 0C39.3337 3.66902 33.3279 3.49592 33.3279 3.49592C33.3279 3.49592 28.1296 3.31622 26.2179 7.8992C25.1201 10.5293 26.6189 14.9384 26.6189 14.9384C27.347 6.03077 36.7517 5.29251 36.7517 5.29251C31.3012 7.24702 29.1334 9.69488 28.3386 11.6771ZM142.545 38.897C143.402 39.2928 144.458 39.4907 145.711 39.4907C146.535 39.4907 147.245 39.4247 147.838 39.2928C148.465 39.1938 148.976 39.0619 149.372 38.897L148.481 33.5045C148.283 33.5704 148.119 33.6034 147.987 33.6034H147.591C147.294 33.6034 146.997 33.455 146.7 33.1582C146.436 32.8613 146.305 32.3336 146.305 31.575V4.21658H139.032V31.2782C139.032 32.5315 139.147 33.6694 139.378 34.6918C139.609 35.6813 139.972 36.5388 140.467 37.2644C140.994 37.957 141.687 38.5012 142.545 38.897ZM5.59042 38.3528C7.70126 39.1114 9.8121 39.4907 11.9229 39.4907C13.8359 39.4907 15.5509 39.2268 17.0681 38.6991C18.5853 38.1384 19.8551 37.4128 20.8775 36.5223C21.9329 35.5988 22.7245 34.5434 23.2522 33.3561C23.8129 32.1357 24.0932 30.8494 24.0932 29.4972C24.0932 27.2214 23.5161 25.3909 22.3617 24.0057C21.2403 22.6205 19.6902 21.5321 17.7113 20.7405L13.5555 19.0584C12.8629 18.7616 12.2198 18.4977 11.6261 18.2669C11.0324 18.003 10.5047 17.7391 10.043 17.4753C9.61421 17.1785 9.2679 16.8651 9.00405 16.5353C8.77317 16.1725 8.65774 15.7437 8.65774 15.249C8.65774 14.3255 9.02054 13.6164 9.74614 13.1217C10.5047 12.594 11.5107 12.3301 12.764 12.3301C14.0503 12.3301 15.2211 12.561 16.2765 13.0227C17.332 13.4515 18.3874 14.0782 19.4428 14.9027L23.1533 10.3017C21.768 8.9165 20.1519 7.86108 18.3049 7.13547C16.4909 6.40987 14.6439 6.04707 12.764 6.04707C11.0819 6.04707 9.53176 6.29444 8.11354 6.78916C6.7283 7.28389 5.52446 7.97651 4.50202 8.86702C3.47959 9.72455 2.68802 10.747 2.12733 11.9343C1.56664 13.0887 1.28629 14.3255 1.28629 15.6448C1.28629 16.8321 1.46769 17.9041 1.83049 18.8605C2.19329 19.784 2.67153 20.6086 3.2652 21.3342C3.89186 22.0268 4.58448 22.6369 5.34306 23.1647C6.13462 23.6924 6.94268 24.1211 7.76723 24.4509L11.9724 26.232C12.665 26.5288 13.2917 26.8092 13.8524 27.073C14.4461 27.3039 14.9408 27.5677 15.3366 27.8646C15.7653 28.1284 16.0787 28.4418 16.2765 28.8046C16.5074 29.1674 16.6229 29.5961 16.6229 30.0909C16.6229 31.0473 16.2436 31.8059 15.485 32.3666C14.7594 32.9273 13.638 33.2076 12.1208 33.2076C10.7686 33.2076 9.38334 32.8943 7.96512 32.2677C6.57988 31.641 5.31008 30.8329 4.15571 29.8435L0 34.8402C1.64909 36.3904 3.51257 37.5612 5.59042 38.3528ZM28.9744 16.7373V38.897H36.2469V14.3585C36.2469 14.3585 34.0603 16.3751 31.2503 16.7373C30.3688 16.851 28.9744 16.7373 28.9744 16.7373ZM42.6471 38.897V14.3585H48.5838L49.0785 17.5248H49.2764C50.2989 16.5023 51.3873 15.6283 52.5416 14.9027C53.696 14.1441 55.0812 13.7648 56.6973 13.7648C58.4454 13.7648 59.8471 14.1276 60.9025 14.8532C61.9909 15.5458 62.8485 16.5518 63.4751 17.8711C64.5635 16.7497 65.7014 15.7932 66.8887 15.0016C68.1091 14.1771 69.5438 13.7648 71.1929 13.7648C73.8314 13.7648 75.7609 14.6553 76.9812 16.4364C78.2345 18.1844 78.8612 20.5921 78.8612 23.6594V38.897H71.5887V24.5994C71.5887 22.8183 71.3413 21.598 70.8466 20.9384C70.3848 20.2787 69.6262 19.9489 68.5708 19.9489C67.3505 19.9489 65.9488 20.7405 64.3656 22.3236V38.897H57.0931V24.5994C57.0931 22.8183 56.8458 21.598 56.351 20.9384C55.8893 20.2787 55.1307 19.9489 54.0753 19.9489C52.822 19.9489 51.4367 20.7405 49.9196 22.3236V38.897H42.6471ZM85.0661 14.3585V48H92.3386V40.8264L92.0913 36.9181C92.9488 37.7426 93.8723 38.3858 94.8617 38.8475C95.8512 39.2763 96.8736 39.4907 97.929 39.4907C99.2483 39.4907 100.518 39.1938 101.738 38.6002C102.992 38.0065 104.097 37.149 105.053 36.0276C106.043 34.8732 106.818 33.488 107.378 31.8719C107.972 30.2228 108.269 28.3428 108.269 26.232C108.269 24.352 108.038 22.6534 107.576 21.1363C107.147 19.5861 106.521 18.2669 105.696 17.1785C104.872 16.09 103.866 15.249 102.678 14.6553C101.491 14.0617 100.155 13.7648 98.6711 13.7648C97.3848 13.7648 96.1315 14.0617 94.9112 14.6553C93.7239 15.216 92.652 15.9251 91.6955 16.7827H91.4976L91.0029 14.3585H85.0661ZM99.4627 31.8719C98.5722 32.9933 97.5003 33.5539 96.247 33.5539C95.6203 33.5539 94.9772 33.4385 94.3175 33.2076C93.6579 32.9768 92.9983 32.5645 92.3386 31.9708V21.9278C93.7239 20.4437 95.1256 19.7016 96.5438 19.7016C99.3803 19.7016 100.798 21.9113 100.798 26.3309C100.798 28.8705 100.353 30.7175 99.4627 31.8719ZM124.409 39.4907C122.661 39.4907 121.028 39.2103 119.511 38.6496C117.994 38.056 116.675 37.2149 115.553 36.1265C114.432 35.0051 113.558 33.6529 112.931 32.0698C112.305 30.4866 111.991 28.6726 111.991 26.6278C111.991 24.6488 112.321 22.8678 112.981 21.2847C113.64 19.6686 114.498 18.3163 115.553 17.2279C116.642 16.1065 117.879 15.249 119.264 14.6553C120.649 14.0617 122.084 13.7648 123.568 13.7648C125.316 13.7648 126.833 14.0617 128.119 14.6553C129.439 15.249 130.527 16.0736 131.385 17.129C132.275 18.1844 132.935 19.4377 133.364 20.8889C133.792 22.3071 134.007 23.8573 134.007 25.5394C134.007 26.199 133.974 26.8256 133.908 27.4193C133.842 28.013 133.776 28.4582 133.71 28.7551H119.016C119.346 30.5361 120.072 31.8554 121.193 32.7129C122.348 33.5375 123.749 33.9497 125.398 33.9497C127.146 33.9497 128.911 33.4055 130.692 32.3171L133.116 36.7202C131.863 37.5777 130.461 38.2539 128.911 38.7486C127.394 39.2433 125.893 39.4907 124.409 39.4907ZM118.967 23.9562H127.823C127.823 22.571 127.509 21.4496 126.883 20.5921C126.256 19.7345 125.201 19.3058 123.716 19.3058C122.562 19.3058 121.54 19.6851 120.649 20.4437C119.792 21.2022 119.231 22.3731 118.967 23.9562Z" fill="#5BCAA8"/>
</svg>
