<?xml version="1.0" encoding="utf-8"?>
<!-- Generator: Adobe Illustrator 22.0.0, SVG Export Plug-In . SVG Version: 6.00 Build 0)  -->
<svg version="1.1" id="Layer_1" xmlns="http://www.w3.org/2000/svg" xmlns:xlink="http://www.w3.org/1999/xlink" x="0px" y="0px"
	 viewBox="0 0 150 48" style="enable-background:new 0 0 150 48;" xml:space="preserve">
<style type="text/css">
	.st0{fill:#FFFFFF;}
</style>
<path class="st0" d="M28.3,11.7c0,0-1.5,2.9-0.8,6.7c0,0,0-2,0.7-3.1C40.7,15.5,41.3,0,41.3,0c-2,3.7-8,3.5-8,3.5s-5.2-0.2-7.1,4.4
	c-1.1,2.6,0.4,7,0.4,7C27.3,6,36.8,5.3,36.8,5.3C31.3,7.2,29.1,9.7,28.3,11.7z M142.5,38.9c0.9,0.4,1.9,0.6,3.2,0.6
	c0.8,0,1.5-0.1,2.1-0.2c0.6-0.1,1.1-0.2,1.5-0.4l-0.9-5.4c-0.2,0.1-0.4,0.1-0.5,0.1h-0.4c-0.3,0-0.6-0.1-0.9-0.4
	c-0.3-0.3-0.4-0.8-0.4-1.6V4.2H139v27.1c0,1.3,0.1,2.4,0.3,3.4c0.2,1,0.6,1.8,1.1,2.6C141,38,141.7,38.5,142.5,38.9z M5.6,38.4
	c2.1,0.8,4.2,1.1,6.3,1.1c1.9,0,3.6-0.3,5.1-0.8c1.5-0.6,2.8-1.3,3.8-2.2c1.1-0.9,1.8-2,2.4-3.2c0.6-1.2,0.8-2.5,0.8-3.9
	c0-2.3-0.6-4.1-1.7-5.5c-1.1-1.4-2.7-2.5-4.7-3.3l-4.2-1.7c-0.7-0.3-1.3-0.6-1.9-0.8C11,18,10.5,17.7,10,17.5
	c-0.4-0.3-0.8-0.6-1-0.9c-0.2-0.4-0.3-0.8-0.3-1.3c0-0.9,0.4-1.6,1.1-2.1c0.8-0.5,1.8-0.8,3-0.8c1.3,0,2.5,0.2,3.5,0.7
	c1.1,0.4,2.1,1.1,3.2,1.9l3.7-4.6c-1.4-1.4-3-2.4-4.8-3.2C16.5,6.4,14.6,6,12.8,6c-1.7,0-3.2,0.2-4.7,0.7C6.7,7.3,5.5,8,4.5,8.9
	c-1,0.9-1.8,1.9-2.4,3.1c-0.6,1.2-0.8,2.4-0.8,3.7c0,1.2,0.2,2.3,0.5,3.2c0.4,0.9,0.8,1.7,1.4,2.5c0.6,0.7,1.3,1.3,2.1,1.8
	c0.8,0.5,1.6,1,2.4,1.3l4.2,1.8c0.7,0.3,1.3,0.6,1.9,0.8c0.6,0.2,1.1,0.5,1.5,0.8c0.4,0.3,0.7,0.6,0.9,0.9c0.2,0.4,0.3,0.8,0.3,1.3
	c0,1-0.4,1.7-1.1,2.3c-0.7,0.6-1.8,0.8-3.4,0.8c-1.4,0-2.7-0.3-4.2-0.9c-1.4-0.6-2.7-1.4-3.8-2.4l-4.2,5C1.6,36.4,3.5,37.6,5.6,38.4
	z M29,16.7v22.2h7.3V14.4c0,0-2.2,2-5,2.4C30.4,16.9,29,16.7,29,16.7z M42.6,38.9V14.4h5.9l0.5,3.2h0.2c1-1,2.1-1.9,3.3-2.6
	c1.2-0.8,2.5-1.1,4.2-1.1c1.7,0,3.1,0.4,4.2,1.1c1.1,0.7,1.9,1.7,2.6,3c1.1-1.1,2.2-2.1,3.4-2.9c1.2-0.8,2.7-1.2,4.3-1.2
	c2.6,0,4.6,0.9,5.8,2.7c1.3,1.7,1.9,4.2,1.9,7.2v15.2h-7.3V24.6c0-1.8-0.2-3-0.7-3.7c-0.5-0.7-1.2-1-2.3-1c-1.2,0-2.6,0.8-4.2,2.4
	v16.6h-7.3V24.6c0-1.8-0.2-3-0.7-3.7c-0.5-0.7-1.2-1-2.3-1c-1.3,0-2.6,0.8-4.2,2.4v16.6H42.6z M85.1,14.4V48h7.3v-7.2l-0.2-3.9
	c0.9,0.8,1.8,1.5,2.8,1.9c1,0.4,2,0.6,3.1,0.6c1.3,0,2.6-0.3,3.8-0.9c1.3-0.6,2.4-1.5,3.3-2.6c1-1.2,1.8-2.5,2.3-4.2
	c0.6-1.6,0.9-3.5,0.9-5.6c0-1.9-0.2-3.6-0.7-5.1c-0.4-1.6-1.1-2.9-1.9-4c-0.8-1.1-1.8-1.9-3-2.5c-1.2-0.6-2.5-0.9-4-0.9
	c-1.3,0-2.5,0.3-3.8,0.9c-1.2,0.6-2.3,1.3-3.2,2.1h-0.2L91,14.4H85.1z M99.5,31.9c-0.9,1.1-2,1.7-3.2,1.7c-0.6,0-1.3-0.1-1.9-0.3
	c-0.7-0.2-1.3-0.6-2-1.2v-10c1.4-1.5,2.8-2.2,4.2-2.2c2.8,0,4.3,2.2,4.3,6.6C100.8,28.9,100.4,30.7,99.5,31.9z M124.4,39.5
	c-1.7,0-3.4-0.3-4.9-0.8c-1.5-0.6-2.8-1.4-4-2.5c-1.1-1.1-2-2.5-2.6-4.1c-0.6-1.6-0.9-3.4-0.9-5.4c0-2,0.3-3.8,1-5.3
	c0.7-1.6,1.5-3,2.6-4.1c1.1-1.1,2.3-2,3.7-2.6c1.4-0.6,2.8-0.9,4.3-0.9c1.7,0,3.3,0.3,4.6,0.9c1.3,0.6,2.4,1.4,3.3,2.5
	c0.9,1.1,1.6,2.3,2,3.8c0.4,1.4,0.6,3,0.6,4.7c0,0.7,0,1.3-0.1,1.9c-0.1,0.6-0.1,1-0.2,1.3H119c0.3,1.8,1.1,3.1,2.2,4
	c1.2,0.8,2.6,1.2,4.2,1.2c1.7,0,3.5-0.5,5.3-1.6l2.4,4.4c-1.3,0.9-2.7,1.5-4.2,2C127.4,39.2,125.9,39.5,124.4,39.5z M119,24h8.9
	c0-1.4-0.3-2.5-0.9-3.4c-0.6-0.9-1.7-1.3-3.2-1.3c-1.2,0-2.2,0.4-3.1,1.1C119.8,21.2,119.2,22.4,119,24z"/>
</svg>
