<svg width="24" height="26" viewBox="0 0 24 26" fill="none" xmlns="http://www.w3.org/2000/svg">
<path d="M14.5926 10.0563C15.0726 9.60884 15.1051 8.84007 14.6564 8.36007C14.2089 7.88007 13.4401 7.84756 12.9601 8.29632C12.9276 8.32882 12.9276 8.32882 12.8964 8.36007L6.94374 14.3127C5.53625 15.7202 5.53625 17.9927 6.94374 19.4001C8.35122 20.8076 10.6237 20.8076 12.0311 19.4001L21.7911 9.64007C23.9036 7.52756 23.9036 4.10375 21.7911 1.99271C19.6786 -0.119803 16.2548 -0.119803 14.1437 1.99271L8.67238 7.52775L2.71974 13.4477C-0.0965201 16.264 -0.0965201 20.8077 2.71974 23.6241C5.53599 26.4404 10.0797 26.4403 12.8961 23.6241L20.5434 15.9767C21.0234 15.5292 21.0559 14.7605 20.6072 14.2805C20.1597 13.8005 19.3909 13.7679 18.9109 14.2167C18.8784 14.2492 18.8784 14.2492 18.8472 14.2805L11.1998 21.9278C9.2798 23.7841 6.2398 23.7203 4.41612 21.8003C2.62361 19.9441 2.62361 17.0003 4.41612 15.144L15.8724 3.68767C17.0562 2.50393 18.945 2.50393 20.1288 3.68767C21.3125 4.87142 21.3125 6.76018 20.1288 7.94399L14.5924 13.4477L10.3675 17.704C9.88748 18.1515 9.11999 18.1202 8.67122 17.6402C8.25497 17.1928 8.25497 16.4565 8.67122 16.0077L14.5926 10.0563Z" fill="#9DB2C5"/>
</svg>
