<svg width="138" height="64" viewBox="0 0 138 64" fill="none" xmlns="http://www.w3.org/2000/svg">
<path fill-rule="evenodd" clip-rule="evenodd" d="M26.1526 10.7764C26.1526 10.7764 24.7469 13.4561 25.4208 17.0045C25.4208 17.0045 25.4069 15.164 26.0243 14.1153C37.5695 14.3417 38.1389 0 38.1389 0C36.2995 3.38602 30.757 3.22628 30.757 3.22628C30.757 3.22628 25.9597 3.06043 24.1954 7.28992C23.1823 9.71714 24.5655 13.7862 24.5655 13.7862C25.2375 5.56561 33.9167 4.88429 33.9167 4.88429C28.8866 6.68805 26.886 8.9471 26.1526 10.7764ZM5.15922 35.3951C7.10725 36.0951 9.05528 36.4452 11.0033 36.4452C12.7687 36.4452 14.3515 36.2017 15.7516 35.7147C17.1518 35.1972 18.3236 34.5276 19.2672 33.7058C20.2412 32.8535 20.9717 31.8795 21.4587 30.7837C21.9762 29.6575 22.2349 28.4705 22.2349 27.2225C22.2349 25.1223 21.7022 23.433 20.6369 22.1546C19.602 20.8762 18.1714 19.8717 16.3452 19.1412L12.51 17.5889C11.8708 17.315 11.2772 17.0715 10.7294 16.8584C10.1815 16.6149 9.69447 16.3714 9.26834 16.1279C8.87265 15.8539 8.55305 15.5648 8.30955 15.2604C8.09648 14.9256 7.98995 14.5299 7.98995 14.0733C7.98995 13.2211 8.32477 12.5666 8.9944 12.1101C9.69447 11.6231 10.6228 11.3796 11.7795 11.3796C12.9665 11.3796 14.0471 11.5926 15.0211 12.0188C15.9951 12.4145 16.9691 12.9928 17.9431 13.7537L21.3674 9.50764C20.089 8.22924 18.5976 7.25523 16.893 6.58559C15.219 5.91596 13.5144 5.58114 11.7795 5.58114C10.2271 5.58114 8.79656 5.80943 7.48773 6.266C6.20933 6.72257 5.09835 7.36176 4.15477 8.18359C3.2112 8.97497 2.48069 9.91855 1.96324 11.0143C1.4458 12.0796 1.18708 13.2211 1.18708 14.4386C1.18708 15.5343 1.35449 16.5236 1.6893 17.4063C2.02412 18.2585 2.46547 19.0195 3.01335 19.6891C3.59167 20.3283 4.23087 20.8914 4.93094 21.3784C5.66145 21.8654 6.40718 22.2611 7.16813 22.5655L11.049 24.2091C11.6882 24.4831 12.2665 24.7418 12.7839 24.9853C13.3318 25.1984 13.7884 25.4419 14.1536 25.7158C14.5493 25.9593 14.8385 26.2485 15.0211 26.5833C15.2342 26.9181 15.3407 27.3138 15.3407 27.7704C15.3407 28.6531 14.9907 29.3532 14.2906 29.8706C13.621 30.388 12.5861 30.6468 11.1859 30.6468C9.93798 30.6468 8.65958 30.3576 7.35075 29.7793C6.07236 29.201 4.9005 28.4552 3.83518 27.5421L0 32.1534C1.5219 33.584 3.24164 34.6646 5.15922 35.3951ZM26.7396 15.4468V35.8973H33.4511V13.2515C33.4511 13.2515 31.4332 15.1125 28.8399 15.4468C28.0264 15.5517 26.7396 15.4468 26.7396 15.4468Z" fill="white"/>
<path d="M37.0437 35.6208V11.3952H45.8311C47.1357 11.3952 48.3787 11.5318 49.5602 11.8051C50.7417 12.0536 51.7755 12.5008 52.6617 13.1469C53.5478 13.768 54.2493 14.6004 54.7662 15.644C55.3077 16.6627 55.5785 17.9299 55.5785 19.4455C55.5785 20.9363 55.3077 22.2159 54.7662 23.2844C54.2493 24.3528 53.5478 25.2348 52.6617 25.9305C51.7755 26.6014 50.754 27.1108 49.5971 27.4586C48.4403 27.7816 47.2341 27.9431 45.9788 27.9431H43.3943V35.6208H37.0437ZM43.3943 22.8744H45.6834C46.9388 22.8744 47.8618 22.5762 48.4526 21.9799C49.0679 21.3836 49.3756 20.5388 49.3756 19.4455C49.3756 18.3523 49.0433 17.582 48.3787 17.1348C47.7141 16.6875 46.7665 16.4639 45.5357 16.4639H43.3943V22.8744Z" fill="white"/>
<path d="M62.6721 36.068C61.8106 36.068 61.0352 35.919 60.346 35.6208C59.6568 35.2978 59.0661 34.8754 58.5738 34.3536C58.1061 33.8318 57.7492 33.2231 57.503 32.5274C57.2569 31.8317 57.1338 31.0987 57.1338 30.3284C57.1338 28.3904 57.9215 26.8747 59.4968 25.7815C61.0722 24.6634 63.6321 23.9179 67.1766 23.5452C67.0289 22.2532 66.1674 21.6072 64.592 21.6072C63.9275 21.6072 63.2259 21.7439 62.4875 22.0172C61.7491 22.2656 60.8999 22.6508 59.9399 23.1725L57.7246 18.9983C59.0291 18.2032 60.346 17.5944 61.6752 17.172C63.0044 16.7496 64.3951 16.5384 65.8474 16.5384C68.235 16.5384 70.1057 17.2342 71.4595 18.6256C72.8379 19.9922 73.5272 22.2035 73.5272 25.2597V35.6208H68.3581L67.915 33.8318H67.7673C67.0289 34.5027 66.2412 35.0493 65.4043 35.4717C64.592 35.8693 63.6813 36.068 62.6721 36.068ZM64.8874 31.1484C65.4043 31.1484 65.8228 31.0366 66.1428 30.8129C66.4874 30.5645 66.832 30.2539 67.1766 29.8812V27.3468C65.6505 27.5704 64.6044 27.9059 64.0382 28.3531C63.4721 28.8003 63.189 29.2849 63.189 29.8066C63.189 30.7011 63.7551 31.1484 64.8874 31.1484Z" fill="white"/>
<path d="M77.6673 42.1804V16.9857H82.8364L83.2794 18.7001H83.4271C84.1163 18.0541 84.8917 17.5323 85.7532 17.1348C86.6147 16.7372 87.5131 16.5384 88.4485 16.5384C89.5315 16.5384 90.5161 16.7621 91.4023 17.2093C92.2884 17.6566 93.0391 18.2901 93.6545 19.1101C94.2945 19.93 94.7745 20.9239 95.0944 22.0917C95.4391 23.2595 95.6114 24.564 95.6114 26.0051C95.6114 27.6201 95.3898 29.0488 94.9468 30.2912C94.5283 31.5335 93.9622 32.5895 93.2483 33.4591C92.5345 34.3039 91.7099 34.9499 90.7746 35.3972C89.8638 35.8444 88.9162 36.068 87.9316 36.068C86.4055 36.068 85.0271 35.4469 83.7963 34.2045L84.0179 37.0371V42.1804H77.6673ZM86.3809 30.8502C87.1193 30.8502 87.7593 30.5024 88.3008 29.8066C88.8423 29.1109 89.1131 27.8686 89.1131 26.0796C89.1131 24.5391 88.8916 23.4334 88.4485 22.7626C88.0301 22.0917 87.3901 21.7563 86.5286 21.7563C86.0363 21.7563 85.5932 21.8557 85.1994 22.0544C84.8302 22.2532 84.4363 22.6011 84.0179 23.098V29.9557C84.3871 30.3036 84.7686 30.5396 85.1625 30.6639C85.5563 30.7881 85.9624 30.8502 86.3809 30.8502Z" fill="white"/>
<path d="M105.805 23.8434L105.399 25.5206H109.829L109.423 23.8434C109.128 22.6756 108.832 21.4084 108.537 20.0418C108.242 18.6753 107.946 17.3832 107.651 16.1657H107.503C107.232 17.4081 106.949 18.7125 106.654 20.0791C106.383 21.4208 106.1 22.6756 105.805 23.8434ZM96.5742 35.6208L103.885 11.3952H111.564L118.875 35.6208H112.155L110.974 30.4775H104.254L103.072 35.6208H96.5742Z" fill="white"/>
<path d="M120.647 35.6208V9.68073H126.997V15.7185L126.702 18.9237C127.342 18.3523 128.105 17.8181 128.991 17.3211C129.902 16.7993 130.985 16.5384 132.24 16.5384C134.259 16.5384 135.723 17.2342 136.634 18.6256C137.545 19.9922 138 21.8308 138 24.1416V35.6208H131.649V24.9615C131.649 23.7689 131.502 22.9738 131.206 22.5762C130.911 22.1787 130.443 21.9799 129.803 21.9799C129.213 21.9799 128.72 22.1041 128.326 22.3526C127.933 22.6011 127.49 22.9489 126.997 23.3962V35.6208H120.647Z" fill="white"/>
<path d="M20.4466 63.6163C19.1498 63.6163 17.9292 63.4248 16.785 63.0418C15.6407 62.6396 14.6395 62.0459 13.7813 61.2608C12.9422 60.4564 12.2747 59.4606 11.7789 58.2732C11.3021 57.0667 11.0637 55.6687 11.0637 54.0792C11.0637 52.5088 11.3116 51.1204 11.8075 49.9139C12.3033 48.6882 12.9708 47.6637 13.8099 46.8402C14.6681 45.9975 15.6598 45.356 16.785 44.9155C17.9102 44.4751 19.0926 44.2548 20.3322 44.2548C21.7053 44.2548 22.8877 44.5038 23.8794 45.0017C24.8901 45.4805 25.7293 46.055 26.3968 46.7253L23.8222 49.8852C23.3645 49.483 22.8782 49.1574 22.3632 48.9085C21.8674 48.6404 21.2476 48.5063 20.5038 48.5063C19.8745 48.5063 19.2928 48.6308 18.7588 48.8797C18.2248 49.1287 17.7576 49.483 17.3571 49.9426C16.9566 50.4022 16.642 50.9672 16.4131 51.6375C16.2033 52.3077 16.0984 53.0642 16.0984 53.9068C16.0984 55.6687 16.4894 57.0188 17.2713 57.9572C18.0532 58.8956 19.2833 59.3648 20.9615 59.3648C21.2285 59.3648 21.486 59.3361 21.7339 59.2786C22.0009 59.2212 22.2202 59.135 22.3919 59.0201V56.4347H19.6456V52.4131H26.74V61.3182C26.0725 61.9502 25.1857 62.496 24.0796 62.9556C22.9735 63.3961 21.7625 63.6163 20.4466 63.6163Z" fill="white"/>
<path d="M33.6766 63.6163C33.0092 63.6163 32.4084 63.5014 31.8744 63.2716C31.3404 63.0226 30.8827 62.6971 30.5013 62.2949C30.139 61.8927 29.8624 61.4235 29.6717 60.8873C29.481 60.3511 29.3857 59.7861 29.3857 59.1925C29.3857 57.6987 29.9959 56.5305 31.2165 55.6879C32.437 54.8261 34.4204 54.2516 37.1666 53.9643C37.0522 52.9684 36.3847 52.4705 35.1642 52.4705C34.6493 52.4705 34.1057 52.5759 33.5336 52.7865C32.9615 52.978 32.3035 53.2749 31.5598 53.677L29.8434 50.4597C30.8541 49.8469 31.8744 49.3777 32.9043 49.0521C33.9341 48.7265 35.0116 48.5638 36.1368 48.5638C37.9867 48.5638 39.4361 49.1 40.485 50.1724C41.5529 51.2257 42.0869 52.9301 42.0869 55.2857V63.2716H38.082L37.7388 61.8927H37.6243C37.0522 62.4098 36.4419 62.8311 35.7935 63.1567C35.1642 63.4631 34.4585 63.6163 33.6766 63.6163ZM35.393 59.8244C35.7935 59.8244 36.1177 59.7383 36.3656 59.5659C36.6326 59.3744 36.8996 59.135 37.1666 58.8478V56.8944C35.9842 57.0667 35.1737 57.3253 34.7351 57.67C34.2964 58.0147 34.0771 58.3881 34.0771 58.7903C34.0771 59.4797 34.5158 59.8244 35.393 59.8244Z" fill="white"/>
<path d="M45.6951 63.2716V44.5995H50.7299L54.8492 52.9301L56.6228 57.1242H56.7372C56.68 56.6263 56.6133 56.0805 56.537 55.4868C56.4607 54.8931 56.3939 54.2899 56.3367 53.677C56.2795 53.0451 56.2223 52.4226 56.1651 51.8098C56.1269 51.1778 56.1079 50.5746 56.1079 50.0001V44.5995H60.7993V63.2716H55.7646L51.6453 54.9123L49.8717 50.747H49.7573C49.8717 51.8194 50.0052 52.9876 50.1577 54.2516C50.3103 55.5155 50.3866 56.722 50.3866 57.8711V63.2716H45.6951Z" fill="white"/>
<path d="M68.4623 63.2716V48.7361H63.542V44.5995H78.3029V48.7361H73.3826V63.2716H68.4623Z" fill="white"/>
<path d="M85.0075 63.6163C83.9586 63.6163 82.986 63.4535 82.0897 63.128C81.1933 62.7832 80.4114 62.2949 79.7439 61.6629C79.0955 61.0118 78.5806 60.217 78.1992 59.2786C77.8178 58.3403 77.6271 57.2774 77.6271 56.09C77.6271 54.9218 77.8178 53.8781 78.1992 52.9589C78.5997 52.0205 79.1146 51.2257 79.7439 50.5746C80.3923 49.9235 81.1266 49.4255 81.9466 49.0808C82.7667 48.7361 83.6153 48.5638 84.4926 48.5638C85.5415 48.5638 86.4569 48.7457 87.2388 49.1096C88.0207 49.4734 88.6691 49.9713 89.1841 50.6033C89.699 51.2353 90.0804 51.9726 90.3283 52.8152C90.5953 53.6579 90.7288 54.558 90.7288 55.5155C90.7288 55.956 90.7002 56.3677 90.643 56.7507C90.6048 57.1338 90.5667 57.4114 90.5286 57.5838H82.3757C82.6046 58.4456 83.0146 59.0488 83.6058 59.3935C84.197 59.7191 84.8931 59.8819 85.6941 59.8819C86.1899 59.8819 86.6667 59.8149 87.1244 59.6808C87.6012 59.5276 88.097 59.3074 88.6119 59.0201L90.2139 61.9502C89.432 62.5056 88.5643 62.9269 87.6107 63.2141C86.6762 63.4823 85.8085 63.6163 85.0075 63.6163ZM82.3185 54.3665H86.5523C86.5523 53.8111 86.4092 53.3323 86.1232 52.9301C85.8562 52.5088 85.3508 52.2982 84.607 52.2982C84.054 52.2982 83.5677 52.461 83.1481 52.7865C82.7476 53.1121 82.4711 53.6387 82.3185 54.3665Z" fill="white"/>
<path d="M93.8288 63.2716V44.5995H98.8635L102.983 52.9301L104.756 57.1242H104.871C104.814 56.6263 104.747 56.0805 104.671 55.4868C104.594 54.8931 104.528 54.2899 104.47 53.677C104.413 53.0451 104.356 52.4226 104.299 51.8098C104.261 51.1778 104.242 50.5746 104.242 50.0001V44.5995H108.933V63.2716H103.898L99.7789 54.9123L98.0053 50.747H97.8909C98.0053 51.8194 98.1388 52.9876 98.2914 54.2516C98.444 55.5155 98.5203 56.722 98.5203 57.8711V63.2716H93.8288Z" fill="white"/>
<path d="M121.631 63.6163C120.334 63.6163 119.113 63.4248 117.969 63.0418C116.825 62.6396 115.824 62.0459 114.965 61.2608C114.126 60.4564 113.459 59.4606 112.963 58.2732C112.486 57.0667 112.248 55.6687 112.248 54.0792C112.248 52.5088 112.496 51.1204 112.992 49.9139C113.487 48.6882 114.155 47.6637 114.994 46.8402C115.852 45.9975 116.844 45.356 117.969 44.9155C119.094 44.4751 120.277 44.2548 121.516 44.2548C122.889 44.2548 124.072 44.5038 125.063 45.0017C126.074 45.4805 126.913 46.055 127.581 46.7253L125.006 49.8852C124.549 49.483 124.062 49.1574 123.547 48.9085C123.051 48.6404 122.432 48.5063 121.688 48.5063C121.059 48.5063 120.477 48.6308 119.943 48.8797C119.409 49.1287 118.942 49.483 118.541 49.9426C118.141 50.4022 117.826 50.9672 117.597 51.6375C117.387 52.3077 117.282 53.0642 117.282 53.9068C117.282 55.6687 117.673 57.0188 118.455 57.9572C119.237 58.8956 120.467 59.3648 122.146 59.3648C122.413 59.3648 122.67 59.3361 122.918 59.2786C123.185 59.2212 123.404 59.135 123.576 59.0201V56.4347H120.83V52.4131H127.924V61.3182C127.257 61.9502 126.37 62.496 125.264 62.9556C124.158 63.3961 122.947 63.6163 121.631 63.6163Z" fill="white"/>
</svg>
