<svg width="200" height="92" viewBox="0 0 200 92" fill="none" xmlns="http://www.w3.org/2000/svg">
<path fill-rule="evenodd" clip-rule="evenodd" d="M37.8211 15.5845C37.8211 15.5845 35.7883 19.4597 36.7628 24.5914C36.7628 24.5914 36.7427 21.9297 37.6355 20.4131C54.3318 20.7405 55.1553 0 55.1553 0C52.4953 4.89677 44.4798 4.66574 44.4798 4.66574C44.4798 4.66574 37.5421 4.4259 34.9906 10.5425C33.5255 14.0526 35.5259 19.9372 35.5259 19.9372C36.4977 8.04881 49.0493 7.06352 49.0493 7.06352C41.7749 9.67206 38.8818 12.939 37.8211 15.5845ZM7.46112 51.1873C10.2783 52.1997 13.0955 52.7059 15.9126 52.7059C18.4657 52.7059 20.7547 52.3538 22.7795 51.6495C24.8044 50.9012 26.4991 49.9328 27.8636 48.7443C29.2722 47.5118 30.3287 46.1032 31.033 44.5185C31.7813 42.8898 32.1554 41.1731 32.1554 39.3684C32.1554 36.3311 31.3851 33.8881 29.8445 32.0393C28.3478 30.1905 26.279 28.7379 23.6379 27.6815L18.0916 25.4365C17.1672 25.0404 16.3088 24.6882 15.5165 24.3801C14.7241 24.028 14.0199 23.6758 13.4036 23.3237C12.8314 22.9275 12.3692 22.5093 12.017 22.0691C11.7089 21.5849 11.5548 21.0127 11.5548 20.3524C11.5548 19.1199 12.039 18.1735 13.0074 17.5132C14.0199 16.8089 15.3624 16.4568 17.0351 16.4568C18.7518 16.4568 20.3145 16.7649 21.7231 17.3812C23.1317 17.9534 24.5403 18.7898 25.9488 19.8902L30.9009 13.7497C29.0521 11.9009 26.8952 10.4923 24.4302 9.52389C22.0092 8.55548 19.5442 8.07128 17.0351 8.07128C14.7902 8.07128 12.7213 8.40142 10.8285 9.0617C8.97975 9.72197 7.37308 10.6464 6.00851 11.8349C4.64394 12.9793 3.5875 14.3439 2.83919 15.9286C2.09087 17.4692 1.71672 19.1199 1.71672 20.8806C1.71672 22.4653 1.95882 23.8959 2.44302 25.1724C2.92722 26.4049 3.56549 27.5054 4.35782 28.4738C5.19417 29.3982 6.11856 30.2125 7.13098 30.9168C8.18742 31.6211 9.26587 32.1934 10.3663 32.6335L15.9787 35.0105C16.9031 35.4067 17.7394 35.7809 18.4877 36.133C19.2801 36.4411 19.9403 36.7933 20.4686 37.1895C21.0408 37.5416 21.459 37.9598 21.7231 38.444C22.0312 38.9282 22.1853 39.5004 22.1853 40.1607C22.1853 41.4372 21.6791 42.4497 20.6666 43.198C19.6982 43.9463 18.2016 44.3204 16.1768 44.3204C14.372 44.3204 12.5232 43.9023 10.6304 43.0659C8.78167 42.2296 7.08696 41.1511 5.54632 39.8306L0 46.4993C2.20092 48.5682 4.68796 50.1309 7.46112 51.1873ZM38.67 22.3388V51.9136H48.376V19.1639C48.376 19.1639 45.4577 21.8553 41.7074 22.3388C40.531 22.4904 38.67 22.3388 38.67 22.3388Z" fill="#00AFEF"/>
<path d="M53.5715 51.5138V16.4794H66.2796C68.1662 16.4794 69.9639 16.677 71.6725 17.0722C73.3812 17.4316 74.8762 18.0784 76.1577 19.0126C77.4392 19.9109 78.4537 21.1147 79.2013 22.6239C79.9844 24.0971 80.376 25.9297 80.376 28.1216C80.376 30.2775 79.9844 32.1281 79.2013 33.6732C78.4537 35.2183 77.4392 36.4939 76.1577 37.5C74.8762 38.4702 73.399 39.2068 71.7259 39.7099C70.0529 40.177 68.3086 40.4105 66.4932 40.4105H62.7555V51.5138H53.5715ZM62.7555 33.0803H66.066C67.8814 33.0803 69.2163 32.6491 70.0707 31.7867C70.9606 30.9243 71.4055 29.7026 71.4055 28.1216C71.4055 26.5405 70.925 25.4266 69.9639 24.7798C69.0027 24.133 67.6323 23.8096 65.8524 23.8096H62.7555V33.0803Z" fill="#00AFEF"/>
<path d="M90.6345 52.1605C89.3886 52.1605 88.2673 51.945 87.2706 51.5138C86.2739 51.0466 85.4196 50.4358 84.7076 49.6812C84.0313 48.9266 83.5152 48.0463 83.1592 47.0401C82.8032 46.034 82.6252 44.974 82.6252 43.8601C82.6252 41.0573 83.7643 38.8654 86.0425 37.2844C88.3207 35.6674 92.0228 34.5894 97.1488 34.0505C96.9352 32.182 95.6893 31.2477 93.4111 31.2477C92.45 31.2477 91.4355 31.4453 90.3676 31.8406C89.2997 32.1999 88.0716 32.7569 86.6833 33.5115L83.4796 27.4748C85.3662 26.3249 87.2706 25.4446 89.1929 24.8337C91.1151 24.2229 93.1263 23.9174 95.2265 23.9174C98.6794 23.9174 101.385 24.9235 103.343 26.9358C105.336 28.9121 106.333 32.1101 106.333 36.5298V51.5138H98.8574L98.2167 48.9266H98.0031C96.9352 49.8968 95.7961 50.6873 94.5858 51.2982C93.4111 51.8731 92.094 52.1605 90.6345 52.1605ZM93.8383 45.0459C94.5858 45.0459 95.1909 44.8842 95.6537 44.5608C96.1521 44.2015 96.6504 43.7523 97.1488 43.2133V39.5482C94.9418 39.8716 93.4289 40.3566 92.6102 41.0034C91.7914 41.6502 91.3821 42.3509 91.3821 43.1055C91.3821 44.3991 92.2008 45.0459 93.8383 45.0459Z" fill="#00AFEF"/>
<path d="M112.32 61V24.5642H119.795L120.436 27.0436H120.65C121.647 26.1093 122.768 25.3547 124.014 24.7798C125.26 24.2049 126.559 23.9174 127.912 23.9174C129.478 23.9174 130.902 24.2408 132.183 24.8876C133.465 25.5344 134.55 26.4507 135.44 27.6365C136.366 28.8222 137.06 30.2596 137.523 31.9484C138.021 33.6372 138.27 35.5237 138.27 37.6078C138.27 39.9434 137.95 42.0096 137.309 43.8062C136.704 45.6028 135.885 47.13 134.853 48.3876C133.821 49.6093 132.628 50.5436 131.275 51.1904C129.958 51.8372 128.588 52.1605 127.164 52.1605C124.957 52.1605 122.964 51.2622 121.184 49.4656L121.504 53.5619V61H112.32ZM124.921 44.6147C125.989 44.6147 126.915 44.1116 127.698 43.1055C128.481 42.0994 128.873 40.3028 128.873 37.7156C128.873 35.4878 128.552 33.8888 127.912 32.9186C127.306 31.9484 126.381 31.4633 125.135 31.4633C124.423 31.4633 123.782 31.607 123.213 31.8945C122.679 32.182 122.109 32.685 121.504 33.4037V43.3211C122.038 43.8242 122.59 44.1655 123.159 44.3452C123.729 44.5248 124.316 44.6147 124.921 44.6147Z" fill="#00AFEF"/>
<path d="M153.012 34.4816L152.424 36.9071H158.832L158.244 34.4816C157.817 32.7928 157.39 30.9602 156.963 28.9839C156.536 27.0076 156.109 25.1391 155.681 23.3784H155.468C155.076 25.1751 154.667 27.0615 154.24 29.0378C153.848 30.9782 153.439 32.7928 153.012 34.4816ZM139.663 51.5138L150.235 16.4794H161.341L171.914 51.5138H162.196L160.487 44.0757H150.769L149.06 51.5138H139.663Z" fill="#00AFEF"/>
<path d="M174.476 51.5138V14H183.66V22.7317L183.233 27.367C184.158 26.5405 185.262 25.768 186.543 25.0493C187.86 24.2947 189.426 23.9174 191.242 23.9174C194.161 23.9174 196.279 24.9235 197.596 26.9358C198.913 28.9121 199.571 31.5711 199.571 34.9128V51.5138H190.387V36.0986C190.387 34.3738 190.174 33.224 189.747 32.6491C189.32 32.0742 188.643 31.7867 187.718 31.7867C186.863 31.7867 186.151 31.9664 185.582 32.3257C185.012 32.685 184.372 33.1881 183.66 33.8349V51.5138H174.476Z" fill="#00AFEF"/>
<path d="M29.5693 92C27.6939 92 25.9287 91.723 24.274 91.1691C22.6192 90.5875 21.1712 89.729 19.9301 88.5935C18.7166 87.4303 17.7513 85.9901 17.0342 84.273C16.3447 82.5282 16 80.5064 16 78.2077C16 75.9367 16.3585 73.9288 17.0756 72.184C17.7927 70.4115 18.758 68.9298 19.9715 67.7389C21.2126 66.5203 22.6467 65.5925 24.274 64.9555C25.9012 64.3185 27.6111 64 29.4038 64C31.3896 64 33.0995 64.36 34.5337 65.0801C35.9954 65.7725 37.2089 66.6034 38.1742 67.5727L34.4509 72.1424C33.789 71.5608 33.0857 71.09 32.3411 70.73C31.624 70.3422 30.7276 70.1484 29.652 70.1484C28.7419 70.1484 27.9007 70.3284 27.1285 70.6884C26.3562 71.0485 25.6805 71.5608 25.1013 72.2255C24.5222 72.8902 24.0671 73.7072 23.7361 74.6766C23.4328 75.6459 23.2811 76.7399 23.2811 77.9585C23.2811 80.5064 23.8465 82.459 24.9772 83.816C26.108 85.1731 27.8869 85.8516 30.3139 85.8516C30.7001 85.8516 31.0724 85.8101 31.4309 85.727C31.817 85.6439 32.1342 85.5193 32.3824 85.3531V81.6142H28.4109V75.7982H38.6706V88.6766C37.7053 89.5905 36.4229 90.3798 34.8232 91.0445C33.2236 91.6815 31.4723 92 29.5693 92Z" fill="#00AFEF"/>
<path d="M48.7021 92C47.7369 92 46.8681 91.8338 46.0959 91.5015C45.3236 91.1414 44.6617 90.6706 44.1101 90.089C43.5861 89.5074 43.1862 88.8289 42.9104 88.0534C42.6346 87.2779 42.4967 86.4609 42.4967 85.6024C42.4967 83.4421 43.3792 81.7527 45.1444 80.5341C46.9095 79.2878 49.7778 78.457 53.7493 78.0415C53.5838 76.6014 52.6185 75.8813 50.8534 75.8813C50.1087 75.8813 49.3227 76.0336 48.4953 76.3383C47.6679 76.6152 46.7164 77.0445 45.6408 77.6261L43.1586 72.9733C44.6203 72.087 46.0959 71.4085 47.5852 70.9377C49.0745 70.4669 50.6327 70.2315 52.26 70.2315C54.9352 70.2315 57.0313 71.0069 58.5482 72.5579C60.0926 74.0811 60.8649 76.546 60.8649 79.9525V91.5015H55.0731L54.5767 89.5074H54.4112C53.5838 90.2552 52.7012 90.8645 51.7635 91.3353C50.8534 91.7784 49.8329 92 48.7021 92ZM51.1843 86.5163C51.7635 86.5163 52.2324 86.3917 52.5909 86.1424C52.977 85.8655 53.3631 85.5193 53.7493 85.1039V82.2789C52.0393 82.5282 50.8672 82.9021 50.2328 83.4006C49.5985 83.8991 49.2813 84.4392 49.2813 85.0208C49.2813 86.0178 49.9157 86.5163 51.1843 86.5163Z" fill="#00AFEF"/>
<path d="M66.0829 91.5015V64.4985H73.364L79.3213 76.546L81.8862 82.6113H82.0517C81.9689 81.8912 81.8724 81.1019 81.7621 80.2433C81.6518 79.3848 81.5552 78.5124 81.4725 77.6261C81.3898 76.7122 81.307 75.8121 81.2243 74.9258C81.1691 74.0119 81.1415 73.1395 81.1415 72.3086V64.4985H87.9262V91.5015H80.6451L74.6879 79.4125L72.1229 73.3887H71.9575C72.1229 74.9397 72.316 76.6291 72.5366 78.457C72.7573 80.2849 72.8676 82.0297 72.8676 83.6914V91.5015H66.0829Z" fill="#00AFEF"/>
<path d="M99.0081 91.5015V70.4807H91.8925V64.4985H113.239V70.4807H106.124V91.5015H99.0081Z" fill="#00AFEF"/>
<path d="M122.935 92C121.418 92 120.012 91.7646 118.716 91.2938C117.419 90.7953 116.289 90.089 115.323 89.1751C114.386 88.2334 113.641 87.0841 113.089 85.727C112.538 84.3699 112.262 82.8328 112.262 81.1157C112.262 79.4263 112.538 77.9169 113.089 76.5875C113.669 75.2305 114.413 74.0811 115.323 73.1395C116.261 72.1978 117.323 71.4777 118.509 70.9792C119.695 70.4807 120.922 70.2315 122.191 70.2315C123.708 70.2315 125.031 70.4946 126.162 71.0208C127.293 71.547 128.231 72.2671 128.975 73.181C129.72 74.095 130.272 75.1612 130.63 76.3798C131.016 77.5984 131.209 78.9001 131.209 80.2849C131.209 80.9219 131.168 81.5173 131.085 82.0712C131.03 82.6251 130.975 83.0267 130.92 83.276H119.129C119.46 84.5223 120.053 85.3947 120.908 85.8932C121.763 86.364 122.77 86.5994 123.928 86.5994C124.645 86.5994 125.335 86.5025 125.997 86.3086C126.686 86.087 127.403 85.7685 128.148 85.3531L130.465 89.5905C129.334 90.3937 128.079 91.003 126.7 91.4184C125.349 91.8061 124.094 92 122.935 92ZM119.047 78.6231H125.169C125.169 77.82 124.962 77.1276 124.549 76.546C124.163 75.9367 123.432 75.632 122.356 75.632C121.556 75.632 120.853 75.8675 120.246 76.3383C119.667 76.8091 119.267 77.5707 119.047 78.6231Z" fill="#00AFEF"/>
<path d="M135.692 91.5015V64.4985H142.973L148.931 76.546L151.496 82.6113H151.661C151.578 81.8912 151.482 81.1019 151.372 80.2433C151.261 79.3848 151.165 78.5124 151.082 77.6261C150.999 76.7122 150.916 75.8121 150.834 74.9258C150.779 74.0119 150.751 73.1395 150.751 72.3086V64.4985H157.536V91.5015H150.255L144.297 79.4125L141.732 73.3887H141.567C141.732 74.9397 141.925 76.6291 142.146 78.457C142.367 80.2849 142.477 82.0297 142.477 83.6914V91.5015H135.692Z" fill="#00AFEF"/>
<path d="M175.899 92C174.023 92 172.258 91.723 170.603 91.1691C168.949 90.5875 167.501 89.729 166.259 88.5935C165.046 87.4303 164.081 85.9901 163.364 84.273C162.674 82.5282 162.329 80.5064 162.329 78.2077C162.329 75.9367 162.688 73.9288 163.405 72.184C164.122 70.4115 165.087 68.9298 166.301 67.7389C167.542 66.5203 168.976 65.5925 170.603 64.9555C172.231 64.3185 173.94 64 175.733 64C177.719 64 179.429 64.36 180.863 65.0801C182.325 65.7725 183.538 66.6034 184.504 67.5727L180.78 72.1424C180.118 71.5608 179.415 71.09 178.67 70.73C177.953 70.3422 177.057 70.1484 175.981 70.1484C175.071 70.1484 174.23 70.3284 173.458 70.6884C172.686 71.0485 172.01 71.5608 171.431 72.2255C170.852 72.8902 170.396 73.7072 170.066 74.6766C169.762 75.6459 169.61 76.7399 169.61 77.9585C169.61 80.5064 170.176 82.459 171.307 83.816C172.437 85.1731 174.216 85.8516 176.643 85.8516C177.029 85.8516 177.402 85.8101 177.76 85.727C178.146 85.6439 178.464 85.5193 178.712 85.3531V81.6142H174.74V75.7982H185V88.6766C184.035 89.5905 182.752 90.3798 181.153 91.0445C179.553 91.6815 177.802 92 175.899 92Z" fill="#00AFEF"/>
</svg>
