<svg width="20" height="20" viewBox="0 0 20 20" fill="none" xmlns="http://www.w3.org/2000/svg">
<path fill-rule="evenodd" clip-rule="evenodd" d="M17.1769 9.08333H18.25C18.7563 9.08333 19.1667 9.49374 19.1667 10C19.1667 10.5063 18.7563 10.9167 18.25 10.9167H17.1769C16.7993 11.9848 15.7807 12.75 14.5833 12.75C13.386 12.75 12.3673 11.9848 11.9898 10.9167H1.75001C1.24375 10.9167 0.833344 10.5063 0.833344 10C0.833344 9.49374 1.24375 9.08333 1.75001 9.08333H11.9898C12.3673 8.01524 13.386 7.25 14.5833 7.25C15.7807 7.25 16.7993 8.01524 17.1769 9.08333ZM14.5833 9.08333C14.0771 9.08333 13.6667 9.49374 13.6667 10C13.6667 10.5063 14.0771 10.9167 14.5833 10.9167C15.0896 10.9167 15.5 10.5063 15.5 10C15.5 9.49374 15.0896 9.08333 14.5833 9.08333Z" fill="#00AFEF"/>
<path fill-rule="evenodd" clip-rule="evenodd" d="M18.25 2.66659H8.92686C8.54935 1.59849 7.53071 0.833252 6.33334 0.833252C5.13598 0.833252 4.11734 1.59849 3.73982 2.66659H1.75001C1.24375 2.66659 0.833344 3.07699 0.833344 3.58325C0.833344 4.08951 1.24375 4.49992 1.75001 4.49992H3.73982C4.11734 5.56801 5.13598 6.33325 6.33334 6.33325C7.53071 6.33325 8.54935 5.56801 8.92686 4.49992H18.25C18.7563 4.49992 19.1667 4.08951 19.1667 3.58325C19.1667 3.07699 18.7563 2.66659 18.25 2.66659ZM18.25 15.4999H11.6769C11.2993 14.4318 10.2807 13.6666 9.08334 13.6666C7.88598 13.6666 6.86734 14.4318 6.48982 15.4999H1.75001C1.24375 15.4999 0.833344 15.9103 0.833344 16.4166C0.833344 16.9228 1.24375 17.3333 1.75001 17.3333H6.48982C6.86734 18.4013 7.88598 19.1666 9.08334 19.1666C10.2807 19.1666 11.2993 18.4013 11.6769 17.3333H18.25C18.7563 17.3333 19.1667 16.9228 19.1667 16.4166C19.1667 15.9103 18.7563 15.4999 18.25 15.4999ZM8.16668 16.4166C8.16668 15.9103 8.57708 15.4999 9.08334 15.4999C9.5896 15.4999 10 15.9103 10 16.4166C10 16.9228 9.5896 17.3333 9.08334 17.3333C8.57708 17.3333 8.16668 16.9228 8.16668 16.4166ZM6.33334 2.66659C5.82708 2.66659 5.41668 3.07699 5.41668 3.58325C5.41668 4.08951 5.82708 4.49992 6.33334 4.49992C6.8396 4.49992 7.25001 4.08951 7.25001 3.58325C7.25001 3.07699 6.8396 2.66659 6.33334 2.66659Z" fill="#00AFEF"/>
</svg>
