<svg id="Layer_1" data-name="Layer 1" xmlns="http://www.w3.org/2000/svg" viewBox="0 0 26.51 32"><defs><style>.cls-1{fill:#f0f2f7;}.cls-2{fill:#5092eb;}</style></defs><title>ic_about</title><path class="cls-1" d="M4.53,9.18a4.8,4.8,0,0,0,4.8,8.31L24.11,9A4.8,4.8,0,0,0,19.31.64ZM2.4,23a4.8,4.8,0,1,0,4.8,8.32L22,22.82a4.8,4.8,0,1,0-4.8-8.31Z" transform="translate(0 0)"/><path class="cls-2" d="M7,10.08a.89.89,0,0,1,.89.89.87.87,0,0,1-.89.89.89.89,0,0,1,0-1.78Zm2.93,1.75A.88.88,0,0,0,10.8,11a.87.87,0,0,0-.89-.87A.89.89,0,0,0,9,11,.87.87,0,0,0,9.91,11.83ZM13.73,11a.89.89,0,0,0-.89-.89.89.89,0,1,0,0,1.78A.89.89,0,0,0,13.73,11ZM3.86,16.51v2a.86.86,0,0,0,.27.62.83.83,0,0,0,.57.22.94.94,0,0,0,.6-.24l1.9-1.9V15L5.45,16.75V15H4.34a.67.67,0,0,1-.67-.67V7.54a.66.66,0,0,1,.67-.67H15.53a.67.67,0,0,1,.67.67v4.82h1.56V7.54A2.26,2.26,0,0,0,15.5,5.28H4.32A2.26,2.26,0,0,0,2.06,7.54v6.79A2.25,2.25,0,0,0,3.86,16.51Zm19.4-2.61a1.69,1.69,0,0,1,1.68,1.68v7.85a1.69,1.69,0,0,1-1.68,1.68h-.39v2.71a.25.25,0,0,1-.43.17l-2.86-2.88H10.32a1.68,1.68,0,0,1-1.68-1.68V15.58a1.68,1.68,0,0,1,1.68-1.68Zm-7.11,3.29a.87.87,0,1,0,1.73,0,.9.9,0,0,0-.86-.89A.87.87,0,0,0,16.15,17.19ZM18.05,22c-.1,0-.17.1-.24.12a2,2,0,0,1-.31.07.23.23,0,0,1-.27-.19.57.57,0,0,1,0-.29c0-.21.07-.41.09-.62.12-.63.24-1.23.34-1.85a4.45,4.45,0,0,0,.05-.5c0-.2-.12-.29-.34-.29H15.72a.53.53,0,0,0-.19,0c-.12,0-.2.07-.2.17a.23.23,0,0,0,.15.22,1.35,1.35,0,0,0,.29,0c.21,0,.28.12.28.34v.1c-.09.55-.19,1.08-.28,1.63l-.15.93a.93.93,0,0,0,.72.94,2.69,2.69,0,0,0,.63,0,1.6,1.6,0,0,0,1.15-.5.78.78,0,0,0,.12-.22C18.29,22,18.19,22,18.05,22Z" transform="translate(0 0)"/></svg>