<svg id="Layer_1" data-name="Layer 1" xmlns="http://www.w3.org/2000/svg" viewBox="0 0 39.77 48"><defs><style>.cls-1{fill:#f0f2f7;}.cls-2{fill:#f09f40;}.cls-3{fill:#f04b40;}</style></defs><title>ic_riwayat</title><path class="cls-1" d="M6.8,13.77A7.2,7.2,0,0,0,14,26.24l22.17-12.8A7.2,7.2,0,0,0,29,1ZM3.6,34.56A7.2,7.2,0,0,0,10.8,47L33,34.23a7.2,7.2,0,1,0-7.2-12.47Z" transform="translate(0 0)"/><path class="cls-2" d="M15.06,15.7H25a1.81,1.81,0,0,0,1.69-1.3,1.28,1.28,0,0,0,.06-.33V11.93a1.13,1.13,0,0,0-.06-.32,1.91,1.91,0,0,0-.26-.54,1.78,1.78,0,0,0-1-.71,2.58,2.58,0,0,0-.48,0H23.84v-.15A3.79,3.79,0,0,0,20,6.44h0a3.93,3.93,0,0,0-2.7,1.1,3.72,3.72,0,0,0-1.12,2.64v.15H15.12a2.63,2.63,0,0,0-.48.06,1.78,1.78,0,0,0-1,.71,1.56,1.56,0,0,0-.27.53,1.88,1.88,0,0,0,0,.33v2.11a1.53,1.53,0,0,0,0,.33,1.79,1.79,0,0,0,1.7,1.3ZM18,10.15a2,2,0,0,1,2-1.93h.08a2,2,0,0,1,2,1.93v.18H18Z" transform="translate(0 0)"/><path class="cls-2" d="M33.61,32.54V17.1a5.32,5.32,0,0,0-2.85-5,5.07,5.07,0,0,0-2.4-.53h-.54V14h.12a7.41,7.41,0,0,1,.86,0,2.65,2.65,0,0,1,2.44,2.43c.06,1.22.06,2.5.06,3.63V35.62a3.91,3.91,0,0,1-.33,2,2.63,2.63,0,0,1-2.43,1.55H11.46A2.63,2.63,0,0,1,9,37.58a3.91,3.91,0,0,1-.33-2V20.1c0-1.13,0-2.41.06-3.63A2.67,2.67,0,0,1,11.2,14a7.41,7.41,0,0,1,.86,0h.12V11.58h-.54a4.82,4.82,0,0,0-2.4.53,5.32,5.32,0,0,0-2.85,5V32.57c0,2.34,0,1.66,0,4.09a5.06,5.06,0,0,0,5,4.9h0c2.77,0,5.5,0,8.26,0h.59c2.76,0,5.46,0,8.25,0h0a5.06,5.06,0,0,0,5-4.9V32.54Z" transform="translate(0 0)"/><path class="cls-3" d="M20.16,34.58a6,6,0,0,0,.69-12V21.7h.65a.74.74,0,1,0,0-1.48H18.86a.74.74,0,1,0,0,1.48h.65v.83a6,6,0,0,0,.65,12ZM19.45,28l.12-.12,3.18-2.49a.46.46,0,0,1,.65.09.48.48,0,0,1,0,.59l-2.67,3.06a.84.84,0,0,1-1.19.09A.85.85,0,0,1,19.45,28ZM16.1,23.3,15.86,23a1.07,1.07,0,0,0-.74-.33,1,1,0,0,0-.72,1.69l.33.33A6.18,6.18,0,0,1,16.1,23.3Zm9.82,1.13-.32.33a6.34,6.34,0,0,0-1.37-1.46l.24-.24a1.08,1.08,0,0,1,.74-.32,1,1,0,0,1,.71,1.69Z" transform="translate(0 0)"/></svg>