<svg width="512" height="512" viewBox="0 0 512 512" fill="none" xmlns="http://www.w3.org/2000/svg">
<g clip-path="url(#clip0)">
<rect width="512" height="512" fill="#00AFEF"/>
<path opacity="0.1" d="M201.164 877.982C103.241 690.425 134.31 519.015 134.31 519.015C143.118 405.516 214.044 248.329 458.973 69.4372C458.973 69.4372 -5.40179 242.435 98.9606 711.67C98.9606 711.67 -46.815 506.091 -32.9409 354.874C-8.82404 91.3912 257.171 26.0422 257.171 26.0422C257.171 26.0422 563.938 -51.2363 606.663 -268.813C606.663 -268.813 821.804 540.443 184.631 707.354C168.784 775.481 201.164 877.982 201.164 877.982Z" fill="#025878"/>
<path fill-rule="evenodd" clip-rule="evenodd" d="M168.775 297.726C168.775 297.726 142.949 346.893 155.33 412C155.33 412 155.075 378.23 166.417 358.989C378.538 363.142 389 100 389 100C355.205 162.127 253.372 159.196 253.372 159.196C253.372 159.196 165.231 156.153 132.815 233.756C114.202 278.291 139.616 352.95 139.616 352.95C151.962 202.118 311.426 189.617 311.426 189.617C219.007 222.713 182.251 264.162 168.775 297.726Z" fill="white"/>
</g>
<defs>
<clipPath id="clip0">
<rect width="512" height="512" fill="white"/>
</clipPath>
</defs>
</svg>
