<svg width="86" height="86" viewBox="0 0 86 86" fill="none" xmlns="http://www.w3.org/2000/svg">
<path d="M66.7241 22.9827L60.7931 8.15515H25.2069L19.2759 22.9827H5.633C2.52217 22.9827 0 25.5049 0 28.6157V72.1614C0 75.3004 2.54441 77.8448 5.68341 77.8448H80.3151C83.4541 77.8448 85.9985 75.3004 85.9985 72.1614V28.6157C85.9985 25.5049 83.4763 22.9827 80.3655 22.9827H66.7241Z" fill="#556080"/>
<path d="M43 71.9138C56.9214 71.9138 68.2069 60.6283 68.2069 46.7069C68.2069 32.7855 56.9214 21.5 43 21.5C29.0786 21.5 17.7931 32.7855 17.7931 46.7069C17.7931 60.6283 29.0786 71.9138 43 71.9138Z" fill="#424A60" stroke="#2B313D" stroke-width="2" stroke-miterlimit="10" stroke-linecap="round"/>
<path d="M43 63.0173C52.0079 63.0173 59.3103 55.7149 59.3103 46.707C59.3103 37.699 52.0079 30.3966 43 30.3966C33.992 30.3966 26.6896 37.699 26.6896 46.707C26.6896 55.7149 33.992 63.0173 43 63.0173Z" fill="#7383BF"/>
<path d="M14.8276 15.569H8.89655V22.9828H14.8276V15.569Z" fill="#38454F"/>
<path d="M75.6207 37.8104C78.0774 37.8104 80.069 35.8188 80.069 33.3621C80.069 30.9054 78.0774 28.9138 75.6207 28.9138C73.164 28.9138 71.1724 30.9054 71.1724 33.3621C71.1724 35.8188 73.164 37.8104 75.6207 37.8104Z" fill="#EFCE4A"/>
<path d="M47.4483 46.7069C47.4483 52.0375 49.5509 56.7571 52.7862 59.733C56.7407 56.7571 59.3104 52.0375 59.3104 46.7069C59.3104 41.3764 56.7407 36.6568 52.7862 33.6809C49.5509 36.6568 47.4483 41.3764 47.4483 46.7069Z" fill="#879AD8"/>
<path d="M26.6896 46.7069C26.6896 52.0375 29.2593 56.7571 33.2138 59.733C36.4492 56.7571 38.5517 52.0375 38.5517 46.7069C38.5517 41.3764 36.4492 36.6568 33.2138 33.6809C29.2593 36.6568 26.6896 41.3764 26.6896 46.7069Z" fill="#879AD8"/>
<path d="M43 64.5C33.1886 64.5 25.2069 56.5183 25.2069 46.7069C25.2069 36.8955 33.1886 28.9138 43 28.9138C52.8114 28.9138 60.7931 36.8955 60.7931 46.7069C60.7931 56.5183 52.8114 64.5 43 64.5ZM43 31.8793C34.8241 31.8793 28.1724 38.531 28.1724 46.7069C28.1724 54.8829 34.8241 61.5345 43 61.5345C51.1759 61.5345 57.8276 54.8829 57.8276 46.7069C57.8276 38.531 51.1759 31.8793 43 31.8793Z" fill="#556080"/>
<path d="M45.2241 46.7069C48.0903 46.7069 50.4138 44.3835 50.4138 41.5173C50.4138 38.6511 48.0903 36.3276 45.2241 36.3276C42.358 36.3276 40.0345 38.6511 40.0345 41.5173C40.0345 44.3835 42.358 46.7069 45.2241 46.7069Z" fill="#4674E8"/>
<path d="M41.5172 46.7069C43.155 46.7069 44.4827 45.3792 44.4827 43.7414C44.4827 42.1036 43.155 40.7759 41.5172 40.7759C39.8794 40.7759 38.5517 42.1036 38.5517 43.7414C38.5517 45.3792 39.8794 46.7069 41.5172 46.7069Z" fill="#BF4D90"/>
<path d="M37.069 43.7413C38.7068 43.7413 40.0345 42.4136 40.0345 40.7758C40.0345 39.138 38.7068 37.8103 37.069 37.8103C35.4312 37.8103 34.1035 39.138 34.1035 40.7758C34.1035 42.4136 35.4312 43.7413 37.069 43.7413Z" fill="#BCCEF7"/>
</svg>
