<svg width="282" height="213" viewBox="0 0 282 213" fill="none" xmlns="http://www.w3.org/2000/svg">
<g opacity="0.5" filter="url(#filter0_f)">
<ellipse cx="157.441" cy="188.02" rx="112.559" ry="12.6471" fill="#A8D8EA"/>
</g>
<g opacity="0.5" filter="url(#filter1_f)">
<ellipse cx="45.3039" cy="165.255" rx="33.3039" ry="4.21569" fill="#A7D8EA"/>
</g>
<g clip-path="url(#clip0)">
<path d="M172.938 79.7335C172.938 79.7335 176.704 77.107 175.545 74.186C174.386 71.2711 172.607 76.2601 172.607 76.2601C172.607 76.2601 173.165 72.9218 172.012 71.3692C170.853 69.8167 167.522 76.1742 167.522 76.1742L161.971 74.6523L161.837 71.1483C161.837 71.1483 162.517 69.6203 160.825 69.381C158.616 69.068 157.93 72.9218 158.212 75.536C158.39 77.2665 172.938 79.7335 172.938 79.7335Z" fill="#F1A370"/>
<path d="M107.831 181.436L108.807 132.042L88.0388 131.533L96.8342 178.331C96.8403 178.337 101.778 185.081 107.831 181.436Z" fill="#133E5E"/>
<path d="M105.562 188.96L109.598 187.677C109.598 187.677 110.677 183.958 109.598 182.062C108.518 180.166 102.459 183.756 96.8342 178.343C96.8342 178.343 93.8779 179.626 94.0925 182.535C94.3133 185.443 105.562 188.96 105.562 188.96Z" fill="#032B44"/>
<path d="M109.598 187.671C109.598 187.671 109.96 186.431 110.052 185.026C110.052 185.026 108.322 187.548 104.121 186.118C99.9193 184.688 103.182 187.984 103.182 187.984L103.624 188.297C104.777 188.708 105.562 188.953 105.562 188.953L109.598 187.671Z" fill="#D20918"/>
<path d="M87.3948 188.346C87.3948 188.346 88.5847 182.663 95.724 181.749C102.863 180.835 105.568 188.953 105.568 188.953C105.568 188.953 96.2638 192.912 87.3948 188.346Z" fill="#EC1C24"/>
<path d="M98.2878 181.823C101.526 183.897 102.857 187.867 102.857 187.867C102.857 187.867 95.5339 190.979 87.6892 188.487C96.4662 192.82 105.568 188.954 105.568 188.954C105.568 188.954 103.514 182.823 98.2878 181.823Z" fill="#D20918"/>
<path d="M107.831 181.436L108.635 132.619C108.678 132.367 108.733 132.171 108.813 132.048L96.5459 131.748L87.9897 135.301C87.9897 135.301 90.6087 139.382 96.6318 140.474C102.655 141.56 103.9 165.628 103.9 165.628C103.9 165.628 104.17 180.368 96.8464 178.343C96.8403 178.337 101.778 185.081 107.831 181.436Z" fill="#032B44"/>
<path d="M125.25 181.436L111.119 132.042L130.587 131.533L135.561 178.331C135.561 178.337 130.93 185.081 125.25 181.436Z" fill="#133E5E"/>
<path d="M127.379 188.96L123.594 187.677C123.594 187.677 122.582 183.958 123.594 182.062C124.606 180.166 130.286 183.756 135.561 178.343C135.561 178.343 138.333 179.626 138.131 182.535C137.928 185.443 127.379 188.96 127.379 188.96Z" fill="#032B44"/>
<path d="M123.594 187.671C123.594 187.671 123.257 186.431 123.165 185.026C123.165 185.026 124.784 187.548 128.728 186.118C132.672 184.688 129.611 187.984 129.611 187.984L129.194 188.297C128.115 188.708 127.379 188.953 127.379 188.953L123.594 187.671Z" fill="#D20918"/>
<path d="M144.418 188.346C144.418 188.346 143.301 182.663 136.61 181.755C129.918 180.841 127.385 188.96 127.385 188.96C127.385 188.96 136.101 192.912 144.418 188.346Z" fill="#EC1C24"/>
<path d="M134.205 181.823C131.169 183.897 129.924 187.867 129.924 187.867C129.924 187.867 136.794 190.979 144.148 188.487C135.917 192.82 127.385 188.954 127.385 188.954C127.385 188.954 129.299 182.823 134.205 181.823Z" fill="#D20918"/>
<path d="M125.25 181.436L111.278 132.619C111.242 132.367 111.186 132.171 111.113 132.048L122.613 131.748L130.636 135.301C130.636 135.301 128.182 139.382 122.533 140.474C116.884 141.56 127.373 172.704 127.373 172.704C127.373 172.704 128.685 180.368 135.549 178.343C135.561 178.337 130.93 185.081 125.25 181.436Z" fill="#032B44"/>
<path d="M129.084 100.402C129.084 100.402 137.395 112.129 138.713 117.357C140.879 125.936 128.894 130.784 112.309 130.422C95.7302 130.06 85.2174 126.795 83.4878 124.255C81.7581 121.714 86.4441 110.558 91.1423 103.58C95.3069 97.3947 129.084 100.402 129.084 100.402Z" fill="#754C29"/>
<path d="M93.5405 120.014C93.4424 117.768 85.5364 118.505 85.3953 120.254C85.2542 121.996 93.6264 121.923 93.5405 120.014Z" fill="#F1A370"/>
<path d="M128.121 88.3738C128.121 88.3738 130.194 80.2612 125.428 79.1198C120.663 77.9784 100.244 76.9413 94.4789 78.5736C88.7135 80.206 95.859 97.0817 95.859 97.0817L128.121 88.3738Z" fill="#754C29"/>
<path d="M140.842 43.6622C141.197 32.782 137.315 23.8041 137.315 23.8041C144.191 12.304 139.842 0 139.842 0C131.188 7.0326 107.936 7.57262 107.936 7.57262C107.089 3.6513 103.648 0 103.648 0C103.648 4.73135 97.4966 9.40134 97.4966 9.40134C97.4966 9.40134 82.4942 3.62062 73.1652 12.8501C73.1652 12.8501 77.9309 12.0401 80.5683 12.8501C80.5683 12.8501 65.4615 18.4283 63.4314 32.6347C63.4314 32.6347 66.0688 30.7078 68.5037 29.7934C68.5037 29.7934 63.4314 38.8204 69.1539 54.88L106.188 75.7201L139.983 52.4131L140.842 43.6622Z" fill="#603913"/>
<path d="M77.3727 20.9689C78.5074 28.8607 90.4063 28.4066 90.4063 28.4066C90.4063 28.4066 88.4804 44.7853 88.0572 49.1361C87.726 52.5236 84.3035 59.5746 82.7947 62.5509L69.1539 54.88C63.4314 38.8204 68.5037 29.7934 68.5037 29.7934C66.0688 30.7017 63.4314 32.6286 63.4314 32.6286C67.4427 22.8652 77.3727 20.9689 77.3727 20.9689Z" fill="#4C290C"/>
<path d="M137.315 23.8041C137.315 23.8041 141.197 32.782 140.842 43.6622L139.995 52.2597C137.229 52.7506 135.07 51.7381 134.898 51.554C134.629 51.2533 121.209 42.5147 110.88 37.2985C100.551 32.0824 103.526 24.2091 103.526 24.2091C104.955 24.4116 107.243 24.5466 107.243 24.5466C139.934 26.4551 139.842 0 139.842 0C139.842 0 144.191 12.304 137.315 23.8041Z" fill="#4C290C"/>
<path d="M133.218 101.114C133.218 101.114 146.343 109.797 153.857 106.729C161.272 103.703 167.05 84.4219 167.05 84.4219L159.34 81.9365C159.34 81.9365 152.078 92.2461 150.134 96.6092C149.539 97.947 139.603 93.86 139.603 93.86L133.218 101.114Z" fill="#FBBB8F"/>
<path d="M164.382 91.7797C163.517 91.8166 163.069 91.5343 163.572 90.7304C165.136 88.2205 165.001 85.9929 163.572 85.1092C162.143 84.2255 160.886 82.4398 160.886 82.4398L167.044 84.428C167.044 84.4219 166.062 87.7111 164.382 91.7797Z" fill="#F1A370"/>
<path d="M82.5187 95.2101C82.5187 95.2101 70.8345 102.727 70.8345 110.846C70.8345 115.854 77.8695 123.549 82.948 128.833C85.9964 131.999 89.9954 128.882 89.9954 128.882V124.641C89.9954 124.641 82.4942 114.847 79.0778 112.117C77.937 111.202 86.8182 103.863 86.8182 103.863L82.5187 95.2101Z" fill="#FBBB8F"/>
<path d="M77.3482 112.129C76.8023 110.441 81.3533 105.164 80.4149 102.862C79.1146 99.6714 79.961 97.0818 79.961 97.0818L83.1198 96.419L86.8182 103.863C86.8182 103.863 77.937 111.208 79.0778 112.117C81.0528 113.694 84.4017 117.64 86.8673 120.683C86.8612 120.683 77.8941 113.816 77.3482 112.129Z" fill="#F1A370"/>
<path d="M100.036 91.8779C99.0054 97.9532 86.4502 107.428 86.4502 107.428L77.9677 95.3206L93.2952 86.4592C93.2952 86.4531 101.759 81.7279 100.036 91.8779Z" fill="#EC1C24"/>
<path d="M122.208 90.534C123.239 96.6093 134.273 104.838 134.273 104.838L140.86 91.5833L128.237 84.7042C128.244 84.698 120.485 80.384 122.208 90.534Z" fill="#EC1C24"/>
<path d="M91.1423 103.58C91.1423 103.58 89.0815 126.268 86.4441 136.006C86.4441 136.006 108.85 148.249 136.714 132.196C136.714 132.196 130.145 106.661 127.845 94.3141L124.864 83.7959C124.864 83.7959 100.318 83.8327 96.7422 85.1644C93.1725 86.496 90.8234 99.2848 90.8234 99.2848L91.1423 103.58Z" fill="#EC1C24"/>
<path d="M104.716 84.2623C108.328 84.0659 112.548 83.9554 116.191 83.8879C116.191 83.8879 116.86 88.607 113.278 90.2823C109.696 91.9576 104.722 89.9939 104.716 84.2623Z" fill="#D20918"/>
<path d="M124.87 83.7898C124.87 83.7898 126.109 97.1493 129.372 97.0818C132.635 97.0143 138.486 90.2824 138.486 90.2824L140.866 91.5772L134.279 104.832C134.279 104.832 131.807 102.985 129.09 100.402C130.875 108.686 133.445 119.174 135.101 125.789C112.315 110.374 118.375 85.1583 118.798 83.845C122.184 83.7959 124.637 83.7898 124.858 83.7898C124.858 83.7898 124.864 83.7898 124.87 83.7898Z" fill="#D20918"/>
<path d="M86.4441 136C89.0815 126.262 91.1423 103.574 91.1423 103.574L91.1362 103.513C88.5663 105.82 86.4441 107.422 86.4441 107.422L78.6669 94.9033L80.8688 93.633C80.8688 93.633 84.739 100.162 89.474 100.531C94.2091 100.893 96.7483 85.1644 96.7483 85.1644L102.146 84.4219C102.146 84.4219 110.671 102.623 98.8705 118.038C87.0636 133.454 136.714 132.19 136.714 132.19C108.856 148.249 86.4441 136 86.4441 136Z" fill="#D20918"/>
<path d="M105.832 84.207C109.181 84.0475 112.916 83.9493 116.191 83.8879C116.167 85.1705 115.725 88.6009 111.757 89.1225C107.181 89.7239 105.875 86.2996 105.832 84.207Z" fill="#FF717C"/>
<path d="M111.837 87.7233C109.831 88.1038 107.893 86.7844 107.513 84.7716L106.188 77.7452L113.462 76.3705L114.787 83.397C115.167 85.4037 113.848 87.3429 111.837 87.7233Z" fill="#F1A370"/>
<path d="M78.6423 64.5882C78.6423 64.5882 83.7147 81.2247 109.058 80.4146C109.058 80.4146 134.61 79.1996 138.867 59.5194C138.867 59.5194 141.234 38.5566 125.686 30.1678C125.686 30.1678 110.003 35.7153 90.4002 28.4066C90.4002 28.4066 71.0675 35.3041 78.6423 64.5882Z" fill="#FBBB8F"/>
<path d="M78.6424 64.5882C78.6424 64.5882 78.2375 69.0496 73.6743 67.9388C69.111 66.822 66.8109 61.2806 68.1296 57.1199C69.4483 52.9593 73.2142 49.578 77.4402 58.8075C78.9736 61.6304 78.6424 64.5882 78.6424 64.5882Z" fill="#F1A370"/>
<path d="M90.4002 28.4066C110.003 35.7092 125.686 30.1678 125.686 30.1678C132.641 33.9234 136.015 40.1951 137.609 45.9758C137.597 45.9574 133.23 37.4765 123.245 34.623C123.245 34.623 114.848 35.5742 110.027 33.2668C110.027 33.2668 111.186 36.9365 118.81 39.0475C118.81 39.0475 114.167 41.809 105.568 37.2801C105.568 37.2801 108.065 43.1222 112.708 46.8717C112.708 46.8717 100.036 47.5529 88.5172 33.8068C88.5172 33.8068 79.3784 46.209 83.1198 60.5196C86.8612 74.8303 101.256 79.6107 114.094 79.7396C111.082 80.3164 109.052 80.4146 109.052 80.4146C83.7024 81.2247 78.6362 64.5882 78.6362 64.5882C71.0675 35.3041 90.4002 28.4066 90.4002 28.4066Z" fill="#F1A370"/>
<path d="M90.4002 28.4065C90.4002 28.4065 97.2881 39.8329 107.936 45.1105C107.936 45.1105 103.477 38.6179 102.465 33.8497C102.465 33.8497 107.028 36.7892 110.88 37.2985C110.88 37.2985 108.843 34.6904 107.936 32.0885C107.028 29.4865 99.9316 22.859 90.4002 28.4065Z" fill="#603913"/>
<path d="M90.4002 28.4065C90.4002 28.4065 97.2881 39.8329 107.936 45.1105C107.936 45.1105 103.477 38.6179 102.465 33.8497C102.465 33.8497 107.028 36.7892 110.88 37.2985C110.88 37.2985 108.843 34.6904 107.936 32.0885C107.028 29.4865 99.9316 22.859 90.4002 28.4065Z" fill="#603913"/>
<path d="M136.763 55.4753C136.763 55.4753 137.628 59.8753 142.05 58.292C146.472 56.7088 148.19 50.9587 146.448 46.9576C144.706 42.9565 138.996 41.3549 136.229 48.6084C134.99 51.5785 136.763 55.4753 136.763 55.4753Z" fill="#FBBB8F"/>
<path d="M119.761 48.9275C119.994 51.1674 120.865 48.1174 122.423 47.9518C123.981 47.7861 125.643 50.5721 125.404 48.3322C125.171 46.0923 123.742 45.3866 122.184 45.5523C120.62 45.7119 119.522 46.6876 119.761 48.9275Z" fill="#603913"/>
<path d="M99.1342 54.2971C99.8886 56.6167 100.116 53.1863 101.735 52.6647C103.348 52.1369 105.734 54.7143 104.979 52.3947C104.225 50.075 102.551 49.6516 100.937 50.1732C99.3182 50.6948 98.3798 51.9774 99.1342 54.2971Z" fill="#603913"/>
<path d="M125.367 64.3918C125.367 64.3918 125.514 65.3676 125.342 66.7544C122.147 68.2947 112.695 72.1915 103.305 69.8535C102.072 67.7118 101.661 65.8155 101.661 65.8155C111.929 70.6083 125.367 64.3918 125.367 64.3918Z" fill="#FCF4EC"/>
<path d="M125.342 66.7545C125.189 67.9941 124.772 69.5589 123.766 71.044C122.429 70.0989 120.65 69.5344 118.786 69.2153C121.718 68.3868 124.042 67.3743 125.342 66.7545Z" fill="#C35162"/>
<path d="M115.486 75.6525C108.739 76.7203 105.12 73.0199 103.299 69.8534C108.88 71.2464 114.48 70.4303 118.78 69.2152C120.65 69.5343 122.423 70.0927 123.76 71.0439C122.392 73.069 119.921 74.953 115.486 75.6525Z" fill="#D9727E"/>
<path d="M114.738 53.9043C114.738 53.9043 115.173 55.8987 117.344 57.5249C119.522 59.1511 116.228 61.1333 111.677 62.2133C111.677 62.2133 115.737 59.2309 114.799 57.6599C113.505 55.4814 114.738 53.9043 114.738 53.9043Z" fill="#F1A370"/>
<path d="M88.7932 61.9617C89.198 63.5572 92.0869 64.2016 95.2517 63.4038C98.4166 62.6061 100.661 60.6607 100.257 59.0713C99.8518 57.4758 96.963 56.8315 93.7981 57.6292C90.6333 58.427 88.3884 60.3662 88.7932 61.9617Z" fill="#F68CBD"/>
<path d="M124.465 54.61C124.662 56.2423 127.446 57.2549 130.691 56.8621C133.929 56.4694 136.401 54.8309 136.205 53.1986C136.009 51.5662 133.218 50.5537 129.979 50.9464C126.741 51.3392 124.269 52.9776 124.465 54.61Z" fill="#F68CBD"/>
<path d="M118.816 44.3373C118.816 44.3373 123.656 43.6131 126.428 44.1654C126.9 44.2575 124.263 41.6433 118.915 41.9194L118.816 44.3373Z" fill="#603913"/>
<path d="M104.225 47.7309C104.225 47.7309 98.7294 49.13 95.9203 50.9465C95.4419 51.2533 97.3801 47.3504 103.274 45.2516L104.225 47.7309Z" fill="#603913"/>
<path d="M72.558 56.2485C72.558 56.2485 75.8762 56.9911 75.3977 58.9057C74.9193 60.8203 74.3244 61.6733 75.6063 63.14C76.8882 64.6066 76.2626 65.3737 75.1401 65.6069C74.0238 65.8401 72.1041 64.3428 71.3313 62.8025C71.3313 62.8025 73.202 64.1709 73.7049 63.858C74.214 63.545 71.8771 62.5938 72.4291 61.1333C72.9812 59.6666 73.5025 58.5068 72.5273 57.9607C71.5521 57.4145 70.8651 58.783 70.8651 58.783C70.8651 58.783 70.4726 55.9601 72.558 56.2485Z" fill="#E48F55"/>
<path d="M142.473 46.2765C142.473 46.2765 139.155 47.019 139.633 48.9398C140.112 50.8544 140.707 51.7074 139.425 53.1802C138.143 54.6468 138.769 55.4139 139.891 55.6471C141.007 55.8803 142.927 54.383 143.7 52.8427C143.7 52.8427 141.829 54.2111 141.326 53.8982C140.817 53.5852 143.154 52.634 142.602 51.1735C142.05 49.7068 141.529 48.547 142.504 48.0009C143.479 47.4547 144.166 48.8232 144.166 48.8232C144.166 48.8232 144.559 45.988 142.473 46.2765Z" fill="#F1A370"/>
<path d="M124.87 83.7898C124.87 83.7898 121.577 103.66 133.635 116.087C133.635 116.087 136.542 118.855 134.181 122.095C134.181 122.095 117.375 113.086 118.816 83.7837C118.816 83.7898 121.932 79.6169 124.87 83.7898Z" fill="#C3996C"/>
<path d="M118.816 83.7898C118.816 83.7898 119.344 83.0841 120.172 82.5441C119.559 107.287 132.181 116.879 135.033 118.726C135.211 119.695 135.076 120.867 134.181 122.101C134.181 122.095 117.369 113.086 118.816 83.7898Z" fill="#A87C50"/>
<path d="M96.7483 85.1582C96.7483 85.1582 100.183 101.666 90.0506 113.902C90.0506 113.902 87.1679 115.86 89.3146 119.787C89.3146 119.787 105.685 109.619 102.146 84.4218C102.146 84.4218 99.5206 81.6972 96.7483 85.1582Z" fill="#C3996C"/>
<path d="M100.619 83.5259C101.545 83.796 102.146 84.4158 102.146 84.4158C105.685 109.613 89.3146 119.781 89.3146 119.781C88.8913 119.014 88.6644 118.321 88.5724 117.701C91.8722 115.203 103.379 104.814 100.619 83.5259Z" fill="#A87C50"/>
<path d="M136.91 99.5242L134.273 104.832C134.273 104.832 133.426 104.2 132.181 103.157L138.486 90.2762L140.866 91.5711L136.91 99.5242Z" fill="#FF717C"/>
<path d="M88.2473 105.992C87.1556 106.888 86.4441 107.422 86.4441 107.422L78.6669 94.9033L80.8688 93.633L88.2473 105.992Z" fill="#FF717C"/>
<path d="M94.5035 123.04C95.0309 120.855 87.2292 119.376 86.6097 121.015C85.9902 122.647 94.0557 124.893 94.5035 123.04Z" fill="#FBBB8F"/>
<path d="M95.0432 125.488C95.5707 123.304 87.7689 121.825 87.1494 123.463C86.5361 125.096 94.6016 127.348 95.0432 125.488Z" fill="#FBBB8F"/>
<path d="M93.9576 127.667C94.4851 125.482 86.6833 123.997 86.0638 125.642C85.4505 127.274 93.5098 129.52 93.9576 127.667Z" fill="#FBBB8F"/>
<path d="M92.596 129.845C93.1234 127.661 85.3217 126.182 84.7022 127.82C84.0889 129.453 92.1482 131.699 92.596 129.845Z" fill="#FBBB8F"/>
<path d="M153.851 106.729C146.337 109.797 133.212 101.114 133.212 101.114L139.597 93.86C139.597 93.86 141.535 100.543 149.153 102.899C156.77 105.256 165.455 87.3184 167.044 84.4219C167.044 84.4219 161.272 103.703 153.851 106.729Z" fill="#F1A370"/>
<path d="M103.158 27.5351C105.807 28.8606 107.525 30.8918 107.942 32.0885C108.85 34.6904 110.886 37.2985 110.886 37.2985C104.851 34.2486 103.354 30.2966 103.158 27.5351Z" fill="#4C290C"/>
<path d="M97.3617 27.5351L102.465 33.8436C103.477 38.6117 107.936 45.1043 107.936 45.1043C107.936 45.1043 97.5457 37.9613 97.3617 27.5351Z" fill="#4C290C"/>
<path d="M100.036 13.9363C100.036 13.9363 100.263 12.0278 97.4966 9.40134C97.4966 9.40134 103.648 4.73749 103.648 0C103.648 0 105.611 7.86104 100.036 13.9363Z" fill="#4C290C"/>
<path d="M87.3887 12.396C87.3887 12.396 84.9414 11.899 80.5682 12.8501C77.9309 12.0401 73.1652 12.8501 73.1652 12.8501C73.1652 12.8501 79.7709 7.94697 87.3887 12.396Z" fill="#4C290C"/>
<path d="M160.818 69.387C167.234 57.3592 161.291 55.4691 161.291 55.4691C160.904 53.3888 158.531 53.4686 158.531 53.4686C161.996 51.7135 167.019 52.1124 172.809 54.8923C172.809 54.8923 179.734 53.6036 183.757 57.2978C183.757 57.2978 179.231 57.6108 178.728 60.3355C178.728 60.3355 175.839 59.3352 174.067 61.1701C172.288 63.0049 169.773 68.3806 171.944 73.5477C171.944 73.5477 173.239 76.0453 175.483 75.4439C175.483 75.4439 174.189 77.3831 177.127 79.0707C177.176 79.0952 177.225 79.1259 177.274 79.1504C176.207 79.6966 175.25 80.0587 174.539 80.2734C171.632 81.1448 168.773 81.3719 165.946 80.8626C162.977 80.3287 157.666 79.0768 155.01 71.6821C161.426 74.8977 160.818 69.387 160.818 69.387Z" fill="#E9264B"/>
<path d="M181.648 57.6783C181.648 57.6783 180.537 56.4203 176.87 56.5615C173.208 56.7026 171.877 56.451 170.546 55.5182C169.215 54.5855 166.596 54.0761 164.222 54.1866C164.222 54.1866 167.614 54.6407 168.792 55.2053C169.963 55.7698 169.816 56.2976 169.166 56.3528C168.522 56.4081 167.547 56.6903 167.24 56.9726C167.24 56.9726 172.061 56.5001 176.103 58.6847C176.103 58.6847 175.772 58.0404 175.214 57.6967C174.662 57.3531 178.164 56.5799 181.648 57.6783Z" fill="#CD0D3B"/>
<path d="M172.852 56.4571C172.852 56.4571 174.889 50.1609 169.982 45.6873C169.982 45.6873 167.712 45.6873 167.976 48.5102C167.976 48.5102 172.098 50.8605 171.773 56.2178C171.773 56.2178 172.165 57.1997 172.852 56.4571Z" fill="#37B24A"/>
<path d="M167.976 48.5102C167.976 48.5102 170.804 48.4673 172.159 52.3763C172.717 53.9841 173.269 52.9225 173.245 52.5665C173.392 54.7941 172.852 56.4572 172.852 56.4572C172.171 57.1997 171.773 56.2178 171.773 56.2178C172.098 50.8605 167.976 48.5102 167.976 48.5102Z" fill="#1C983C"/>
<path d="M172.613 50.8544C172.613 50.8544 173.172 46.1414 178.44 46.5526C183.709 46.9637 184.844 45.3375 184.844 45.3375C184.844 45.3375 183.801 52.4499 179.507 53.4318C175.22 54.4259 172.613 50.8544 172.613 50.8544Z" fill="#37B24A"/>
<path d="M179.507 53.4318C183.8 52.4438 184.843 45.3375 184.843 45.3375C184.365 46.7919 183.021 50.6948 179.446 52.0203C177.225 52.8426 172.607 50.8544 172.607 50.8544C172.607 50.8544 175.22 54.4259 179.507 53.4318Z" fill="#1C983C"/>
<path d="M172.613 50.8544C172.613 50.8544 172.644 49.3018 177.054 49.0932C181.464 48.8784 183.23 46.976 183.23 46.976C183.23 46.976 182.077 49.0011 178.875 49.5411C175.674 50.0812 173.637 50.5353 173.423 51.1735C173.416 51.1735 172.895 51.2717 172.613 50.8544Z" fill="#1C983C"/>
<path d="M169.951 75.5544C167.841 73.6643 167.97 69.6632 167.97 69.6632C168.264 57.2181 178.36 57.9422 178.36 57.9422C179.998 55.9969 176.722 54.7082 176.722 54.7082C178.967 54.8432 181.727 55.4385 183.751 57.2979C183.751 57.2979 179.225 57.6108 178.722 60.3355C178.722 60.3355 175.833 59.3352 174.061 61.1701C172.282 63.0049 169.767 68.3806 171.938 73.5477C171.938 73.5477 173.233 76.0453 175.477 75.4439C175.477 75.4439 174.183 77.3831 177.121 79.0707C177.17 79.0952 177.219 79.1259 177.268 79.1504C176.201 79.6966 175.244 80.0587 174.533 80.2735C171.626 81.1449 168.767 81.3719 165.94 80.8626C162.971 80.3287 157.66 79.0768 155.004 71.6821C160.702 78.905 172.061 77.4445 169.951 75.5544Z" fill="#CD0D3B"/>
<path d="M171.785 80.8933C171.785 80.8933 170.583 84.4157 167.05 84.4218C163.511 84.428 159.34 81.9365 159.34 81.9365C159.34 81.9365 155.985 80.5251 155.58 78.0336C155.176 75.536 155.335 73.5845 156.065 73.4004C156.789 73.2163 158.813 75.3887 158.997 77.3892C159.168 79.3775 168.884 75.8121 171.785 80.8933Z" fill="#FBBB8F"/>
</g>
<g clip-path="url(#clip1)">
<path d="M237.852 186.751C237.852 190.204 224.54 193 208.113 193C191.69 193 178.373 190.204 178.373 186.751C178.373 183.299 191.685 180.502 208.113 180.502C224.536 180.502 237.852 183.299 237.852 186.751Z" fill="#A34F31"/>
<path d="M237.691 114.659H178.534V186.751H237.691V114.659Z" fill="#A34F31"/>
<path d="M178.534 116.53C178.534 116.53 183.476 122.788 200.152 123.92C216.828 125.048 227.448 136.781 225.631 154.103C223.813 171.424 204.735 187.15 178.594 178.311C178.571 178.301 178.553 178.297 178.53 178.288V186.751H237.687V114.659H178.534V116.53Z" fill="#8E361B"/>
<path d="M238.971 114.489C238.971 118.437 225.157 121.637 208.117 121.637C191.078 121.637 177.26 118.437 177.26 114.489C177.26 110.542 191.073 107.342 208.117 107.342C225.157 107.342 238.971 110.542 238.971 114.489Z" fill="#BA5D3F"/>
<path d="M237.691 179.723C236.145 182.868 223.496 185.321 208.113 185.321C192.73 185.321 180.076 182.868 178.534 179.723V186.105C178.428 186.32 178.378 186.536 178.378 186.751C178.378 190.204 191.69 193.001 208.117 193.001C224.54 193.001 237.857 190.204 237.857 186.751C237.857 186.531 237.802 186.316 237.696 186.105V179.723H237.691Z" fill="#A34F31"/>
<path d="M208.113 192.336C224.006 192.336 236.987 189.718 237.811 186.417C237.783 186.311 237.747 186.206 237.696 186.1V185.445C237.678 185.403 237.655 185.362 237.632 185.321C235.837 188.411 223.307 190.804 208.117 190.804C192.928 190.804 180.398 188.411 178.603 185.321C178.58 185.362 178.562 185.403 178.539 185.445V186.1C178.488 186.206 178.447 186.311 178.424 186.417C179.238 189.718 192.219 192.336 208.113 192.336Z" fill="#8E361B"/>
<path d="M237.852 186.783C237.852 186.563 237.797 186.348 237.691 186.132V179.814C237.682 179.814 237.673 179.81 237.664 179.805C236.003 182.928 223.408 185.353 208.113 185.353C192.73 185.353 180.076 182.9 178.534 179.755C178.534 179.755 180.246 186.357 203.567 187.178C225.267 187.939 226.767 187.687 227.803 189.938C228.047 190.47 228.967 190.791 230.228 190.96C234.967 189.855 237.852 188.393 237.852 186.783Z" fill="#8E361B"/>
<path d="M208.113 183.79C192.923 183.79 180.393 181.396 178.599 178.306C178.451 178.558 178.378 178.81 178.378 179.072C178.378 182.524 191.69 185.321 208.117 185.321C224.54 185.321 237.857 182.524 237.857 179.072C237.857 178.815 237.779 178.558 237.636 178.306C235.832 181.396 223.302 183.79 208.113 183.79Z" fill="#7A2714"/>
<path d="M178.599 178.971C180.393 182.061 192.923 184.454 208.113 184.454C223.302 184.454 235.832 182.061 237.627 178.971C237.71 179.118 237.77 179.264 237.806 179.411C237.834 179.301 237.852 179.186 237.852 179.072C237.852 178.815 237.774 178.558 237.632 178.306C235.837 181.396 223.307 183.79 208.117 183.79C192.928 183.79 180.398 181.396 178.603 178.306C178.456 178.558 178.382 178.81 178.382 179.072C178.382 179.186 178.396 179.296 178.424 179.411C178.456 179.264 178.516 179.118 178.599 178.971Z" fill="#BA5D3F"/>
<path d="M208.113 191.469C192.923 191.469 180.393 189.076 178.599 185.986C178.451 186.238 178.378 186.49 178.378 186.751C178.378 190.204 191.69 193 208.117 193C224.54 193 237.857 190.204 237.857 186.751C237.857 186.49 237.779 186.238 237.636 185.986C235.832 189.076 223.302 191.469 208.113 191.469Z" fill="#7A2714"/>
<path d="M178.599 186.559C180.393 189.649 192.923 192.042 208.113 192.042C223.302 192.042 235.832 189.649 237.627 186.559C237.719 186.719 237.779 186.88 237.816 187.045C237.839 186.948 237.848 186.852 237.848 186.751C237.848 186.49 237.77 186.238 237.627 185.986C235.832 189.076 223.302 191.469 208.113 191.469C192.923 191.469 180.393 189.076 178.599 185.986C178.451 186.238 178.378 186.49 178.378 186.751C178.378 186.848 178.392 186.948 178.41 187.045C178.442 186.88 178.507 186.719 178.599 186.559Z" fill="#BA5D3F"/>
<path d="M188.75 176.041V125.599C188.75 124.044 187.668 122.696 186.145 122.348C186.122 122.343 186.095 122.339 186.072 122.33C183.978 121.844 181.981 123.439 181.981 125.58V176.023C181.981 177.517 182.979 178.833 184.424 179.232C184.447 179.241 184.475 179.246 184.498 179.25C186.637 179.837 188.75 178.251 188.75 176.041Z" fill="#BA5D3F"/>
<path d="M200.249 177.893V127.272C200.249 125.539 198.91 124.09 197.175 123.948C197.152 123.948 197.129 123.943 197.106 123.943C195.155 123.778 193.48 125.314 193.48 127.267V177.889C193.48 179.613 194.801 181.057 196.526 181.213C196.549 181.213 196.572 181.217 196.595 181.217C198.56 181.392 200.249 179.856 200.249 177.893Z" fill="#BA5D3F"/>
<path d="M208.113 181.703C208.131 181.703 208.154 181.703 208.173 181.703C210.009 181.703 211.495 180.209 211.495 178.379V127.708C211.495 125.869 209.995 124.384 208.145 124.384C208.136 124.384 208.122 124.384 208.113 124.384C208.099 124.384 208.09 124.384 208.076 124.384C206.231 124.384 204.726 125.864 204.726 127.708V178.379C204.726 180.209 206.212 181.703 208.048 181.703C208.071 181.703 208.094 181.703 208.113 181.703Z" fill="#BA5D3F"/>
<path d="M222.746 177.889V127.267C222.746 125.314 221.071 123.778 219.12 123.943C219.097 123.943 219.074 123.948 219.051 123.948C217.316 124.095 215.977 125.539 215.977 127.272V177.893C215.977 179.856 217.67 181.392 219.63 181.217C219.653 181.217 219.676 181.213 219.699 181.213C221.425 181.057 222.746 179.613 222.746 177.889Z" fill="#BA5D3F"/>
<path d="M234.245 176.023V125.58C234.245 123.439 232.248 121.844 230.154 122.33C230.131 122.334 230.103 122.339 230.08 122.348C228.562 122.696 227.476 124.044 227.476 125.599V176.041C227.476 178.246 229.588 179.837 231.723 179.255C231.746 179.246 231.774 179.241 231.797 179.237C233.246 178.833 234.245 177.517 234.245 176.023Z" fill="#BA5D3F"/>
<path d="M186.145 122.348C186.122 122.343 186.095 122.339 186.072 122.33C186.007 122.316 185.938 122.302 185.874 122.288C184.332 122.554 183.099 123.898 183.099 125.58V176.023C183.099 177.517 184.097 178.833 185.542 179.232C185.565 179.241 185.593 179.246 185.616 179.251C185.731 179.283 185.841 179.306 185.956 179.324C187.503 179.063 188.745 177.733 188.745 176.037V125.599C188.75 124.04 187.668 122.696 186.145 122.348Z" fill="#7A2714"/>
<path d="M197.405 123.976C195.827 124.232 194.603 125.594 194.603 127.263V177.884C194.603 179.539 195.818 180.933 197.442 181.181C199.02 180.924 200.253 179.567 200.253 177.893V127.272C200.249 125.612 199.029 124.223 197.405 123.976Z" fill="#7A2714"/>
<path d="M211.495 178.379V127.708C211.495 126.043 210.266 124.677 208.67 124.429C207.073 124.677 205.844 126.043 205.844 127.708V178.379C205.844 180.039 207.068 181.419 208.67 181.662C210.271 181.419 211.495 180.044 211.495 178.379Z" fill="#7A2714"/>
<path d="M219.939 123.976C218.314 124.223 217.09 125.612 217.09 127.272V177.893C217.09 179.567 218.324 180.924 219.902 181.181C221.526 180.933 222.741 179.539 222.741 177.884V127.268C222.746 125.594 221.517 124.232 219.939 123.976Z" fill="#7A2714"/>
<path d="M231.47 122.288C231.406 122.297 231.337 122.311 231.272 122.33C231.249 122.334 231.222 122.339 231.199 122.348C229.68 122.696 228.594 124.044 228.594 125.599V176.041C228.594 177.738 229.841 179.067 231.383 179.328C231.498 179.31 231.608 179.287 231.723 179.255C231.746 179.246 231.774 179.241 231.797 179.237C233.242 178.838 234.24 177.522 234.24 176.027V125.58C234.245 123.898 233.012 122.554 231.47 122.288Z" fill="#7A2714"/>
<path d="M202.849 151.306L196.775 152.558C196.664 152.58 196.637 152.732 196.738 152.787L198.496 153.795C198.555 153.832 198.574 153.905 198.542 153.965L195.532 159.16C195.509 159.201 195.509 159.256 195.541 159.297L198.611 163.387C198.666 163.46 198.776 163.451 198.818 163.373L202.839 156.436C202.876 156.377 202.95 156.358 203.01 156.39L204.763 157.399C204.864 157.454 204.979 157.362 204.942 157.252L202.996 151.388C202.973 151.329 202.908 151.297 202.849 151.306Z" fill="#7A2714"/>
<path d="M201.928 158.72L199.209 163.41C199.163 163.492 199.223 163.598 199.315 163.598H205.826C205.895 163.598 205.95 163.543 205.95 163.474V158.784C205.95 158.715 205.895 158.66 205.826 158.66H202.034C201.993 158.655 201.951 158.678 201.928 158.72Z" fill="#7A2714"/>
<path d="M208.849 161.182L212.972 165.794C213.05 165.881 213.188 165.826 213.188 165.711V163.694C213.188 163.625 213.244 163.57 213.313 163.57H219.331C219.382 163.57 219.428 163.543 219.446 163.497L221.466 158.807C221.503 158.724 221.443 158.632 221.351 158.632H213.313C213.244 158.632 213.188 158.577 213.188 158.509V156.491C213.188 156.377 213.046 156.322 212.972 156.409L208.849 161.021C208.808 161.062 208.808 161.131 208.849 161.182Z" fill="#7A2714"/>
<path d="M215.751 158.266H221.19C221.287 158.266 221.347 158.16 221.296 158.078L218.043 152.461C218.006 152.402 217.932 152.383 217.873 152.415L213.796 154.763C213.736 154.795 213.717 154.873 213.75 154.932L215.646 158.206C215.664 158.243 215.705 158.266 215.751 158.266Z" fill="#7A2714"/>
<path d="M214.514 150.921L216.465 145.057C216.501 144.947 216.382 144.855 216.285 144.91L214.532 145.919C214.472 145.951 214.394 145.932 214.362 145.873L211.352 140.678C211.329 140.637 211.279 140.609 211.228 140.619L206.139 141.219C206.051 141.228 206.001 141.329 206.047 141.407L210.068 148.344C210.101 148.404 210.082 148.482 210.022 148.514L208.269 149.522C208.168 149.582 208.196 149.729 208.306 149.752L214.375 151.003C214.431 151.012 214.495 150.98 214.514 150.921Z" fill="#7A2714"/>
<path d="M208.532 146.423L205.812 141.733C205.766 141.65 205.646 141.65 205.596 141.733L202.338 147.349C202.301 147.409 202.324 147.487 202.384 147.519L206.461 149.866C206.521 149.903 206.599 149.88 206.631 149.82L208.527 146.547C208.555 146.51 208.555 146.46 208.532 146.423Z" fill="#7A2714"/>
<path d="M202.08 150.072L196.006 151.324C195.896 151.347 195.868 151.498 195.969 151.553L197.723 152.562C197.782 152.594 197.801 152.672 197.769 152.732L194.759 157.926C194.736 157.968 194.736 158.023 194.768 158.064L197.838 162.154C197.893 162.227 197.999 162.218 198.045 162.14L202.066 155.203C202.099 155.143 202.177 155.125 202.237 155.157L203.99 156.166C204.091 156.221 204.206 156.129 204.169 156.019L202.223 150.155C202.204 150.095 202.145 150.059 202.08 150.072Z" fill="white"/>
<path d="M201.165 157.482L198.445 162.172C198.399 162.254 198.459 162.36 198.551 162.36H205.062C205.131 162.36 205.186 162.305 205.186 162.236V157.546C205.186 157.477 205.131 157.422 205.062 157.422H201.27C201.224 157.422 201.183 157.445 201.165 157.482Z" fill="white"/>
<path d="M208.085 159.944L212.208 164.556C212.286 164.643 212.424 164.588 212.424 164.474V162.456C212.424 162.387 212.48 162.332 212.549 162.332H218.567C218.618 162.332 218.664 162.305 218.683 162.259L220.703 157.569C220.739 157.486 220.68 157.395 220.588 157.395H212.549C212.48 157.395 212.424 157.339 212.424 157.271V155.253C212.424 155.139 212.282 155.084 212.208 155.171L208.085 159.783C208.044 159.824 208.044 159.898 208.085 159.944Z" fill="white"/>
<path d="M214.983 157.032H220.422C220.519 157.032 220.578 156.927 220.528 156.844L217.27 151.228C217.233 151.168 217.159 151.15 217.1 151.182L213.023 153.529C212.963 153.562 212.944 153.639 212.977 153.699L214.872 156.973C214.895 157.009 214.937 157.032 214.983 157.032Z" fill="white"/>
<path d="M213.745 149.683L215.692 143.819C215.728 143.709 215.609 143.617 215.512 143.672L213.759 144.681C213.699 144.713 213.621 144.694 213.589 144.635L210.579 139.44C210.556 139.399 210.506 139.371 210.455 139.381L205.366 139.981C205.278 139.99 205.228 140.091 205.274 140.165L209.295 147.101C209.328 147.161 209.309 147.239 209.249 147.271L207.496 148.28C207.395 148.335 207.423 148.486 207.533 148.509L213.607 149.761C213.662 149.779 213.727 149.742 213.745 149.683Z" fill="white"/>
<path d="M207.763 145.19L205.044 140.499C204.998 140.417 204.873 140.417 204.827 140.499L201.574 146.116C201.537 146.175 201.56 146.253 201.62 146.285L205.697 148.633C205.757 148.665 205.835 148.647 205.867 148.587L207.763 145.313C207.786 145.272 207.786 145.226 207.763 145.19Z" fill="white"/>
<path d="M237.852 114.489C237.852 117.942 224.54 120.739 208.113 120.739C191.69 120.739 178.373 117.942 178.373 114.489C178.373 111.037 191.685 108.24 208.113 108.24C224.536 108.24 237.852 111.042 237.852 114.489Z" fill="#511107"/>
<path d="M179.123 115.888C182.146 113.109 193.977 111.037 208.113 111.037C222.249 111.037 234.079 113.109 237.102 115.888C237.59 115.439 237.852 114.971 237.852 114.489C237.852 111.037 224.54 108.24 208.113 108.24C191.69 108.24 178.373 111.037 178.373 114.489C178.378 114.971 178.635 115.439 179.123 115.888Z" fill="#7A2714"/>
<path d="M183.274 135.245L174.784 133.342L174.425 133.434L174.232 133.219L173.749 133.109L160.749 190.612L161.076 190.685L161.541 190.644L161.683 190.823L170.279 192.753C170.463 192.9 170.666 193 170.877 193.051C174.255 193.807 179.919 181.483 183.531 165.519C187.139 149.554 187.328 135.997 183.946 135.24C183.729 135.185 183.508 135.19 183.274 135.245Z" fill="#A34F31"/>
<path d="M183.513 165.588C187.121 149.623 187.309 136.066 183.927 135.309C183.711 135.259 183.508 135.19 183.274 135.245C183.274 135.245 176.905 133.815 175.81 133.572C182.547 138.45 181.857 180.337 170.274 192.748C173.657 193.505 179.905 181.552 183.513 165.588Z" fill="#8E361B"/>
<path d="M182.261 165.225C178.884 180.177 173.698 191.937 170.279 192.748C170.463 192.895 170.666 192.996 170.877 193.046C174.255 193.803 179.919 181.479 183.531 165.514C187.139 149.55 187.328 135.992 183.946 135.236C183.729 135.185 183.508 135.195 183.274 135.25C186.016 137.437 185.639 150.274 182.261 165.225Z" fill="#7A2714"/>
<path d="M170.808 192.867C174.227 192.056 179.409 180.296 182.791 165.345C186.168 150.393 186.545 137.556 183.808 135.364C183.946 135.332 184.079 135.318 184.208 135.323C184.125 135.286 184.038 135.254 183.95 135.236C183.734 135.185 183.513 135.195 183.278 135.25C186.021 137.441 185.644 150.279 182.261 165.23C178.884 180.181 173.698 191.941 170.279 192.753C170.463 192.9 170.666 193 170.877 193.051C170.965 193.069 171.057 193.078 171.149 193.083C171.029 193.023 170.914 192.955 170.808 192.867Z" fill="#BA5D3F"/>
<path d="M173.785 132.953C177.163 133.709 176.979 147.267 173.371 163.231C169.764 179.195 164.099 191.524 160.722 190.763C157.344 190.007 157.528 176.449 161.136 160.485C164.739 144.52 170.403 132.196 173.785 132.953Z" fill="#BA5D3F"/>
<path d="M169.046 147.578C170.679 147.945 170.592 154.497 168.843 162.218C167.099 169.934 164.362 175.894 162.728 175.528C161.094 175.161 161.186 168.609 162.93 160.888C164.674 153.172 167.412 147.212 169.046 147.578Z" fill="#8E361B"/>
<path d="M164.053 161.14C165.595 154.332 167.905 148.89 169.552 147.959C169.409 147.753 169.239 147.62 169.05 147.578C167.417 147.212 164.679 153.172 162.935 160.888C161.191 168.604 161.099 175.161 162.733 175.528C162.926 175.569 163.133 175.523 163.354 175.399C162.263 173.854 162.512 167.953 164.053 161.14Z" fill="#7A2714"/>
<path d="M172.005 162.924C168.641 177.802 163.496 189.516 160.073 190.433C160.271 190.603 160.482 190.713 160.713 190.763C164.09 191.52 169.755 179.195 173.362 163.231C176.97 147.267 177.158 133.709 173.776 132.953C173.546 132.902 173.307 132.911 173.054 132.98C175.759 135.268 175.368 148.051 172.005 162.924Z" fill="#E87D60"/>
<path d="M173.367 163.231C170.017 178.054 164.895 189.736 161.476 190.726C161.683 190.91 161.904 191.029 162.148 191.084C165.526 191.841 171.19 179.516 174.802 163.552C178.41 147.588 178.599 134.03 175.217 133.274C174.973 133.219 174.72 133.232 174.457 133.31C177.117 135.667 176.717 148.408 173.367 163.231Z" fill="#7A2714"/>
<path d="M162.07 190.859C165.489 189.869 170.61 178.182 173.96 163.364C177.31 148.541 177.711 135.8 175.046 133.443C175.203 133.397 175.359 133.374 175.511 133.374C175.414 133.329 175.318 133.292 175.217 133.269C174.973 133.214 174.72 133.228 174.457 133.306C177.122 135.662 176.721 148.408 173.371 163.226C170.021 178.049 164.9 189.731 161.481 190.722C161.688 190.905 161.909 191.024 162.153 191.079C162.254 191.102 162.36 191.111 162.466 191.111C162.323 191.056 162.19 190.969 162.07 190.859Z" fill="#A34F31"/>
<path d="M168.42 151.851L167.96 153.887L162.898 152.75C161.541 152.447 160.183 153.3 159.875 154.653L157.487 165.216C157.179 166.569 158.039 167.921 159.397 168.229L164.458 169.366L163.998 171.401L158.936 170.264C156.452 169.705 154.882 167.238 155.444 164.758L157.832 154.199C158.393 151.723 160.869 150.16 163.358 150.719L168.42 151.851Z" fill="#414042"/>
<path d="M161.909 152.53C160.551 152.227 159.194 153.08 158.886 154.433L156.498 164.996C156.194 166.349 157.05 167.701 158.407 168.004L159.396 168.224C158.034 167.917 157.179 166.569 157.487 165.212L159.875 154.648C160.183 153.296 161.536 152.438 162.898 152.745L161.909 152.53Z" fill="#303030"/>
<path d="M164.154 168.499L163.342 172.096L164.5 172.355L165.313 168.759L164.154 168.499Z" fill="#303030"/>
<path d="M168.126 150.937L167.313 154.533L168.471 154.793L169.284 151.197L168.126 150.937Z" fill="#303030"/>
<path d="M225.571 115.25L224.641 115.59L224.329 113.646L222.322 114.595L221.752 112.683L220.275 113.797L219.888 112.188L218.613 114.081L218.931 115.924C218.931 115.924 220.693 117.066 221.397 117.529C222.101 117.997 223.473 118.497 223.735 118.364C223.997 118.231 225.019 117.263 225.019 117.263L225.571 115.25Z" fill="#ED9E77"/>
<path d="M219.888 112.183L219.801 114.632L221.448 114.123L221.485 116.576L224.057 114.434L224.163 116.75L225.571 115.255C225.47 117.103 224.964 119.056 224.379 120.133C223.192 122.32 220.45 123.127 218.255 121.944C216.06 120.761 215.25 118.029 216.437 115.842C217.021 114.765 218.388 113.274 219.888 112.183Z" fill="#F4B18C"/>
<path d="M222.847 119.102C223.56 118.267 223.804 117.644 224.158 116.745L225.566 115.25C225.465 117.098 224.959 119.051 224.375 120.129C223.187 122.316 220.445 123.123 218.25 121.94C217.035 121.284 216.244 120.152 215.981 118.905C216.037 118.969 219.465 123.072 222.847 119.102Z" fill="#ED9E77"/>
<path d="M212.526 114.916L215.517 116.424L214.997 114.026L216.718 114.15L216.073 111.789C214.311 111.037 212.507 110.73 211.559 111.564C210.611 112.399 210.699 114.224 211.233 116.053L212.944 117.194L212.526 114.916Z" fill="#F4B18C"/>
<path d="M211.233 116.057L212.944 117.199L212.88 116.851C211.187 114.384 211.559 111.569 211.559 111.569C210.611 112.399 210.699 114.224 211.233 116.057Z" fill="#ED9E77"/>
<path d="M219.074 119.083C219.074 119.083 218.471 119.358 218.489 119.579C218.508 119.803 218.66 120.33 219.074 120.142C219.483 119.959 219.64 118.932 219.074 119.083Z" fill="#ED9E77"/>
<path d="M220.583 119.794C220.583 119.794 220.284 119.418 220.127 119.469C219.971 119.519 219.621 119.721 219.828 119.982C220.031 120.239 220.79 120.17 220.583 119.794Z" fill="#ED9E77"/>
<path d="M219.663 118.895C219.663 118.895 219.966 119.125 220.072 119.056C220.183 118.987 220.408 118.762 220.201 118.607C219.994 118.451 219.428 118.652 219.663 118.895Z" fill="#ED9E77"/>
<path d="M215.231 113.187C215.231 113.187 215.512 113.499 215.646 113.444C215.779 113.394 216.073 113.197 215.88 112.981C215.682 112.775 215.029 112.876 215.231 113.187Z" fill="#ED9E77"/>
<path d="M215.374 112.142C215.374 112.142 215.199 112.394 215.264 112.481C215.323 112.564 215.517 112.738 215.632 112.564C215.747 112.39 215.563 111.945 215.374 112.142Z" fill="#ED9E77"/>
<path d="M215.001 112.866C215.001 112.866 215.084 112.642 215.02 112.587C214.955 112.536 214.776 112.44 214.721 112.596C214.67 112.752 214.9 113.054 215.001 112.866Z" fill="#ED9E77"/>
<path d="M205.2 96.6452C205.2 96.6452 204.418 96.1913 203.198 95.0176C203.097 95.0726 202.987 95.1322 202.862 95.1827C200.865 96.0538 200.005 94.5545 200.005 94.5545C200.005 94.5545 200.286 96.9157 197.976 97.3375C195.67 97.7548 195.367 95.7053 195.367 95.7053C195.367 95.7053 192.242 96.9157 191.777 94.7654C191.313 92.6151 193.116 91.3222 193.116 91.3222C191.557 91.148 191.856 89.58 191.856 89.58C190.632 89.1994 189.845 89.8917 189.845 89.8917C188.372 88.9839 186.122 89.6487 185.46 90.8316C184.797 92.0145 185.17 93.3212 185.17 93.3212C184.466 93.986 184.479 94.6417 184.479 94.6417C180.384 96.4481 183.163 99.6208 183.163 99.6208C183.163 99.6208 183.366 102.257 185.073 102.986C186.78 103.715 189.78 102.679 189.78 102.679C193.397 105.072 195.854 101.835 195.854 101.835C196.678 102.289 197.534 101.689 197.534 101.689C200.93 103.422 202.568 100.684 202.568 100.684C202.568 100.684 204.731 101.372 205.794 99.5933C206.76 97.9932 205.2 96.6452 205.2 96.6452Z" fill="#37B34A"/>
<path d="M200.796 110.148C201.013 107.892 203.447 106.191 202.95 103.211C202.458 100.231 201.634 102.569 201.634 102.569C201.634 102.569 201.832 104.362 201.026 105.338C200.221 106.315 200.773 104.082 200.336 102.991L199.563 103.614C199.563 103.614 199.641 104.682 199.476 105.783C199.31 106.883 199.108 107.708 199.342 108.259C199.577 108.809 198.049 107.892 198.293 103.775L197.525 103.862C197.525 103.862 197.368 105.155 197.032 105.416C196.696 105.673 195.505 103.096 195.505 103.096L194.552 103.651C194.552 103.651 195.624 105.732 195.376 106.383C195.132 107.034 192.863 103.921 192.863 103.921L191.883 104.357C191.883 104.357 194.695 106.851 194.879 107.41C195.063 107.97 189.596 103.981 189.026 103.44C188.455 102.899 187.774 104.421 187.774 104.421C187.774 104.421 190.811 106.406 192.84 108.231C192.84 108.231 194.396 107.8 194.359 108.956C194.359 108.956 195.813 108.713 196.02 109.671C196.227 110.624 195.38 111.152 195.38 111.152C195.38 111.152 196.42 112.422 194.943 112.637C194.916 113.16 194.883 113.595 195.067 113.912C195.56 114.769 199.66 114.975 200.99 113.834C202.319 112.692 200.58 112.403 200.796 110.148Z" fill="#8BC53F"/>
<path d="M205.669 97.1954C205.435 96.8515 205.2 96.6452 205.2 96.6452C205.2 96.6452 204.418 96.1913 203.198 95.0176C203.097 95.0726 202.987 95.1322 202.862 95.1827C200.865 96.0538 200.005 94.5545 200.005 94.5545C200.005 94.5545 200.286 96.9157 197.976 97.3375C195.67 97.7548 195.367 95.7053 195.367 95.7053C195.367 95.7053 192.242 96.9157 191.777 94.7654C191.313 92.6151 193.116 91.3222 193.116 91.3222C192.261 91.2259 191.966 90.7124 191.874 90.2677C190.889 90.4969 189.822 91.1526 189.104 92.7527C189.104 92.7527 188.027 92.5693 187.475 93.5413C187.475 93.5413 187.415 93.555 187.305 93.5825C185.952 93.9081 185.506 94.2519 185.137 94.0961C184.755 93.9356 185.17 93.3258 185.17 93.3258C184.466 93.9906 184.479 94.6462 184.479 94.6462C181.327 96.0354 182.248 98.2362 182.841 99.1761C182.975 99.387 183.09 99.5337 183.14 99.5933C183.154 99.607 183.159 99.6162 183.163 99.6208C183.163 99.6208 183.163 99.6208 183.163 99.6254V99.63V99.6346C183.163 99.6391 183.163 99.6391 183.163 99.6437C183.173 99.7492 183.219 100.166 183.366 100.68C183.421 100.785 183.458 100.84 183.458 100.84C183.458 100.84 183.449 100.854 183.43 100.886C183.683 101.67 184.166 102.596 185.073 102.981C186.78 103.71 189.78 102.674 189.78 102.674C193.397 105.068 195.854 101.831 195.854 101.831C196.678 102.285 197.534 101.684 197.534 101.684C200.93 103.417 202.568 100.68 202.568 100.68C202.568 100.68 204.28 101.225 205.407 100.093C205.72 98.9514 205.472 97.7318 205.472 97.7318C205.472 97.7318 205.573 97.5209 205.669 97.1954Z" fill="#1C993C"/>
<path d="M204.238 93.8714C204.086 94.3161 203.714 94.8113 202.862 95.1827C200.865 96.0538 200.005 94.5545 200.005 94.5545C200.005 94.5545 200.286 96.9157 197.976 97.3375C195.67 97.7548 195.367 95.7053 195.367 95.7053C195.367 95.7053 192.242 96.9157 191.777 94.7654C191.313 92.6152 193.116 91.3222 193.116 91.3222C192.633 91.2672 192.33 91.0792 192.141 90.8454C191.29 91.1572 190.434 91.8357 189.826 93.1974C189.826 93.1974 188.75 93.014 188.197 93.986C188.197 93.986 185.05 94.6279 183.918 96.8516C182.786 99.0752 184.18 101.294 184.18 101.294C184.18 101.294 183.048 103.014 184.41 104.293C185.924 105.714 187.815 104.467 187.815 104.467C187.815 104.467 189.923 106.727 192.937 104.068C192.937 104.068 193.926 104.412 194.594 103.752C194.594 103.752 197.842 106.2 200.668 102.917C200.668 102.917 203.838 103.101 205.283 101.936C206.728 100.772 206.203 98.1812 206.203 98.1812C206.203 98.1812 207.809 94.7746 204.238 93.8714Z" fill="#37B34A"/>
<path d="M200.235 104.687C200.023 105.7 200.235 106.553 201.072 105.687C201.91 104.82 202.053 103.669 202.066 103.403C202.076 103.137 202.876 102.807 202.876 102.807L202.246 102.243C202.246 102.243 202.03 102.303 201.712 102.39C201.666 102.495 201.638 102.569 201.638 102.569C201.638 102.569 201.836 104.361 201.031 105.338C200.226 106.315 200.778 104.082 200.341 102.991L199.568 103.614C199.568 103.614 199.572 103.683 199.577 103.807L199.595 103.866C199.6 103.862 200.447 103.674 200.235 104.687Z" fill="#79AA39"/>
<path d="M198.27 104.494C198.27 104.49 198.27 104.481 198.27 104.476C198.192 104.444 197.819 104.279 197.488 104.123C197.423 104.517 197.276 105.223 197.032 105.411C196.765 105.618 195.946 104.008 195.629 103.357C195.551 103.344 195.477 103.334 195.422 103.334C195.081 103.348 194.667 103.678 194.598 103.738C194.607 103.752 194.612 103.765 194.621 103.784C194.764 103.94 195.33 104.54 195.859 104.701C196.466 104.889 196.328 105.645 196.913 105.737C197.497 105.824 197.35 104.948 197.695 104.811C197.994 104.692 198.21 104.536 198.27 104.494Z" fill="#79AA39"/>
<path d="M193.54 105.127C194.175 105.998 194.989 106.819 195.394 106.691C195.799 106.562 195.316 105.54 195.316 105.54C195.408 105.884 195.449 106.195 195.376 106.388C195.132 107.039 192.863 103.926 192.863 103.926L192.164 104.233C192.173 104.43 192.182 104.577 192.182 104.577L192.192 104.632C192.196 104.632 192.909 104.256 193.54 105.127Z" fill="#79AA39"/>
<path d="M194.87 107.456C194.584 107.557 190.917 104.925 189.518 103.839C189.334 103.834 189.113 103.83 189.067 103.843C188.984 103.866 188.404 104.517 188.404 104.517L188.8 105.113C188.865 105.132 189.918 105.7 190.783 105.7C191.649 105.705 194.409 107.823 194.87 107.456Z" fill="#79AA39"/>
<path d="M200.658 95.1735C200.557 95.3385 200.506 95.444 200.506 95.444C200.566 95.366 200.645 95.2927 200.737 95.2193C200.709 95.2056 200.681 95.1918 200.658 95.1735Z" fill="#1C993C"/>
<path d="M204.238 93.8714C204.16 94.1006 204.022 94.3436 203.792 94.5729C204.169 94.66 204.514 94.825 204.786 95.0956C205.945 96.2464 205.145 98.0299 205.145 98.0299C205.531 98.7038 204.837 100.717 203.074 101.336C201.312 101.954 199.904 101.083 199.904 101.083C199.904 101.083 198.707 103.188 196.476 102.917C194.248 102.642 193.264 101.18 193.264 101.18C193.264 101.18 193.236 103.247 190.954 103.802C188.671 104.362 187.774 102.133 187.774 102.133C187.774 102.133 187.36 103.72 185.791 103.619C184.222 103.523 184.171 101.29 184.171 101.29C184.171 101.29 183.039 103.009 184.401 104.288C185.915 105.709 187.806 104.462 187.806 104.462C187.806 104.462 189.914 106.723 192.928 104.064C192.928 104.064 193.917 104.407 194.584 103.747C194.584 103.747 197.833 106.195 200.658 102.913C200.658 102.913 203.829 103.096 205.274 101.932C206.719 100.767 206.194 98.1766 206.194 98.1766C206.194 98.1766 207.809 94.7746 204.238 93.8714Z" fill="#1C993C"/>
<path d="M200.796 110.148C200.861 109.483 201.114 108.868 201.431 108.259C201.431 108.259 200.332 108.96 200.042 110.404C199.899 111.101 200.143 111.642 199.821 112.119C199.398 112.743 197.373 114.361 194.929 113.169C194.929 113.458 194.957 113.71 195.072 113.912C195.564 114.769 199.664 114.975 200.994 113.834C202.319 112.692 200.58 112.403 200.796 110.148Z" fill="#79AA39"/>
<path d="M209.658 92.7392L206.129 106.065L208.821 106.773L212.35 93.4468L209.658 92.7392Z" fill="#FDDA03"/>
<path d="M211.32 93.1745L209.13 101.45L207.464 101.01L206.13 106.063L208.817 106.769L212.346 93.445L211.32 93.1745Z" fill="#FF9B00"/>
<path d="M219.299 99.6804C218.043 102.23 215.181 103.715 212.263 103.114C209.341 102.514 207.312 100.015 207.174 97.1816L203.194 96.361L203.474 113.366L209.861 114.682L216.248 115.998L223.279 100.496L219.299 99.6804Z" fill="#E9264B"/>
<path d="M210.671 102.784C210.943 102.839 211.21 102.876 211.481 102.899C208.987 102.046 207.303 99.7538 207.174 97.1771L205.582 96.847C205.715 99.685 207.749 102.184 210.671 102.784Z" fill="#CD0D3B"/>
<path d="M220.675 99.9601L217.247 107.516C213.819 114.265 203.479 113.362 203.479 113.362L209.866 114.677L216.253 115.993L223.284 100.492L220.675 99.9601Z" fill="#CD0D3B"/>
<path d="M184.056 110.166C184.056 110.166 185.174 106.411 187.226 104.022C188.276 102.803 193.393 105.998 192.85 106.805C190.843 109.79 190.194 113.513 190.194 113.513C190.194 113.513 186.361 113.834 185.874 113.563C185.386 113.288 184.056 110.166 184.056 110.166Z" fill="#FFF4C5"/>
<path d="M190.291 113.05C190.535 111.963 191.271 109.153 192.85 106.805C193.029 106.539 192.601 106.021 191.906 105.485C191.129 106.516 190.296 107.851 188.579 108.199C185.989 108.726 184.917 107.896 184.917 107.896C184.788 108.194 184.64 108.525 184.562 108.726C184.226 109.579 184.051 110.161 184.051 110.161C184.051 110.161 185.381 113.284 185.874 113.559C186.237 113.76 188.446 113.637 189.559 113.559C189.79 113.412 190.033 113.238 190.291 113.05Z" fill="#FFEA92"/>
<path d="M189.734 111.908C189.734 111.908 192.817 109.79 195.242 112.839C196.931 114.962 196.604 119.189 195.804 119.812C194.842 120.56 194.676 118.212 193.517 116.479C192.256 114.595 189.918 117.217 189.918 117.217L189.734 111.908Z" fill="#F4D229"/>
<path d="M195.679 116.346C195.026 113.174 192.836 113.673 192.716 112.646C192.596 111.624 193.77 111.587 193.77 111.587C191.727 110.533 189.73 111.904 189.73 111.904L189.914 117.208C189.914 117.208 192.251 114.586 193.512 116.47C194.552 118.024 194.791 120.078 195.523 119.941C195.578 119.913 196.315 119.414 195.679 116.346Z" fill="#E9B100"/>
<path d="M182.096 109.584C181.99 110.982 182.082 112.44 182.381 113.939C183.495 119.496 186.564 125.388 191.621 127.657C196.678 129.927 199.618 128.606 200.069 127.744C200.428 127.061 200.511 126.704 199.582 125.2C198.647 123.696 192.859 119.537 191.313 116.062C190.691 114.664 190.406 113.32 190.356 112.041L182.096 109.584Z" fill="#F4D229"/>
<path d="M185.525 122.036C185.727 122.362 185.939 122.678 186.16 122.985C186.234 123.091 186.312 123.196 186.39 123.297C186.487 123.425 186.583 123.549 186.68 123.673C186.984 124.058 187.306 124.429 187.642 124.782C188.792 125.988 190.117 126.983 191.622 127.653C191.696 127.685 191.765 127.717 191.834 127.749C191.857 127.758 191.875 127.767 191.898 127.776C191.949 127.799 191.999 127.818 192.05 127.841C192.073 127.85 192.096 127.859 192.119 127.868C192.174 127.891 192.229 127.914 192.285 127.937C192.298 127.941 192.312 127.946 192.326 127.955C192.395 127.983 192.464 128.01 192.533 128.033C192.551 128.038 192.565 128.047 192.584 128.051C192.634 128.07 192.685 128.093 192.74 128.111C192.763 128.12 192.782 128.125 192.805 128.134C192.855 128.152 192.906 128.171 192.952 128.189C192.97 128.194 192.989 128.203 193.002 128.207C193.067 128.23 193.136 128.253 193.2 128.276C193.209 128.281 193.219 128.281 193.228 128.285C193.283 128.304 193.338 128.322 193.398 128.34C193.417 128.345 193.44 128.354 193.458 128.359C193.504 128.372 193.55 128.386 193.596 128.4C193.614 128.404 193.633 128.409 193.651 128.418C193.711 128.437 193.766 128.455 193.826 128.469C193.831 128.469 193.835 128.473 193.84 128.473C193.904 128.492 193.964 128.51 194.024 128.524C194.042 128.528 194.056 128.533 194.075 128.537C194.121 128.551 194.167 128.56 194.208 128.574C194.226 128.579 194.245 128.583 194.268 128.588C194.314 128.602 194.36 128.611 194.406 128.62C194.42 128.625 194.434 128.625 194.447 128.629C194.507 128.643 194.567 128.657 194.622 128.67C194.636 128.675 194.65 128.675 194.664 128.68C194.71 128.689 194.751 128.698 194.797 128.707C194.815 128.712 194.834 128.716 194.857 128.716C194.898 128.725 194.935 128.73 194.976 128.739C194.995 128.744 195.013 128.748 195.032 128.748C195.087 128.758 195.142 128.767 195.197 128.776C195.207 128.776 195.211 128.776 195.22 128.78C195.266 128.79 195.312 128.794 195.358 128.803C195.377 128.808 195.395 128.808 195.418 128.813C195.455 128.817 195.487 128.822 195.524 128.826C195.542 128.831 195.565 128.831 195.584 128.835C195.621 128.84 195.658 128.845 195.694 128.849C195.708 128.849 195.727 128.854 195.74 128.854C195.791 128.858 195.837 128.863 195.888 128.868C195.906 128.868 195.929 128.872 195.947 128.872C195.975 128.877 196.007 128.877 196.035 128.881C196.058 128.881 196.081 128.886 196.104 128.886C196.131 128.886 196.159 128.89 196.187 128.89C196.21 128.89 196.233 128.895 196.256 128.895C196.293 128.895 196.329 128.9 196.366 128.9C196.398 128.9 196.426 128.9 196.458 128.904C196.481 128.904 196.504 128.904 196.527 128.904C196.555 128.904 196.578 128.904 196.605 128.904C196.624 128.904 196.642 128.904 196.661 128.904C196.688 128.904 196.716 128.904 196.743 128.904C196.757 128.904 196.771 128.904 196.785 128.904C196.845 128.904 196.905 128.904 196.964 128.904C196.969 128.904 196.978 128.904 196.983 128.904C197.015 128.904 197.043 128.904 197.075 128.9C197.084 128.9 197.093 128.9 197.107 128.9C197.139 128.9 197.171 128.895 197.199 128.895C197.204 128.895 197.208 128.895 197.213 128.895C198.161 128.84 198.883 128.62 199.371 128.349L199.592 127.818C189.708 127.258 184.904 118.024 185.074 110.469L182.097 109.584C182.097 109.593 182.097 109.602 182.097 109.611C182.092 109.662 182.088 109.712 182.088 109.762C182.088 109.795 182.083 109.831 182.083 109.863C182.078 109.918 182.078 109.978 182.074 110.033C182.074 110.061 182.069 110.093 182.069 110.12C182.065 110.203 182.065 110.285 182.06 110.368C182.06 110.372 182.06 110.377 182.06 110.377C182.06 110.464 182.055 110.546 182.055 110.634C182.055 110.661 182.055 110.689 182.055 110.721C182.055 110.78 182.055 110.835 182.055 110.895C182.055 110.932 182.055 110.964 182.055 111C182.055 111.051 182.055 111.106 182.06 111.156C182.06 111.193 182.065 111.23 182.065 111.266C182.065 111.317 182.069 111.367 182.069 111.418C182.069 111.454 182.074 111.496 182.074 111.532C182.078 111.583 182.078 111.633 182.083 111.679C182.088 111.716 182.088 111.757 182.092 111.798C182.097 111.849 182.101 111.894 182.101 111.945C182.106 111.986 182.106 112.023 182.111 112.064C182.115 112.115 182.12 112.16 182.124 112.211C182.129 112.252 182.134 112.289 182.138 112.33C182.143 112.38 182.147 112.431 182.152 112.477C182.157 112.518 182.161 112.555 182.166 112.596C182.17 112.646 182.18 112.697 182.184 112.747C182.189 112.784 182.193 112.825 182.198 112.862C182.207 112.912 182.212 112.963 182.221 113.018C182.226 113.054 182.23 113.096 182.239 113.132C182.249 113.187 182.258 113.242 182.267 113.293C182.272 113.33 182.276 113.362 182.285 113.398C182.295 113.458 182.304 113.517 182.318 113.577C182.322 113.609 182.327 113.637 182.331 113.669C182.35 113.76 182.364 113.848 182.382 113.939C182.401 114.026 182.419 114.114 182.437 114.201C183.008 116.892 184.029 119.643 185.516 122.018C185.516 122.022 185.52 122.027 185.525 122.036Z" fill="#E9B100"/>
<path d="M199.108 127.121C198.859 127.588 198.924 128.106 199.25 128.281C199.577 128.455 200.046 128.217 200.295 127.749C200.543 127.281 200.479 126.763 200.152 126.589C199.825 126.415 199.356 126.653 199.108 127.121Z" fill="#561002"/>
<path d="M197.529 125.988C197.414 126.199 197.456 126.438 197.617 126.525C197.778 126.612 198.003 126.516 198.118 126.305C198.233 126.094 198.192 125.855 198.031 125.768C197.87 125.681 197.644 125.777 197.529 125.988Z" fill="#561002"/>
<path d="M196.439 124.948C196.374 125.062 196.397 125.2 196.489 125.246C196.581 125.296 196.706 125.241 196.77 125.122C196.834 125.007 196.811 124.87 196.719 124.824C196.627 124.778 196.503 124.833 196.439 124.948Z" fill="#561002"/>
<path d="M196.393 126.181C196.328 126.295 196.351 126.433 196.443 126.479C196.535 126.529 196.66 126.474 196.724 126.355C196.788 126.24 196.765 126.103 196.673 126.057C196.581 126.011 196.457 126.066 196.393 126.181Z" fill="#561002"/>
<path d="M192.596 124.627C192.468 124.604 192.343 124.663 192.325 124.764C192.307 124.865 192.399 124.966 192.527 124.989C192.656 125.012 192.781 124.952 192.799 124.851C192.817 124.75 192.725 124.649 192.596 124.627Z" fill="#561002"/>
<path d="M193.558 124.989C193.37 124.952 193.195 125.044 193.167 125.191C193.139 125.337 193.273 125.484 193.462 125.521C193.65 125.557 193.825 125.466 193.853 125.319C193.88 125.172 193.751 125.025 193.558 124.989Z" fill="#561002"/>
<path d="M189.026 122.375C187.48 120.468 187.098 117.323 187.604 114.375C188.105 111.427 189.734 111.904 189.734 111.904C189.684 110.702 188.883 110.904 188.759 110.835C188.635 110.771 188.266 110.762 187.677 110.689C187.088 110.615 187.167 110.712 187.038 110.707C186.909 110.702 185.045 111.019 185.045 111.019C185.045 111.019 183.136 112.082 182.179 112.669C182.229 113.086 182.298 113.508 182.381 113.935C182.965 116.851 184.088 119.854 185.749 122.38C186.38 123.004 186.992 123.558 187.484 123.953C189.182 125.31 190.572 124.287 189.026 122.375Z" fill="#E9B100"/>
<path d="M189.771 111.706C189.771 111.706 190.797 107.543 193.936 107.75C197.078 107.956 200.967 111.477 198.463 115.792C198.463 115.792 198.606 111.78 195.431 110.097C192.256 108.415 190.351 112.426 190.632 114.063C190.632 114.068 189.375 113.751 189.771 111.706Z" fill="#F4D229"/>
<path d="M189.734 111.908C189.734 111.908 189.587 110.78 188.358 111.11C187.13 111.441 185.119 116.759 185.11 120.798C185.105 124.837 184.019 123.976 182.192 121.069C180.37 118.162 179.91 113.912 180.494 111.055C181.079 108.194 182.993 107.731 186.062 109.419C186.058 109.419 190.227 109.565 189.734 111.908Z" fill="#F8E16E"/>
<path d="M193.936 107.75C190.793 107.543 189.771 111.706 189.771 111.706C189.757 111.771 189.748 111.835 189.739 111.894C189.849 111.665 191.391 108.836 194.469 109.203C197.663 109.579 198.965 113.774 198.463 115.796C200.971 111.482 197.078 107.961 193.936 107.75Z" fill="#F8E16E"/>
<path opacity="0.4" d="M188.358 111.106C189.587 110.776 189.734 111.904 189.734 111.904C189.739 111.876 189.744 111.853 189.748 111.826C189.771 111.546 189.739 110.441 187.815 110.469C185.616 110.501 183.826 115.636 183.992 118.309C184.236 122.256 182.197 121.06 182.197 121.06C184.019 123.966 185.105 124.828 185.114 120.789C185.114 116.754 187.13 111.436 188.358 111.106Z" fill="#E1BB1B"/>
<path d="M192.228 114.636C192.113 114.847 192.155 115.086 192.316 115.173C192.477 115.26 192.702 115.163 192.817 114.953C192.932 114.742 192.891 114.503 192.73 114.416C192.564 114.329 192.343 114.425 192.228 114.636Z" fill="#561002"/>
<path d="M191.391 114.865C191.326 114.98 191.349 115.118 191.441 115.163C191.534 115.214 191.658 115.159 191.722 115.04C191.787 114.925 191.764 114.787 191.672 114.742C191.58 114.691 191.455 114.746 191.391 114.865Z" fill="#561002"/>
<path d="M225.488 92.8352C223.358 89.8597 220.219 92.1292 221.062 95.1185C221.904 98.1078 224.849 97.7961 224.849 97.7961C225.207 99.2082 226.303 105.975 226.303 105.994C226.487 107.227 226.616 108.112 226.629 108.227C226.97 110.702 227.297 113.673 227.117 114.902C227.117 114.902 224.195 115.37 224.168 118.474C224.14 121.578 227.766 122.949 229.041 119.519C229.041 119.519 231.281 121.912 232.519 120.817C235.285 118.368 235.253 114.109 230.196 114.421C230.196 114.421 230.743 109.405 229.363 102.94C229.358 102.885 229.353 102.835 229.344 102.789C229.091 101.546 227.945 97.4568 227.945 97.4568C232.906 96.4344 231.815 92.3217 228.502 90.6804C227.02 89.9422 225.488 92.8352 225.488 92.8352Z" fill="#F9E4C0"/>
<path d="M224.849 97.7961C224.766 97.3651 224.614 96.8745 224.559 96.659C224.559 96.659 223.109 97.2596 221.595 96.2968C222.755 98.0161 224.849 97.7961 224.849 97.7961Z" fill="#F4D3A2"/>
<path d="M224.338 91.7904C224.338 91.7904 224.342 91.7812 224.352 91.7627C224.333 91.7489 224.31 91.7396 224.292 91.7258C224.31 91.7489 224.324 91.7673 224.338 91.7904Z" fill="#F4D3A2"/>
<path d="M229.28 91.1343C230.844 93.0416 230.587 95.6274 226.8 96.4069C226.8 96.4069 227.945 100.497 228.198 101.739C228.208 101.785 228.217 101.84 228.217 101.895C229.593 108.364 228.732 114.421 228.732 114.421C229.179 114.393 229.827 114.384 230.196 114.425C230.2 114.324 230.209 114.219 230.223 114.1C230.315 112.894 230.536 108.447 229.363 102.945C229.358 102.89 229.353 102.839 229.344 102.794C229.091 101.551 227.945 97.4614 227.945 97.4614C232.501 96.5215 231.958 92.982 229.28 91.1343Z" fill="#F4D3A2"/>
<path d="M231.374 119.771C230.131 120.872 228.083 117.85 228.083 117.85C227.379 119.744 225.769 120.798 224.641 120.28C225.663 121.954 228.056 122.174 229.041 119.519C229.041 119.519 231.281 121.912 232.519 120.817C234.659 118.918 235.124 115.938 232.874 114.833C233.67 116.227 233.012 118.318 231.374 119.771Z" fill="#F4D3A2"/>
<path d="M221.609 93.9861C221.609 93.9861 221.466 94.7196 221.683 94.8526C221.899 94.9856 222.493 95.1919 222.594 94.6875C222.69 94.1832 221.839 93.3625 221.609 93.9861Z" fill="#F4D3A2"/>
<path d="M223.261 93.0645C223.261 93.0645 222.713 93.092 222.658 93.2708C222.603 93.4496 222.557 93.9035 222.934 93.8852C223.312 93.8669 223.744 93.1195 223.261 93.0645Z" fill="#F4D3A2"/>
<path d="M221.827 93.3212C221.827 93.3212 222.241 93.1929 222.246 93.0507C222.255 92.904 222.2 92.551 221.914 92.6381C221.634 92.7206 221.445 93.3717 221.827 93.3212Z" fill="#F4D3A2"/>
<path d="M230.936 117.832C230.936 117.832 230.817 118.446 231.001 118.552C231.185 118.662 231.677 118.836 231.76 118.414C231.838 117.997 231.13 117.314 230.936 117.832Z" fill="#F4D3A2"/>
<path d="M232.317 117.066C232.317 117.066 231.861 117.089 231.815 117.236C231.769 117.383 231.732 117.763 232.045 117.749C232.354 117.731 232.717 117.112 232.317 117.066Z" fill="#F4D3A2"/>
<path d="M231.116 117.277C231.116 117.277 231.461 117.172 231.465 117.052C231.47 116.929 231.424 116.635 231.189 116.709C230.955 116.777 230.798 117.323 231.116 117.277Z" fill="#F4D3A2"/>
<path d="M192.007 110.395C192.007 110.395 193.254 111.826 194.147 113.307C195.044 114.787 195.137 115.104 194.851 116.644C194.571 118.144 192.905 119.015 194.041 120.253C195.178 121.491 196.333 122.137 195.703 124.076L199.126 123.159C199.126 123.159 200.424 116.855 200.097 115.993C199.775 115.131 198.095 112.651 198.095 112.651L195.877 110.459L192.007 110.395Z" fill="#FFEA92"/>
<path d="M195.698 124.086C198.243 122.219 195.91 120.78 195.896 120.564C195.877 120.349 198.169 116.864 197.009 114.71C195.85 112.555 193.245 113.059 193.084 112.986C192.923 112.912 193.254 111.578 192.007 110.395C192.132 110.207 194.014 104.715 202.803 109.281C202.803 109.281 210.906 107.777 211.168 114.907C211.403 121.321 205.913 124.058 203.852 124.672C202.08 125.2 200.341 125.337 198.62 125.03C197.828 124.883 196.77 124.659 195.698 124.086Z" fill="#ED1C24"/>
<path d="M202.798 109.281C202.798 109.281 210.901 107.777 211.164 114.907C211.398 121.321 205.909 124.058 203.847 124.672C202.076 125.2 200.336 125.337 198.615 125.03C198.155 124.947 197.603 124.837 197.005 124.645C203.875 124.938 207.51 120.046 207.206 114.943C206.898 109.836 202.798 109.281 202.798 109.281Z" fill="#C32127"/>
<path d="M208.186 110.968C208.186 110.968 207.51 110.207 205.278 110.294C203.047 110.381 202.237 110.23 201.427 109.662C200.617 109.093 199.02 108.786 197.575 108.855C197.575 108.855 199.641 109.13 200.355 109.474C201.068 109.817 200.98 110.134 200.585 110.17C200.189 110.203 199.6 110.377 199.411 110.546C199.411 110.546 202.347 110.262 204.809 111.583C204.809 111.583 204.606 111.188 204.266 110.982C203.93 110.771 206.061 110.303 208.186 110.968Z" fill="#C32127"/>
<path d="M202.826 110.23C202.826 110.23 204.063 106.411 201.077 103.697C201.077 103.697 199.697 103.697 199.853 105.407C199.853 105.407 202.366 106.833 202.168 110.083C202.168 110.083 202.412 110.679 202.826 110.23Z" fill="#37B34A"/>
<path d="M199.858 105.407C199.858 105.407 201.578 105.379 202.407 107.75C202.747 108.726 203.083 108.084 203.065 107.864C203.152 109.217 202.825 110.226 202.825 110.226C202.411 110.675 202.167 110.079 202.167 110.079C202.365 106.837 199.858 105.407 199.858 105.407Z" fill="#1C993C"/>
<path d="M227.596 120.647C227.596 120.647 227.531 120.399 227.407 119.968C227.283 119.537 227.099 118.928 226.859 118.199C226.74 117.836 226.616 117.442 226.473 117.025C226.33 116.612 226.183 116.172 226.022 115.723C225.861 115.273 225.695 114.81 225.52 114.338C225.346 113.871 225.166 113.394 224.987 112.917C224.803 112.44 224.618 111.968 224.434 111.5C224.25 111.033 224.062 110.579 223.882 110.134C223.703 109.694 223.519 109.267 223.344 108.864C223.174 108.46 223.003 108.08 222.851 107.731C222.543 107.03 222.267 106.452 222.074 106.053C221.881 105.65 221.761 105.421 221.761 105.421C221.761 105.421 221.825 105.668 221.95 106.099C222.074 106.53 222.258 107.14 222.497 107.869C222.617 108.231 222.741 108.625 222.884 109.043C223.026 109.455 223.174 109.895 223.335 110.345C223.496 110.794 223.661 111.257 223.836 111.729C224.011 112.202 224.191 112.674 224.37 113.151C224.554 113.623 224.743 114.1 224.922 114.567C225.106 115.035 225.295 115.489 225.474 115.934C225.654 116.374 225.838 116.8 226.013 117.204C226.183 117.607 226.353 117.988 226.505 118.336C226.813 119.038 227.085 119.615 227.283 120.014C227.476 120.422 227.596 120.647 227.596 120.647Z" fill="#87979B"/>
<path d="M228.751 115.709C228.751 115.709 228.659 115.714 228.498 115.737C228.337 115.755 228.116 115.792 227.849 115.851C227.586 115.906 227.283 115.984 226.961 116.08C226.8 116.126 226.634 116.181 226.468 116.236C226.303 116.291 226.137 116.356 225.967 116.415C225.801 116.479 225.635 116.543 225.474 116.612C225.313 116.681 225.157 116.75 225.005 116.819C224.701 116.961 224.425 117.103 224.191 117.236C223.956 117.369 223.763 117.493 223.634 117.58C223.5 117.671 223.427 117.726 223.427 117.726C223.427 117.726 223.519 117.722 223.68 117.699C223.841 117.681 224.062 117.644 224.329 117.584C224.591 117.529 224.895 117.451 225.217 117.355C225.378 117.305 225.543 117.254 225.709 117.199C225.875 117.144 226.04 117.08 226.211 117.02C226.376 116.956 226.542 116.892 226.703 116.823C226.864 116.754 227.02 116.686 227.172 116.612C227.476 116.47 227.752 116.328 227.987 116.195C228.221 116.062 228.415 115.938 228.544 115.851C228.677 115.769 228.751 115.709 228.751 115.709Z" fill="#87979B"/>
<path d="M228.949 113.806C228.949 113.806 228.829 113.82 228.626 113.857C228.424 113.893 228.134 113.953 227.794 114.04C227.453 114.127 227.062 114.237 226.648 114.37C226.441 114.434 226.224 114.508 226.013 114.581C225.796 114.655 225.58 114.737 225.359 114.82C225.143 114.902 224.927 114.989 224.715 115.076C224.503 115.163 224.296 115.251 224.099 115.342C223.698 115.521 223.335 115.695 223.022 115.86C222.713 116.025 222.456 116.168 222.281 116.278C222.106 116.383 222.005 116.452 222.005 116.452C222.005 116.452 222.124 116.438 222.327 116.401C222.529 116.365 222.819 116.305 223.16 116.218C223.5 116.131 223.891 116.021 224.306 115.888C224.513 115.819 224.729 115.75 224.941 115.672C225.157 115.599 225.373 115.516 225.589 115.434C225.806 115.351 226.022 115.264 226.234 115.177C226.445 115.09 226.652 115.003 226.85 114.911C227.251 114.732 227.614 114.554 227.927 114.393C228.24 114.228 228.493 114.086 228.668 113.976C228.852 113.871 228.949 113.806 228.949 113.806Z" fill="#87979B"/>
<path d="M228.672 112.082C228.672 112.082 228.544 112.101 228.323 112.147C228.102 112.192 227.789 112.261 227.416 112.357C227.043 112.454 226.616 112.582 226.16 112.729C225.935 112.802 225.7 112.88 225.461 112.963C225.226 113.045 224.987 113.137 224.747 113.224C224.508 113.316 224.273 113.407 224.043 113.504C223.809 113.595 223.583 113.696 223.367 113.793C222.93 113.985 222.525 114.178 222.184 114.352C221.844 114.526 221.563 114.682 221.365 114.797C221.172 114.911 221.061 114.98 221.061 114.98C221.061 114.98 221.19 114.962 221.411 114.916C221.632 114.87 221.945 114.801 222.318 114.705C222.69 114.609 223.118 114.48 223.574 114.334C223.799 114.26 224.034 114.182 224.273 114.095C224.508 114.013 224.747 113.921 224.987 113.834C225.226 113.742 225.461 113.65 225.695 113.554C225.925 113.458 226.155 113.362 226.372 113.265C226.809 113.073 227.214 112.88 227.554 112.706C227.895 112.532 228.175 112.376 228.373 112.261C228.562 112.156 228.672 112.082 228.672 112.082Z" fill="#87979B"/>
<path d="M228.567 110.294C228.567 110.294 228.424 110.317 228.171 110.372C227.922 110.427 227.568 110.514 227.149 110.629C226.731 110.744 226.247 110.89 225.732 111.06C225.474 111.147 225.212 111.234 224.945 111.33C224.678 111.427 224.407 111.528 224.135 111.629C223.868 111.734 223.597 111.835 223.335 111.945C223.072 112.05 222.815 112.16 222.566 112.266C222.069 112.481 221.609 112.692 221.223 112.885C220.831 113.077 220.514 113.247 220.293 113.375C220.072 113.499 219.948 113.577 219.948 113.577C219.948 113.577 220.095 113.554 220.344 113.499C220.592 113.444 220.946 113.357 221.365 113.242C221.784 113.128 222.267 112.981 222.782 112.811C223.04 112.724 223.302 112.637 223.569 112.541C223.836 112.445 224.108 112.344 224.379 112.243C224.646 112.137 224.918 112.037 225.18 111.927C225.442 111.821 225.7 111.711 225.948 111.606C226.445 111.39 226.905 111.179 227.292 110.987C227.683 110.794 228.001 110.624 228.226 110.501C228.442 110.372 228.567 110.294 228.567 110.294Z" fill="#87979B"/>
<path d="M228.424 108.52C228.424 108.52 228.263 108.552 227.991 108.616C227.715 108.68 227.324 108.781 226.864 108.914C225.935 109.176 224.72 109.579 223.528 110.033C222.332 110.487 221.154 110.991 220.288 111.413C219.856 111.619 219.497 111.807 219.248 111.94C219 112.073 218.862 112.156 218.862 112.156C218.862 112.156 219.023 112.124 219.295 112.059C219.571 111.995 219.962 111.899 220.422 111.761C221.351 111.5 222.562 111.097 223.758 110.643C224.954 110.184 226.128 109.685 226.993 109.258C227.425 109.052 227.784 108.864 228.033 108.731C228.286 108.602 228.424 108.52 228.424 108.52Z" fill="#87979B"/>
<path d="M228.668 106.599C228.668 106.599 228.484 106.64 228.162 106.723C227.84 106.805 227.384 106.929 226.841 107.094C225.755 107.415 224.324 107.901 222.916 108.437C221.508 108.974 220.118 109.556 219.092 110.042C218.577 110.281 218.153 110.491 217.859 110.643C217.564 110.794 217.399 110.886 217.399 110.886C217.399 110.886 217.583 110.845 217.905 110.762C218.227 110.679 218.683 110.556 219.225 110.391C220.311 110.07 221.743 109.584 223.151 109.047C224.559 108.511 225.948 107.924 226.974 107.443C227.49 107.204 227.913 106.993 228.208 106.842C228.502 106.695 228.668 106.599 228.668 106.599Z" fill="#87979B"/>
<path d="M231.742 120.968C232.772 122.825 228.967 124.228 228.967 124.228C228.967 124.228 225.194 125.713 224.72 123.641C224.246 121.573 226.537 117.887 226.537 117.887C226.537 117.887 230.711 119.111 231.742 120.968Z" fill="#A4B7BC"/>
<path d="M226.882 102.02C228.53 104.987 222.451 107.229 222.451 107.229C222.451 107.229 216.419 109.599 215.664 106.294C214.905 102.983 218.567 97.0963 218.567 97.0963C218.567 97.0963 225.23 99.0495 226.882 102.02Z" fill="#A4B7BC"/>
<path d="M217.771 105.485C218.328 107.91 221.72 107.282 223.486 106.773C222.884 107.062 222.451 107.222 222.451 107.222C222.451 107.222 216.419 109.593 215.664 106.287C214.905 102.977 218.567 97.09 218.567 97.09C218.567 97.09 219.124 97.255 219.957 97.5576C218.926 99.4787 217.233 103.133 217.771 105.485Z" fill="#96A6AA"/>
<path d="M226.261 123.054C226.597 124.521 228.59 124.205 229.722 123.893C229.289 124.108 228.967 124.228 228.967 124.228C228.967 124.228 225.194 125.713 224.72 123.641C224.246 121.573 226.537 117.887 226.537 117.887C226.537 117.887 226.951 118.011 227.554 118.235C226.905 119.464 225.935 121.637 226.261 123.054Z" fill="#96A6AA"/>
<path d="M231.176 122.032C231.176 122.032 230.987 121.789 230.679 121.454C230.527 121.284 230.343 121.092 230.14 120.89C230.039 120.789 229.938 120.684 229.827 120.578C229.722 120.473 229.611 120.367 229.501 120.262C229.39 120.161 229.28 120.055 229.169 119.955C229.059 119.854 228.949 119.757 228.843 119.661C228.631 119.473 228.424 119.304 228.249 119.157C227.895 118.868 227.642 118.694 227.642 118.694C227.642 118.694 227.83 118.937 228.139 119.271C228.29 119.441 228.475 119.634 228.677 119.835C228.778 119.936 228.879 120.042 228.99 120.147C229.096 120.253 229.206 120.358 229.317 120.464C229.427 120.564 229.542 120.67 229.648 120.771C229.758 120.872 229.869 120.968 229.975 121.064C230.186 121.252 230.393 121.422 230.568 121.568C230.923 121.853 231.176 122.032 231.176 122.032Z" fill="#87979B"/>
<path d="M229.602 123.095C229.602 123.095 229.473 122.788 229.252 122.343C229.142 122.123 229.008 121.866 228.861 121.591C228.787 121.458 228.714 121.316 228.631 121.174C228.548 121.032 228.47 120.89 228.387 120.748C228.304 120.606 228.217 120.464 228.134 120.326C228.051 120.184 227.964 120.051 227.881 119.923C227.715 119.661 227.559 119.418 227.416 119.216C227.136 118.808 226.928 118.547 226.928 118.547C226.928 118.547 227.057 118.854 227.278 119.299C227.389 119.519 227.522 119.776 227.669 120.051C227.743 120.188 227.817 120.326 227.899 120.468C227.982 120.61 228.06 120.752 228.143 120.895C228.226 121.037 228.313 121.179 228.396 121.316C228.479 121.454 228.567 121.591 228.649 121.72C228.815 121.981 228.972 122.224 229.114 122.426C229.395 122.834 229.602 123.095 229.602 123.095Z" fill="#87979B"/>
<path d="M225.852 124.058C225.852 124.058 225.925 123.76 225.994 123.311C226.031 123.086 226.068 122.825 226.1 122.54C226.114 122.398 226.137 122.252 226.151 122.105C226.165 121.958 226.178 121.807 226.192 121.656C226.201 121.504 226.215 121.353 226.224 121.206C226.238 121.06 226.243 120.913 226.247 120.771C226.261 120.486 226.27 120.221 226.27 119.991C226.275 119.537 226.252 119.23 226.252 119.23C226.252 119.23 226.178 119.528 226.109 119.978C226.073 120.202 226.036 120.464 226.004 120.748C225.99 120.89 225.967 121.032 225.958 121.183C225.944 121.33 225.93 121.481 225.916 121.633C225.907 121.784 225.893 121.935 225.884 122.082C225.87 122.229 225.865 122.375 225.861 122.518C225.847 122.802 225.838 123.068 225.838 123.297C225.833 123.751 225.852 124.058 225.852 124.058Z" fill="#87979B"/>
<path d="M227.738 123.806C227.738 123.806 227.72 123.476 227.651 122.985C227.619 122.738 227.577 122.453 227.522 122.151C227.494 121.999 227.471 121.839 227.439 121.683C227.407 121.523 227.379 121.362 227.347 121.202C227.31 121.041 227.278 120.881 227.246 120.72C227.214 120.56 227.172 120.409 227.14 120.257C227.071 119.955 226.997 119.675 226.928 119.437C226.795 118.96 226.685 118.643 226.685 118.643C226.685 118.643 226.703 118.973 226.772 119.464C226.804 119.712 226.846 119.996 226.901 120.298C226.928 120.45 226.951 120.61 226.984 120.766C227.016 120.927 227.048 121.087 227.076 121.248C227.113 121.408 227.145 121.569 227.177 121.729C227.209 121.889 227.251 122.041 227.283 122.192C227.356 122.495 227.425 122.77 227.494 123.013C227.623 123.494 227.738 123.806 227.738 123.806Z" fill="#87979B"/>
<path d="M222.253 102.055C222.203 102.17 222.253 102.303 222.368 102.353L224.517 103.312C224.632 103.362 224.766 103.312 224.816 103.197C224.867 103.082 224.816 102.949 224.701 102.899L222.552 101.941C222.433 101.89 222.304 101.941 222.253 102.055Z" fill="#87979B"/>
<path d="M222.957 103.903C223.072 103.953 223.206 103.903 223.256 103.788L224.218 101.647C224.269 101.533 224.218 101.4 224.103 101.349C223.988 101.299 223.855 101.349 223.804 101.464L222.842 103.605C222.796 103.72 222.847 103.853 222.957 103.903Z" fill="#87979B"/>
<path d="M219.074 101.78C219.087 101.817 219.11 101.844 219.143 101.867C219.23 101.932 219.354 101.913 219.419 101.822C221.066 99.5474 219.055 97.8556 219.037 97.8373C218.954 97.7685 218.83 97.7777 218.761 97.8648C218.692 97.9473 218.701 98.0711 218.788 98.1399C218.862 98.1995 220.532 99.6208 219.101 101.588C219.055 101.652 219.051 101.721 219.074 101.78Z" fill="#87979B"/>
<path d="M214.983 103.27L227.968 125.498C224.154 127.717 219.718 128.987 214.983 128.987C210.248 128.987 205.812 127.717 201.997 125.498L213.98 103.27H214.983Z" fill="#FCDB88"/>
<path d="M213.98 103.27L226.965 125.498C223.151 127.717 218.715 128.987 213.98 128.987C209.245 128.987 204.809 127.717 200.994 125.498L213.98 103.27Z" fill="#FFCB2D"/>
<path d="M213.98 103.27C213.98 103.27 205.09 122.499 213.497 123.233C217.661 123.595 211.003 128.744 215.259 128.95C214.836 128.968 214.408 128.982 213.98 128.982C209.245 128.982 204.809 127.712 200.994 125.493L213.98 103.27Z" fill="#FCA61D"/>
<path d="M215.282 127.474C210.552 127.474 206.084 126.373 202.112 124.42C201.984 124.356 201.864 124.283 201.758 124.196L203.659 120.94C203.672 120.945 203.686 120.95 203.705 120.959C207.262 122.458 211.177 123.288 215.282 123.288C218.6 123.288 221.793 122.747 224.775 121.747L226.781 125.181C223.243 126.658 219.359 127.474 215.282 127.474Z" fill="#FCA61D"/>
<path d="M213.98 125.273C218.089 125.273 222 124.443 225.557 122.944C226.445 122.568 227.471 122.912 227.955 123.737C228.511 124.691 228.143 125.915 227.149 126.406C223.178 128.363 218.71 129.459 213.98 129.459C209.249 129.459 204.781 128.359 200.81 126.406C199.816 125.915 199.448 124.691 200.005 123.737C200.488 122.907 201.514 122.568 202.402 122.944C205.959 124.443 209.875 125.273 213.98 125.273Z" fill="#E59742"/>
<path d="M200.005 123.742C200.203 123.398 200.497 123.141 200.833 122.981C200.81 123.7 201.201 124.411 201.896 124.755C205.867 126.713 210.34 127.808 215.066 127.808C219.787 127.808 224.25 126.713 228.212 124.764C228.189 125.438 227.803 126.085 227.149 126.406C223.178 128.363 218.71 129.459 213.98 129.459C209.249 129.459 204.781 128.359 200.81 126.406C199.816 125.92 199.448 124.695 200.005 123.742Z" fill="#C67728"/>
<path d="M220.311 118.263C220.311 118.263 223.091 119.368 221.292 120.5C220.445 121.037 220.68 121.912 220.758 122.293C220.933 123.201 220.077 124.067 218.149 122.609C219.405 122.426 220.859 120.257 220.311 118.263Z" fill="#FFB52D"/>
<path d="M220.164 117.919C220.164 117.919 222.944 119.024 221.144 120.156C220.298 120.693 220.532 121.568 220.611 121.949C220.785 122.857 219.93 123.723 218.001 122.265C219.258 122.082 220.712 119.909 220.164 117.919Z" fill="#52B33D"/>
<path d="M218.006 122.27C218.006 122.27 219.81 122.348 220.077 121.417C220.44 120.161 221.149 120.156 221.149 120.156C220.302 120.693 220.537 121.569 220.615 121.949C220.785 122.857 219.934 123.728 218.006 122.27Z" fill="#29990E"/>
<path d="M207.289 117.694C207.289 117.694 204.952 118.625 206.465 119.574C207.179 120.023 206.981 120.762 206.916 121.082C206.769 121.844 207.487 122.577 209.107 121.348C208.048 121.197 206.829 119.372 207.289 117.694Z" fill="#FEDB03"/>
<path d="M209.107 121.353C209.107 121.353 207.593 121.417 207.363 120.638C207.054 119.579 206.461 119.579 206.461 119.579C207.174 120.028 206.976 120.766 206.912 121.087C206.765 121.848 207.487 122.582 209.107 121.353Z" fill="#FF9C00"/>
<path d="M212.898 111.404C212.898 111.404 210.565 112.335 212.075 113.288C212.788 113.737 212.59 114.476 212.526 114.797C212.378 115.558 213.096 116.291 214.716 115.063C213.662 114.907 212.438 113.082 212.898 111.404Z" fill="#FFB52D"/>
<path d="M213.133 111.129C213.133 111.129 210.8 112.059 212.309 113.009C213.023 113.458 212.825 114.196 212.76 114.517C212.613 115.278 213.331 116.012 214.951 114.783C213.897 114.632 212.673 112.807 213.133 111.129Z" fill="#FF3136"/>
<path d="M214.951 114.787C214.951 114.787 213.437 114.852 213.207 114.072C212.898 113.013 212.305 113.013 212.305 113.013C213.018 113.462 212.82 114.201 212.756 114.522C212.613 115.283 213.331 116.016 214.951 114.787Z" fill="#DD0A1B"/>
<path d="M209.199 123.329C209.199 124.173 209.884 124.856 210.731 124.856C211.578 124.856 212.263 124.173 212.263 123.329C212.263 122.485 211.578 121.802 210.731 121.802C209.884 121.807 209.199 122.49 209.199 123.329Z" fill="#FFB52D"/>
<path d="M208.915 122.949C208.915 123.792 209.601 124.475 210.447 124.475C211.294 124.475 211.98 123.792 211.98 122.949C211.98 122.105 211.294 121.422 210.447 121.422C209.601 121.422 208.915 122.105 208.915 122.949Z" fill="#FF3136"/>
<path d="M209.852 121.541C209.774 121.72 209.733 121.921 209.733 122.128C209.733 122.971 210.418 123.655 211.265 123.655C211.472 123.655 211.674 123.613 211.854 123.535C211.624 124.086 211.076 124.475 210.441 124.475C209.595 124.475 208.909 123.792 208.909 122.949C208.913 122.316 209.3 121.77 209.852 121.541Z" fill="#DD0A1B"/>
<path d="M209.88 123.847C209.88 124.026 210.05 124.173 210.262 124.173C210.473 124.173 210.644 124.026 210.644 123.847C210.644 123.668 210.473 123.522 210.262 123.522C210.05 123.526 209.88 123.668 209.88 123.847Z" fill="#DD0A1B"/>
<path d="M208.614 116.282C208.614 116.768 209.01 117.167 209.502 117.167C209.99 117.167 210.386 116.773 210.386 116.282C210.386 115.796 209.99 115.397 209.502 115.397C209.01 115.397 208.614 115.792 208.614 116.282Z" fill="#FFB52D"/>
<path d="M208.446 116.062C208.446 116.548 208.841 116.947 209.334 116.947C209.821 116.947 210.222 116.553 210.222 116.062C210.222 115.576 209.826 115.182 209.334 115.182C208.841 115.177 208.446 115.571 208.446 116.062Z" fill="#FF3136"/>
<path d="M208.992 115.246C208.95 115.352 208.923 115.466 208.923 115.586C208.923 116.072 209.318 116.471 209.806 116.471C209.926 116.471 210.041 116.448 210.147 116.402C210.013 116.723 209.696 116.943 209.328 116.943C208.84 116.943 208.44 116.548 208.44 116.058C208.444 115.696 208.67 115.379 208.992 115.246Z" fill="#DD0A1B"/>
<path d="M209.006 116.58C209.006 116.686 209.102 116.768 209.226 116.768C209.351 116.768 209.447 116.686 209.447 116.58C209.447 116.475 209.351 116.392 209.226 116.392C209.107 116.392 209.006 116.479 209.006 116.58Z" fill="#DD0A1B"/>
<path d="M215.572 123.439C215.572 123.925 215.968 124.324 216.46 124.324C216.948 124.324 217.343 123.93 217.343 123.439C217.343 122.953 216.948 122.554 216.46 122.554C215.968 122.559 215.572 122.953 215.572 123.439Z" fill="#FFB52D"/>
<path d="M215.402 123.219C215.402 123.705 215.797 124.104 216.29 124.104C216.782 124.104 217.178 123.71 217.178 123.219C217.178 122.733 216.782 122.334 216.29 122.334C215.797 122.334 215.402 122.733 215.402 123.219Z" fill="#FF3136"/>
<path d="M215.949 122.408C215.903 122.514 215.88 122.628 215.88 122.747C215.88 123.233 216.276 123.632 216.768 123.632C216.888 123.632 217.003 123.609 217.109 123.563C216.975 123.884 216.658 124.104 216.29 124.104C215.802 124.104 215.402 123.71 215.402 123.22C215.402 122.853 215.627 122.541 215.949 122.408Z" fill="#DD0A1B"/>
<path d="M215.963 123.742C215.963 123.847 216.06 123.93 216.184 123.93C216.304 123.93 216.405 123.847 216.405 123.742C216.405 123.636 216.308 123.554 216.184 123.554C216.064 123.554 215.963 123.636 215.963 123.742Z" fill="#DD0A1B"/>
<path d="M211.78 120.592C211.78 121.078 212.176 121.477 212.668 121.477C213.156 121.477 213.556 121.082 213.556 120.592C213.556 120.106 213.161 119.707 212.668 119.707C212.181 119.712 211.78 120.106 211.78 120.592Z" fill="#FFB52D"/>
<path d="M211.616 120.372C211.616 120.858 212.012 121.257 212.504 121.257C212.992 121.257 213.392 120.862 213.392 120.372C213.392 119.886 212.996 119.487 212.504 119.487C212.012 119.492 211.616 119.886 211.616 120.372Z" fill="#FF3136"/>
<path d="M212.158 119.556C212.116 119.662 212.089 119.776 212.089 119.895C212.089 120.381 212.484 120.78 212.972 120.78C213.092 120.78 213.207 120.757 213.313 120.712C213.179 121.033 212.862 121.253 212.493 121.253C212.006 121.253 211.605 120.858 211.605 120.368C211.615 120.006 211.84 119.694 212.158 119.556Z" fill="#DD0A1B"/>
<path d="M212.176 120.894C212.176 121 212.273 121.082 212.397 121.082C212.521 121.082 212.618 121 212.618 120.894C212.618 120.789 212.521 120.706 212.397 120.706C212.273 120.706 212.176 120.789 212.176 120.894Z" fill="#DD0A1B"/>
<path d="M215.604 112.761C215.604 113.247 216 113.646 216.492 113.646C216.985 113.646 217.38 113.252 217.38 112.761C217.38 112.275 216.985 111.876 216.492 111.876C216 111.876 215.604 112.275 215.604 112.761Z" fill="#FFB52D"/>
<path d="M215.435 112.541C215.435 113.027 215.831 113.426 216.323 113.426C216.811 113.426 217.211 113.032 217.211 112.541C217.211 112.055 216.816 111.661 216.323 111.661C215.836 111.661 215.435 112.055 215.435 112.541Z" fill="#FF3136"/>
<path d="M215.981 111.726C215.935 111.832 215.912 111.946 215.912 112.066C215.912 112.552 216.308 112.95 216.796 112.95C216.916 112.95 217.031 112.927 217.136 112.882C217.003 113.203 216.685 113.423 216.317 113.423C215.83 113.423 215.429 113.028 215.429 112.538C215.434 112.176 215.659 111.864 215.981 111.726Z" fill="#DD0A1B"/>
<path d="M215.995 113.064C215.995 113.169 216.096 113.252 216.216 113.252C216.336 113.252 216.437 113.169 216.437 113.064C216.437 112.958 216.34 112.876 216.216 112.876C216.096 112.876 215.995 112.958 215.995 113.064Z" fill="#DD0A1B"/>
<path d="M212.871 109.107C212.871 109.941 213.547 110.615 214.385 110.615C215.222 110.615 215.899 109.941 215.899 109.107C215.899 108.272 215.222 107.598 214.385 107.598C213.547 107.598 212.871 108.272 212.871 109.107Z" fill="#FFB52D"/>
<path d="M212.585 108.731C212.585 109.565 213.262 110.239 214.099 110.239C214.937 110.239 215.613 109.565 215.613 108.731C215.613 107.896 214.937 107.222 214.099 107.222C213.262 107.218 212.585 107.896 212.585 108.731Z" fill="#FF3136"/>
<path d="M213.515 107.337C213.441 107.516 213.4 107.713 213.4 107.919C213.4 108.754 214.076 109.428 214.914 109.428C215.121 109.428 215.319 109.386 215.498 109.313C215.268 109.859 214.73 110.239 214.099 110.239C213.262 110.239 212.585 109.565 212.585 108.731C212.585 108.103 212.967 107.562 213.515 107.337Z" fill="#DD0A1B"/>
<path d="M213.543 109.62C213.543 109.799 213.713 109.941 213.92 109.941C214.127 109.941 214.297 109.799 214.297 109.62C214.297 109.442 214.127 109.299 213.92 109.299C213.713 109.299 213.543 109.442 213.543 109.62Z" fill="#DD0A1B"/>
<path d="M215.733 118.167C215.733 119.001 216.409 119.675 217.247 119.675C218.084 119.675 218.761 119.001 218.761 118.167C218.761 117.332 218.084 116.658 217.247 116.658C216.414 116.658 215.733 117.332 215.733 118.167Z" fill="#FFB52D"/>
<path d="M215.448 117.791C215.448 118.625 216.124 119.299 216.962 119.299C217.799 119.299 218.475 118.625 218.475 117.791C218.475 116.956 217.799 116.282 216.962 116.282C216.129 116.282 215.448 116.956 215.448 117.791Z" fill="#FF3136"/>
<path d="M216.382 116.397C216.308 116.576 216.267 116.773 216.267 116.979C216.267 117.814 216.943 118.488 217.781 118.488C217.988 118.488 218.186 118.446 218.365 118.373C218.135 118.919 217.597 119.299 216.966 119.299C216.129 119.299 215.452 118.625 215.452 117.791C215.448 117.163 215.834 116.626 216.382 116.397Z" fill="#DD0A1B"/>
<path d="M216.409 118.68C216.409 118.859 216.58 119.001 216.787 119.001C216.994 119.001 217.164 118.859 217.164 118.68C217.164 118.506 216.994 118.359 216.787 118.359C216.575 118.359 216.409 118.501 216.409 118.68Z" fill="#DD0A1B"/>
<path d="M227.494 104.593C229.142 105.94 228.185 107.357 228.185 107.357C230.743 107.577 230.117 110.016 230.117 110.016C232.915 112.103 229.666 114.225 229.666 114.225C230.674 117.361 227.002 118.333 227.002 118.333C226.017 121.621 222.921 120.121 222.921 120.121C221.48 122.322 219.124 120.603 219.124 120.603C217.716 123.67 215.319 121.167 215.319 121.167L213.161 124.101C219.814 128.952 229.156 127.512 234.024 120.887C238.892 114.257 237.448 104.95 230.798 100.099L227.494 104.593Z" fill="#A1D455"/>
<path d="M227.494 104.591C229.142 105.939 228.185 107.355 228.185 107.355C230.743 107.575 230.117 110.015 230.117 110.015C232.915 112.101 229.666 114.223 229.666 114.223C230.674 117.36 227.002 118.332 227.002 118.332C226.017 121.619 222.921 120.12 222.921 120.12C221.48 122.32 219.124 120.601 219.124 120.601C217.716 123.668 215.319 121.165 215.319 121.165L214.569 122.183C220.16 126.259 228.005 125.048 232.101 119.482C236.191 113.912 234.981 106.095 229.39 102.014L227.494 104.591Z" fill="#ED1C24"/>
<path d="M229.984 101.203C236.449 105.92 237.995 114.842 233.605 121.426C233.748 121.248 233.891 121.069 234.024 120.881C238.892 114.251 237.448 104.944 230.798 100.093L229.984 101.203Z" fill="#7FB442"/>
<path d="M227.494 104.591C232.644 108.346 234.079 115.283 231.07 120.706C231.433 120.326 231.778 119.913 232.101 119.478C236.191 113.907 234.981 106.09 229.39 102.009L227.494 104.591Z" fill="#C32127"/>
<path d="M220.615 122.632C220.569 122.889 220.417 123.081 220.275 123.054C220.132 123.031 220.054 122.802 220.095 122.54C220.141 122.284 220.293 122.091 220.436 122.119C220.583 122.146 220.661 122.375 220.615 122.632Z" fill="#701313"/>
<path d="M220.578 122.242C220.578 122.279 220.574 122.32 220.565 122.362C220.519 122.618 220.367 122.811 220.224 122.783C220.164 122.774 220.118 122.728 220.086 122.664C220.081 122.871 220.155 123.036 220.275 123.059C220.417 123.081 220.569 122.893 220.615 122.637C220.643 122.481 220.624 122.339 220.578 122.242Z" fill="#590D0D"/>
<path d="M223.082 122.174C223.132 122.43 223.059 122.664 222.916 122.692C222.773 122.719 222.617 122.536 222.566 122.279C222.516 122.022 222.589 121.793 222.732 121.761C222.875 121.729 223.031 121.917 223.082 122.174Z" fill="#701313"/>
<path d="M222.907 121.822C222.921 121.858 222.93 121.895 222.939 121.936C222.99 122.193 222.916 122.422 222.774 122.454C222.714 122.463 222.654 122.441 222.599 122.39C222.668 122.587 222.797 122.716 222.916 122.688C223.059 122.661 223.133 122.427 223.082 122.17C223.054 122.023 222.985 121.895 222.907 121.822Z" fill="#590D0D"/>
<path d="M226.551 121.303C226.616 121.555 226.556 121.793 226.418 121.83C226.275 121.866 226.109 121.688 226.045 121.436C225.981 121.183 226.04 120.945 226.178 120.908C226.316 120.872 226.487 121.046 226.551 121.303Z" fill="#701313"/>
<path d="M226.355 120.96C226.369 120.997 226.383 121.034 226.392 121.07C226.457 121.322 226.397 121.561 226.259 121.597C226.203 121.611 226.139 121.593 226.084 121.542C226.162 121.735 226.3 121.854 226.42 121.822C226.562 121.785 226.622 121.552 226.553 121.295C226.516 121.153 226.438 121.029 226.355 120.96Z" fill="#590D0D"/>
<path d="M229.381 119.744C229.579 119.914 229.666 120.143 229.57 120.253C229.473 120.363 229.238 120.313 229.036 120.143C228.838 119.973 228.751 119.744 228.847 119.634C228.944 119.524 229.183 119.574 229.381 119.744Z" fill="#701313"/>
<path d="M229.027 119.574C229.059 119.592 229.091 119.62 229.123 119.643C229.321 119.812 229.409 120.042 229.312 120.152C229.275 120.198 229.211 120.216 229.137 120.207C229.312 120.317 229.492 120.34 229.574 120.248C229.671 120.138 229.584 119.909 229.386 119.739C229.266 119.643 229.133 119.583 229.027 119.574Z" fill="#590D0D"/>
<path d="M231.346 117.694C231.544 117.864 231.631 118.093 231.535 118.203C231.438 118.313 231.203 118.263 231.001 118.093C230.803 117.923 230.716 117.694 230.812 117.584C230.909 117.474 231.143 117.525 231.346 117.694Z" fill="#701313"/>
<path d="M230.987 117.529C231.019 117.548 231.051 117.575 231.084 117.598C231.281 117.768 231.369 117.997 231.272 118.107C231.235 118.153 231.171 118.171 231.097 118.162C231.272 118.272 231.456 118.295 231.535 118.203C231.631 118.093 231.544 117.864 231.346 117.694C231.226 117.593 231.093 117.538 230.987 117.529Z" fill="#590D0D"/>
<path d="M232.593 114.839C232.823 114.967 232.947 115.174 232.878 115.302C232.805 115.426 232.561 115.426 232.335 115.297C232.105 115.169 231.981 114.963 232.05 114.834C232.119 114.706 232.363 114.71 232.593 114.839Z" fill="#701313"/>
<path d="M232.206 114.742C232.243 114.755 232.28 114.774 232.312 114.792C232.542 114.92 232.667 115.127 232.598 115.255C232.57 115.306 232.51 115.338 232.436 115.347C232.63 115.425 232.814 115.406 232.874 115.301C232.947 115.177 232.818 114.966 232.588 114.838C232.455 114.76 232.317 114.728 232.206 114.742Z" fill="#590D0D"/>
<path d="M232.786 111.679C233.048 111.711 233.246 111.853 233.228 111.995C233.21 112.137 232.984 112.229 232.722 112.197C232.459 112.165 232.262 112.023 232.28 111.881C232.298 111.739 232.524 111.647 232.786 111.679Z" fill="#701313"/>
<path d="M232.395 111.734C232.432 111.734 232.473 111.734 232.515 111.738C232.777 111.771 232.975 111.913 232.956 112.055C232.947 112.114 232.906 112.165 232.841 112.202C233.048 112.197 233.214 112.114 233.228 111.995C233.246 111.853 233.048 111.711 232.786 111.679C232.634 111.661 232.492 111.683 232.395 111.734Z" fill="#590D0D"/>
<path d="M231.53 107.135C231.783 107.067 232.022 107.122 232.059 107.264C232.096 107.401 231.926 107.571 231.668 107.644C231.415 107.713 231.176 107.658 231.139 107.516C231.102 107.374 231.277 107.204 231.53 107.135Z" fill="#701313"/>
<path d="M231.191 107.337C231.228 107.323 231.265 107.31 231.302 107.296C231.555 107.227 231.794 107.282 231.831 107.424C231.845 107.479 231.826 107.543 231.78 107.603C231.969 107.52 232.089 107.383 232.056 107.264C232.02 107.126 231.78 107.067 231.527 107.135C231.38 107.177 231.26 107.255 231.191 107.337Z" fill="#590D0D"/>
</g>
<g clip-path="url(#clip2)">
<path d="M37.2132 148.516H34.442V164.412H37.2132V148.516Z" fill="#A97C50"/>
<path d="M48.6944 136.869C48.6944 146.337 42.9327 154.008 35.8297 154.008C28.7225 154.008 22.9608 146.333 22.9608 136.869C22.9608 127.401 28.7225 119.725 35.8255 119.725C42.9327 119.725 48.6944 127.401 48.6944 136.869Z" fill="#FFAB00"/>
<path d="M48.6944 136.869C48.6944 127.401 42.9327 119.725 35.8255 119.725V154.008C42.9327 154.008 48.6944 146.333 48.6944 136.869Z" fill="#F7941E"/>
<path d="M53.8276 152.279H51.7144V164.408H53.8276V152.279Z" fill="#A97C50"/>
<path d="M62.5882 143.393C62.5882 150.615 58.1932 156.474 52.7689 156.474C47.3446 156.474 42.9496 150.62 42.9496 143.393C42.9496 136.17 47.3446 130.312 52.7689 130.312C58.1932 130.312 62.5882 136.166 62.5882 143.393Z" fill="#72CE4A"/>
<path d="M62.5882 143.393C62.5882 136.17 58.1932 130.312 52.7689 130.312V156.474C58.1932 156.474 62.5882 150.615 62.5882 143.393Z" fill="#5CB52C"/>
</g>
<defs>
<filter id="filter0_f" x="32.8824" y="163.373" width="249.118" height="49.2941" filterUnits="userSpaceOnUse" color-interpolation-filters="sRGB">
<feFlood flood-opacity="0" result="BackgroundImageFix"/>
<feBlend mode="normal" in="SourceGraphic" in2="BackgroundImageFix" result="shape"/>
<feGaussianBlur stdDeviation="6" result="effect1_foregroundBlur"/>
</filter>
<filter id="filter1_f" x="0" y="149.039" width="90.6078" height="32.4314" filterUnits="userSpaceOnUse" color-interpolation-filters="sRGB">
<feFlood flood-opacity="0" result="BackgroundImageFix"/>
<feBlend mode="normal" in="SourceGraphic" in2="BackgroundImageFix" result="shape"/>
<feGaussianBlur stdDeviation="6" result="effect1_foregroundBlur"/>
</filter>
<clipPath id="clip0">
<rect width="121.412" height="190.549" fill="white" transform="translate(63.4314)"/>
</clipPath>
<clipPath id="clip1">
<rect width="84.3137" height="113.824" fill="white" transform="translate(155.333 79.2549)"/>
</clipPath>
<clipPath id="clip2">
<rect width="39.6275" height="44.6863" fill="white" transform="translate(22.9608 119.725)"/>
</clipPath>
</defs>
</svg>
